<svg width="231" height="161" viewBox="0 0 231 161" fill="none" xmlns="http://www.w3.org/2000/svg">
<g clip-path="url(#clip0)">
<path d="M104.745 65.2542H0V0H104.745V65.2542Z" fill="white"/>
<path d="M104.745 65.2542H0V0H104.745V65.2542ZM0.478288 64.7779H104.267V0.476309H0.478288V64.7779Z" fill="#3F3D56"/>
<path d="M91.9508 155.634H32.1649V90.3794H91.9508V155.634Z" fill="white"/>
<path d="M91.9508 155.634H32.1649V90.3794H91.9508V155.634ZM32.6432 155.157H91.4725V90.8557H32.6432V155.157Z" fill="#3F3D56"/>
<path d="M83.8199 149.471H71.3844V149.973H83.8199V149.471Z" fill="#3F3D56"/>
<path d="M83.8199 150.977H71.3844V151.479H83.8199V150.977Z" fill="#3F3D56"/>
<path d="M83.8199 152.483H71.3844V152.985H83.8199V152.483Z" fill="#3F3D56"/>
<path d="M62.0577 102.049V107.289C65.1794 107.289 68.2309 108.211 70.8265 109.938C73.4221 111.665 75.4451 114.12 76.6397 116.992C77.8343 119.864 78.1469 123.024 77.5379 126.073C76.9289 129.122 75.4257 131.923 73.2183 134.121L76.9385 137.826C79.8817 134.895 81.886 131.161 82.698 127.095C83.51 123.03 83.0932 118.816 81.5004 114.987C79.9076 111.157 77.2102 107.884 73.7495 105.581C70.2887 103.278 66.2199 102.049 62.0577 102.049Z" fill="#E6E6E6"/>
<path d="M76.9387 137.826L73.2185 134.121C70.52 136.809 66.9348 138.432 63.1269 138.689C59.3191 138.946 55.5467 137.82 52.5086 135.519L49.3242 139.692C53.3757 142.759 58.4057 144.259 63.4829 143.916C68.56 143.573 73.3403 141.409 76.9387 137.826Z" fill="#575A89"/>
<path d="M46.2742 123.007C46.2742 120.943 46.6825 118.899 47.4757 116.992C48.2689 115.085 49.4315 113.352 50.8971 111.892C52.3627 110.433 54.1027 109.275 56.0176 108.485C57.9326 107.695 59.985 107.289 62.0577 107.289V102.049C57.6523 102.049 53.3579 103.426 49.7799 105.986C46.2019 108.545 43.5207 112.158 42.1143 116.316C40.7079 120.474 40.6471 124.966 41.9406 129.16C43.2341 133.354 45.8166 137.038 49.3241 139.692L52.5085 135.52C50.5696 134.055 48.9977 132.163 47.9161 129.992C46.8344 127.821 46.2725 125.43 46.2742 123.007Z" fill="#6C63FF"/>
<path d="M46.2742 123.007C46.2742 120.943 46.6825 118.899 47.4757 116.992C48.2689 115.085 49.4315 113.352 50.8971 111.892C52.3627 110.433 54.1027 109.275 56.0176 108.485C57.9326 107.695 59.985 107.289 62.0577 107.289V102.049C57.6523 102.049 53.3579 103.426 49.7799 105.986C46.2019 108.545 43.5207 112.158 42.1143 116.316C40.7079 120.474 40.6471 124.966 41.9406 129.16C43.2341 133.354 45.8166 137.038 49.3241 139.692L52.5085 135.52C50.5696 134.055 48.9977 132.163 47.9161 129.992C46.8344 127.821 46.2725 125.43 46.2742 123.007Z" fill="url(#paint0_linear)"/>
<path d="M180.434 115.148H120.648V49.8936H180.434V115.148Z" fill="white"/>
<path d="M140.019 89.7842H129.257V106.931H140.019V89.7842Z" fill="#575A89"/>
<path d="M155.563 78.1147H144.801V106.931H155.563V78.1147Z" fill="#E6E6E6"/>
<path d="M171.107 64.54H160.346V106.931H171.107V64.54Z" fill="#6C63FF"/>
<path d="M171.107 64.54H160.346V106.931H171.107V64.54Z" fill="url(#paint1_linear)"/>
<path d="M174.695 107.408H126.388V57.6333H126.866V106.931H174.695V107.408Z" fill="#3F3D56"/>
<path d="M230.725 161H179.398C179.325 161 179.255 160.971 179.204 160.92C179.152 160.869 179.123 160.799 179.123 160.726C179.123 160.654 179.152 160.584 179.204 160.533C179.255 160.482 179.325 160.453 179.398 160.453H230.725C230.798 160.453 230.868 160.482 230.919 160.533C230.971 160.584 231 160.654 231 160.726C231 160.799 230.971 160.869 230.919 160.92C230.868 160.971 230.798 161 230.725 161Z" fill="white"/>
<path fill-rule="evenodd" clip-rule="evenodd" d="M179.398 161H230.725C230.798 161 230.868 160.971 230.919 160.92C230.971 160.869 231 160.799 231 160.726C231 160.654 230.971 160.584 230.919 160.533C230.868 160.482 230.798 160.453 230.725 160.453H179.398C179.325 160.453 179.255 160.482 179.204 160.533C179.152 160.584 179.123 160.654 179.123 160.726C179.123 160.799 179.152 160.869 179.204 160.92C179.255 160.971 179.325 161 179.398 161Z" fill="black"/>
<path d="M90.1983 51.6068H14.5465C14.4837 51.6068 14.4235 51.582 14.3791 51.5378C14.3347 51.4935 14.3098 51.4336 14.3098 51.371V15.2612C14.3098 15.1986 14.3347 15.1387 14.3791 15.0944C14.4235 15.0502 14.4837 15.0254 14.5465 15.0254C14.6093 15.0254 14.6695 15.0502 14.7139 15.0944C14.7583 15.1387 14.7833 15.1986 14.7833 15.2612V51.1353H90.1983C90.2295 51.1352 90.2603 51.1412 90.2892 51.153C90.318 51.1648 90.3442 51.1821 90.3662 51.204C90.3883 51.2259 90.4058 51.252 90.4178 51.2806C90.4297 51.3093 90.4359 51.34 90.4359 51.371C90.4359 51.4021 90.4297 51.4328 90.4178 51.4615C90.4058 51.4901 90.3883 51.5161 90.3662 51.538C90.3442 51.5599 90.318 51.5773 90.2892 51.5891C90.2603 51.6009 90.2295 51.6069 90.1983 51.6068Z" fill="#3F3D56"/>
<path d="M30.7101 49.0137H23.8293C23.643 49.0135 23.4643 48.9397 23.3326 48.8085C23.2008 48.6773 23.1267 48.4994 23.1265 48.3138V38.8678C23.1267 38.6823 23.2008 38.5044 23.3326 38.3732C23.4643 38.242 23.643 38.1682 23.8293 38.168H30.7101C30.8964 38.1682 31.075 38.242 31.2068 38.3732C31.3386 38.5044 31.4127 38.6823 31.4129 38.8678V48.3138C31.4127 48.4994 31.3386 48.6773 31.2068 48.8085C31.0751 48.9397 30.8964 49.0135 30.7101 49.0137Z" fill="url(#paint2_linear)"/>
<path d="M43.2581 49.0137H36.3773C36.191 49.0135 36.0124 48.9397 35.8806 48.8085C35.7488 48.6773 35.6747 48.4994 35.6745 48.3138V29.9083C35.6747 29.7228 35.7488 29.5449 35.8806 29.4137C36.0124 29.2825 36.191 29.2087 36.3773 29.2085H43.2581C43.4445 29.2087 43.6231 29.2825 43.7548 29.4137C43.8866 29.5449 43.9607 29.7228 43.9609 29.9083V48.3138C43.9607 48.4994 43.8866 48.6773 43.7548 48.8085C43.6231 48.9397 43.4445 49.0135 43.2581 49.0137Z" fill="url(#paint3_linear)"/>
<path d="M55.8062 49.0137H48.9253C48.739 49.0135 48.5604 48.9397 48.4286 48.8085C48.2969 48.6773 48.2228 48.4994 48.2225 48.3138V38.8678C48.2228 38.6823 48.2969 38.5044 48.4286 38.3732C48.5604 38.242 48.739 38.1682 48.9253 38.168H55.8062C55.9925 38.1682 56.1711 38.242 56.3029 38.3732C56.4346 38.5044 56.5088 38.6823 56.509 38.8678V48.3138C56.5088 48.4994 56.4346 48.6773 56.3029 48.8085C56.1711 48.9397 55.9925 49.0135 55.8062 49.0137Z" fill="url(#paint4_linear)"/>
<path d="M68.3542 49.0134H61.4734C61.2913 49.0173 61.1151 48.9491 60.9834 48.8239C60.8516 48.6987 60.7751 48.5265 60.7706 48.3452V26.3397C60.7751 26.1584 60.8516 25.9862 60.9834 25.861C61.1151 25.7358 61.2913 25.6676 61.4734 25.6715H68.3542C68.5363 25.6676 68.7125 25.7358 68.8442 25.861C68.976 25.9862 69.0525 26.1584 69.057 26.3397V48.3452C69.0525 48.5265 68.976 48.6987 68.8442 48.8239C68.7125 48.9491 68.5363 49.0173 68.3542 49.0134Z" fill="url(#paint5_linear)"/>
<path d="M80.9023 49.0134H74.0215C73.8351 49.0132 73.6565 48.9394 73.5248 48.8082C73.393 48.677 73.3189 48.4991 73.3187 48.3136V20.0055C73.3189 19.82 73.393 19.6421 73.5248 19.5109C73.6565 19.3797 73.8351 19.3059 74.0215 19.3057H80.9023C81.0886 19.3059 81.2673 19.3797 81.399 19.5109C81.5308 19.6421 81.6049 19.82 81.6051 20.0055V48.3136C81.6049 48.4991 81.5308 48.677 81.399 48.8082C81.2673 48.9394 81.0886 49.0132 80.9023 49.0134Z" fill="url(#paint6_linear)"/>
<path d="M27.2696 35.3386C28.0541 35.3386 28.6901 34.7052 28.6901 33.9239C28.6901 33.1426 28.0541 32.5093 27.2696 32.5093C26.4851 32.5093 25.8491 33.1426 25.8491 33.9239C25.8491 34.7052 26.4851 35.3386 27.2696 35.3386Z" fill="#3F3D56"/>
<path d="M39.8177 26.1433C40.6022 26.1433 41.2382 25.5099 41.2382 24.7286C41.2382 23.9473 40.6022 23.314 39.8177 23.314C39.0331 23.314 38.3972 23.9473 38.3972 24.7286C38.3972 25.5099 39.0331 26.1433 39.8177 26.1433Z" fill="#3F3D56"/>
<path d="M52.3658 35.3386C53.1503 35.3386 53.7863 34.7052 53.7863 33.9239C53.7863 33.1426 53.1503 32.5093 52.3658 32.5093C51.5812 32.5093 50.9453 33.1426 50.9453 33.9239C50.9453 34.7052 51.5812 35.3386 52.3658 35.3386Z" fill="#3F3D56"/>
<path d="M64.9137 21.6638C65.6982 21.6638 66.3342 21.0304 66.3342 20.2491C66.3342 19.4678 65.6982 18.8345 64.9137 18.8345C64.1292 18.8345 63.4932 19.4678 63.4932 20.2491C63.4932 21.0304 64.1292 21.6638 64.9137 21.6638Z" fill="#3F3D56"/>
<path d="M77.4618 16.4763C78.2463 16.4763 78.8823 15.8429 78.8823 15.0616C78.8823 14.2803 78.2463 13.647 77.4618 13.647C76.6773 13.647 76.0413 14.2803 76.0413 15.0616C76.0413 15.8429 76.6773 16.4763 77.4618 16.4763Z" fill="#3F3D56"/>
<path d="M52.3955 34.2408L39.8177 24.8588L27.4115 34.1126L27.1277 33.7351L39.8177 24.2694L52.3357 33.6069L64.7754 20.0503L64.8254 20.0301L77.3732 14.9951L77.5503 15.4327L65.0521 20.4475L52.3955 34.2408Z" fill="#3F3D56"/>
<path d="M176.243 89.8419C176.56 90.0333 176.915 90.153 177.283 90.1925C177.651 90.232 178.024 90.1904 178.374 90.0705C178.725 89.9507 179.044 89.7556 179.311 89.4989C179.578 89.2422 179.785 88.9303 179.918 88.585L188.914 88.8842L186.47 84.8994L178.302 85.2262C177.707 85.0415 177.064 85.0814 176.496 85.3384C175.928 85.5953 175.474 86.0515 175.221 86.6205C174.967 87.1894 174.931 87.8316 175.119 88.4253C175.308 89.0191 175.708 89.5231 176.243 89.8419V89.8419Z" fill="white"/>
<path fill-rule="evenodd" clip-rule="evenodd" d="M176.474 89.3973L176.502 89.4139C176.756 89.5676 177.041 89.6636 177.337 89.6953C177.632 89.727 177.931 89.6936 178.212 89.5974C178.494 89.5012 178.75 89.3446 178.964 89.1386C179.178 88.9327 179.345 88.6823 179.451 88.4053L179.579 88.0734L188.002 88.3536L186.197 85.4107L178.236 85.7293L178.154 85.7038C177.675 85.5553 177.159 85.5874 176.702 85.7939C176.246 86.0004 175.881 86.3671 175.677 86.8241C175.473 87.2812 175.444 87.7971 175.596 88.274C175.744 88.7418 176.056 89.1404 176.474 89.3973ZM175.743 89.4525C175.892 89.6015 176.06 89.7326 176.243 89.8419C176.401 89.9375 176.569 90.0151 176.743 90.0739C176.918 90.1328 177.099 90.1727 177.283 90.1925C177.651 90.232 178.024 90.1904 178.374 90.0705C178.725 89.9507 179.044 89.7556 179.311 89.4989C179.578 89.2422 179.785 88.9303 179.918 88.585L188.914 88.8842L186.47 84.8994L178.302 85.2262C177.707 85.0415 177.064 85.0814 176.496 85.3384C175.928 85.5953 175.474 86.0515 175.221 86.6205C174.967 87.1894 174.931 87.8316 175.119 88.4253C175.243 88.8155 175.458 89.1669 175.743 89.4525Z" fill="black"/>
<path d="M226.967 109.31C227.211 109.032 227.391 108.704 227.495 108.348C227.598 107.993 227.622 107.62 227.566 107.254C227.509 106.888 227.373 106.54 227.166 106.232C226.96 105.925 226.689 105.667 226.372 105.475L228.242 96.6787L223.888 98.3847L222.779 106.477C222.493 107.03 222.42 107.669 222.573 108.273C222.727 108.876 223.097 109.403 223.613 109.752C224.13 110.101 224.756 110.249 225.374 110.168C225.992 110.086 226.559 109.781 226.967 109.31Z" fill="white"/>
<path fill-rule="evenodd" clip-rule="evenodd" d="M225.809 105.72L227.56 97.4829L224.343 98.7432L223.263 106.63L223.223 106.706C222.993 107.151 222.934 107.664 223.058 108.149C223.181 108.634 223.479 109.057 223.894 109.338C224.309 109.618 224.812 109.737 225.309 109.672C225.806 109.606 226.261 109.361 226.589 108.983L226.967 109.31C226.559 109.781 225.992 110.086 225.374 110.168C224.756 110.249 224.13 110.101 223.613 109.752C223.097 109.403 222.727 108.876 222.573 108.273C222.42 107.669 222.493 107.03 222.779 106.477L223.888 98.3847L228.242 96.6787L226.372 105.475C226.689 105.667 226.96 105.925 227.166 106.232C227.373 106.54 227.509 106.888 227.566 107.254C227.622 107.62 227.598 107.993 227.495 108.348C227.391 108.704 227.211 109.032 226.967 109.31L226.591 108.98C226.787 108.757 226.932 108.494 227.015 108.209C227.098 107.924 227.117 107.624 227.072 107.331C227.026 107.037 226.917 106.758 226.751 106.511C226.586 106.264 226.368 106.057 226.114 105.904L225.809 105.72Z" fill="black"/>
<path d="M205.893 155.156L202.805 155.155L201.336 143.255L205.894 143.255L205.893 155.156Z" fill="white"/>
<path fill-rule="evenodd" clip-rule="evenodd" d="M205.893 155.156L202.805 155.155L201.336 143.255L205.894 143.255L205.893 155.156ZM205.394 143.755L201.901 143.755L203.247 154.655L205.393 154.656L205.394 143.755Z" fill="black"/>
<path d="M206.681 158.147L196.723 158.146V158.02C196.723 157.512 196.823 157.008 197.018 156.539C197.213 156.069 197.499 155.642 197.858 155.283C198.218 154.923 198.646 154.638 199.116 154.443C199.586 154.249 200.09 154.148 200.599 154.148H200.599L206.681 154.149L206.681 158.147Z" fill="white"/>
<path fill-rule="evenodd" clip-rule="evenodd" d="M200.599 154.148C200.09 154.148 199.586 154.249 199.116 154.443C198.646 154.638 198.218 154.923 197.858 155.283C197.499 155.642 197.213 156.069 197.018 156.539C196.871 156.893 196.778 157.266 196.741 157.646C196.73 157.768 196.723 157.891 196.723 158.014C196.723 158.016 196.723 158.018 196.723 158.02V158.146L206.681 158.147L206.681 154.149L200.599 154.148ZM200.599 154.648C200.156 154.648 199.717 154.736 199.307 154.905C198.897 155.075 198.525 155.323 198.212 155.636C197.898 155.949 197.65 156.321 197.48 156.73C197.359 157.024 197.279 157.332 197.244 157.646L206.181 157.647L206.181 154.649L200.599 154.648Z" fill="black"/>
<path d="M221.007 155.156L217.918 155.155L216.449 143.255L221.007 143.255L221.007 155.156Z" fill="white"/>
<path fill-rule="evenodd" clip-rule="evenodd" d="M221.007 155.156L217.918 155.155L216.449 143.255L221.007 143.255L221.007 155.156ZM220.507 143.755L217.015 143.755L218.36 154.655L220.507 154.656L220.507 143.755Z" fill="black"/>
<path d="M221.794 158.147L211.837 158.146V158.02C211.837 157.512 211.937 157.008 212.132 156.539C212.326 156.069 212.612 155.642 212.972 155.283C213.332 154.923 213.759 154.638 214.229 154.443C214.699 154.249 215.203 154.148 215.712 154.148H215.713L221.794 154.149L221.794 158.147Z" fill="white"/>
<path fill-rule="evenodd" clip-rule="evenodd" d="M215.712 154.148C215.203 154.148 214.699 154.249 214.229 154.443C213.759 154.638 213.332 154.923 212.972 155.283C212.612 155.642 212.326 156.069 212.132 156.539C211.985 156.893 211.892 157.266 211.855 157.646C211.843 157.768 211.837 157.891 211.837 158.014C211.837 158.016 211.837 158.018 211.837 158.02V158.146L221.794 158.147L221.794 154.149L215.712 154.148ZM215.713 154.648C215.269 154.648 214.83 154.736 214.42 154.905C214.011 155.075 213.639 155.323 213.325 155.636C213.012 155.949 212.763 156.321 212.594 156.73C212.472 157.024 212.393 157.332 212.358 157.646L221.294 157.647L221.294 154.649L215.713 154.648Z" fill="black"/>
<path d="M206.215 148.942L201.843 148.767C201.545 148.754 201.264 148.624 201.06 148.406C200.857 148.188 200.747 147.899 200.756 147.601L201.987 107.24L202.068 107.211C209.729 104.442 216.067 104.651 221.445 107.85L221.505 107.886L222.243 147.196C222.245 147.346 222.218 147.496 222.162 147.636C222.107 147.775 222.024 147.903 221.918 148.01C221.813 148.118 221.687 148.203 221.548 148.261C221.409 148.32 221.26 148.35 221.109 148.35H217.423C217.16 148.349 216.906 148.258 216.703 148.091C216.501 147.924 216.362 147.693 216.311 147.436L211.289 121.915C211.272 121.827 211.224 121.748 211.153 121.692C211.083 121.636 210.995 121.607 210.905 121.61C210.815 121.614 210.729 121.649 210.663 121.71C210.597 121.771 210.554 121.853 210.544 121.943L207.385 147.946C207.351 148.221 207.217 148.473 207.01 148.656C206.803 148.839 206.536 148.941 206.26 148.942C206.245 148.942 206.23 148.942 206.215 148.942Z" fill="white"/>
<path fill-rule="evenodd" clip-rule="evenodd" d="M202.068 107.211L201.987 107.24L200.756 147.601C200.747 147.899 200.857 148.188 201.06 148.406C201.264 148.625 201.545 148.754 201.843 148.767L206.215 148.942C206.23 148.942 206.245 148.942 206.26 148.942C206.536 148.941 206.803 148.839 207.01 148.656C207.217 148.473 207.351 148.221 207.385 147.947L210.544 121.943C210.554 121.853 210.597 121.771 210.663 121.71C210.729 121.649 210.815 121.614 210.905 121.611C210.995 121.607 211.083 121.636 211.153 121.692C211.224 121.748 211.272 121.827 211.289 121.915L216.311 147.436C216.362 147.693 216.501 147.925 216.703 148.091C216.906 148.258 217.16 148.349 217.423 148.35H221.109C221.26 148.35 221.409 148.32 221.548 148.261C221.687 148.203 221.813 148.118 221.918 148.01C222.024 147.903 222.107 147.776 222.162 147.636C222.218 147.496 222.245 147.346 222.243 147.196M216.801 147.338C216.83 147.482 216.907 147.612 217.021 147.705C217.134 147.798 217.277 147.849 217.424 147.85H217.423V148.349L217.424 147.85H221.109C221.194 147.85 221.277 147.833 221.355 147.8C221.432 147.768 221.503 147.72 221.562 147.66C221.621 147.6 221.667 147.529 221.698 147.451C221.729 147.373 221.744 147.289 221.743 147.205L221.743 147.205L221.01 108.175C221.07 108.209 221.129 108.244 221.188 108.28M221.422 107.888L221.005 107.895L221.01 108.175C215.891 105.206 209.848 104.982 202.477 107.596L201.255 147.614C201.255 147.615 201.255 147.615 201.255 147.615C201.251 147.782 201.312 147.943 201.426 148.065C201.54 148.187 201.697 148.26 201.864 148.267C201.864 148.267 201.865 148.267 201.865 148.267L206.231 148.442C206.232 148.442 206.232 148.442 206.233 148.442C206.241 148.442 206.25 148.442 206.258 148.442C206.413 148.441 206.563 148.384 206.679 148.282C206.795 148.179 206.869 148.038 206.889 147.885C206.889 147.884 206.889 147.884 206.889 147.884L210.047 121.883M216.801 147.338L211.78 121.819ZM221.422 107.888L221.445 107.85L221.422 107.888M221.189 108.28L221.249 108.315L221.505 107.886L221.422 107.888" fill="black"/>
<path d="M210.468 71.8444C213.884 71.8444 216.654 69.0771 216.654 65.6634C216.654 62.2498 213.884 59.4824 210.468 59.4824C207.051 59.4824 204.281 62.2498 204.281 65.6634C204.281 69.0771 207.051 71.8444 210.468 71.8444Z" fill="white"/>
<path fill-rule="evenodd" clip-rule="evenodd" d="M210.468 71.3444C213.609 71.3444 216.154 68.8005 216.154 65.6634C216.154 62.5263 213.609 59.9824 210.468 59.9824C207.327 59.9824 204.781 62.5263 204.781 65.6634C204.781 68.8005 207.327 71.3444 210.468 71.3444ZM216.654 65.6634C216.654 69.0771 213.884 71.8444 210.468 71.8444C207.051 71.8444 204.281 69.0771 204.281 65.6634C204.281 62.2498 207.051 59.4824 210.468 59.4824C213.884 59.4824 216.654 62.2498 216.654 65.6634Z" fill="black"/>
<path d="M181.383 88.3812C181.314 88.1612 181.314 87.9254 181.382 87.7053L182.023 85.6534C182.093 85.4314 182.23 85.2362 182.414 85.0943C182.599 84.9523 182.823 84.8704 183.055 84.8596L191.172 84.5011L204.34 77.757C204.798 77.6111 205.279 77.5566 205.757 77.5968C206.236 77.637 206.701 77.7709 207.128 77.991C207.554 78.2111 207.933 78.513 208.242 78.8795C208.552 79.246 208.786 79.6698 208.931 80.1268C209.077 80.5837 209.131 81.0649 209.09 81.5426C209.049 82.0204 208.914 82.4854 208.693 82.9111C208.472 83.3368 208.17 83.7149 207.802 84.0236C207.435 84.3323 207.011 84.5657 206.553 84.7104L198.483 89.3869C196.034 90.8066 193.152 91.2892 190.373 90.745L182.246 89.1541C182.09 89.1235 181.942 89.0603 181.812 88.9687C181.682 88.8771 181.572 88.7592 181.491 88.6226C181.445 88.5466 181.409 88.4656 181.383 88.3812Z" fill="white"/>
<path fill-rule="evenodd" clip-rule="evenodd" d="M181.86 88.2323C181.875 88.279 181.895 88.3239 181.92 88.366C181.965 88.4423 182.027 88.5085 182.1 88.5597C182.172 88.611 182.255 88.6463 182.343 88.6635L190.47 90.2543C193.129 90.7753 195.888 90.3133 198.232 88.9543L206.35 84.2502L206.402 84.2336C206.797 84.1087 207.164 83.9073 207.481 83.6409C207.798 83.3744 208.059 83.0482 208.249 82.6809C208.44 82.3135 208.556 81.9123 208.592 81.5C208.627 81.0878 208.58 80.6727 208.455 80.2784C208.329 79.8841 208.127 79.5184 207.86 79.2021C207.593 78.8859 207.266 78.6253 206.898 78.4353C206.53 78.2453 206.128 78.1297 205.715 78.095C205.316 78.0615 204.914 78.1045 204.53 78.2215L191.303 84.9958L183.078 85.359C183.078 85.359 183.079 85.359 183.078 85.359C182.948 85.3652 182.822 85.4111 182.719 85.4906C182.616 85.57 182.54 85.6791 182.5 85.8031C182.5 85.8033 182.5 85.803 182.5 85.8031L181.86 87.8542M183.055 84.8596C182.823 84.8704 182.599 84.9523 182.414 85.0943C182.23 85.2362 182.093 85.4314 182.023 85.6534L181.382 87.7053C181.314 87.9254 181.314 88.1612 181.383 88.3812C181.409 88.4656 181.445 88.5466 181.491 88.6226C181.572 88.7592 181.682 88.8771 181.812 88.9687C181.942 89.0603 182.09 89.1235 182.246 89.1541L190.373 90.745C193.152 91.2892 196.034 90.8066 198.483 89.3869L206.553 84.7104C207.011 84.5657 207.435 84.3323 207.802 84.0236C208.17 83.7149 208.472 83.3368 208.693 82.9111C208.914 82.4854 209.049 82.0204 209.09 81.5426C209.131 81.0649 209.077 80.5837 208.931 80.1268C208.786 79.6698 208.552 79.246 208.242 78.8795C207.933 78.513 207.554 78.2111 207.128 77.991C206.701 77.7709 206.236 77.637 205.757 77.5968C205.279 77.5566 204.798 77.6111 204.34 77.757L191.172 84.5011L183.055 84.8596ZM181.86 88.2323C181.822 88.1094 181.821 87.9771 181.86 87.8542Z" fill="black"/>
<path d="M226.703 103.615C226.486 103.693 226.25 103.703 226.027 103.644L223.948 103.092C223.723 103.032 223.522 102.904 223.372 102.725C223.222 102.547 223.131 102.327 223.11 102.096L222.406 94.009L215.101 81.152C214.935 80.7019 214.86 80.2236 214.88 79.7446C214.9 79.2655 215.014 78.7951 215.216 78.3601C215.418 77.9252 215.704 77.5343 216.057 77.2097C216.41 76.8852 216.824 76.6334 217.275 76.4688C217.726 76.3042 218.204 76.23 218.684 76.2504C219.163 76.2708 219.634 76.3854 220.069 76.5877C220.504 76.79 220.895 77.076 221.22 77.4293C221.544 77.7827 221.795 78.1964 221.96 78.6469L226.98 86.503C228.504 88.8871 229.11 91.7432 228.684 94.5399L227.439 102.72C227.415 102.877 227.358 103.028 227.272 103.162C227.186 103.295 227.073 103.41 226.94 103.497C226.866 103.546 226.786 103.585 226.703 103.615Z" fill="white"/>
<path fill-rule="evenodd" clip-rule="evenodd" d="M222.406 94.009L223.11 102.096C223.131 102.327 223.222 102.547 223.372 102.725C223.522 102.904 223.723 103.032 223.948 103.092L226.027 103.644C226.25 103.703 226.486 103.693 226.703 103.615C226.786 103.585 226.866 103.546 226.94 103.497C227.073 103.41 227.186 103.295 227.272 103.162C227.358 103.028 227.415 102.877 227.439 102.72L228.684 94.5399C229.11 91.7432 228.504 88.8871 226.98 86.503L221.96 78.6469C221.795 78.1964 221.544 77.7827 221.22 77.4293C220.895 77.076 220.504 76.79 220.069 76.5877C219.634 76.3854 219.163 76.2708 218.684 76.2504C218.204 76.23 217.726 76.3042 217.275 76.4688C216.824 76.6334 216.41 76.8852 216.057 77.2097C215.704 77.5343 215.418 77.9252 215.216 78.3601C215.014 78.7951 214.9 79.2655 214.88 79.7446C214.86 80.2236 214.935 80.7019 215.101 81.152L222.406 94.009ZM215.556 80.9422C215.423 80.5648 215.363 80.1653 215.38 79.7652C215.397 79.3519 215.495 78.946 215.67 78.5707C215.844 78.1954 216.09 77.858 216.395 77.5779C216.7 77.2979 217.057 77.0806 217.446 76.9385C217.835 76.7964 218.249 76.7323 218.663 76.7499C219.077 76.7675 219.483 76.8665 219.858 77.0411C220.234 77.2157 220.571 77.4625 220.851 77.7674C221.131 78.0724 221.348 78.4294 221.49 78.8182L221.509 78.8698L226.559 86.7723C228.018 89.0542 228.597 91.7879 228.19 94.4647L226.945 102.645C226.945 102.645 226.945 102.645 226.945 102.645C226.932 102.732 226.9 102.816 226.852 102.891C226.804 102.966 226.74 103.03 226.666 103.079C226.625 103.106 226.581 103.128 226.534 103.144C226.413 103.188 226.28 103.194 226.156 103.161M226.156 103.161L224.078 102.609C224.078 102.609 224.078 102.609 224.078 102.609C223.952 102.575 223.839 102.503 223.755 102.404C223.671 102.304 223.62 102.181 223.608 102.052C223.608 102.052 223.608 102.051 223.608 102.052L222.894 93.8569L215.556 80.9422" fill="black"/>
<path d="M203.701 76.6403C204.763 75.4761 206.074 74.565 207.536 73.9744C208.998 73.3838 210.574 73.1287 212.148 73.2279C212.252 73.2343 212.355 73.2415 212.457 73.2496H212.458C213.949 73.3674 215.399 73.8021 216.709 74.5245C218.019 75.247 219.16 76.2405 220.054 77.4388C220.964 78.6538 221.604 80.0488 221.931 81.5307C222.258 83.0125 222.264 84.547 221.95 86.0316C220.75 91.705 221.054 97.593 222.831 103.113L224.49 108.262C224.544 108.427 224.558 108.602 224.533 108.773C224.508 108.945 224.444 109.108 224.345 109.251C224.247 109.394 224.117 109.512 223.966 109.597C223.814 109.682 223.645 109.73 223.472 109.74L214.987 110.195L212.816 106.448V110.312L202.503 110.866C202.483 110.867 202.462 110.868 202.442 110.868C202.286 110.868 202.131 110.835 201.987 110.772C201.844 110.71 201.715 110.618 201.609 110.503C201.503 110.388 201.422 110.252 201.371 110.105C201.32 109.957 201.3 109.8 201.313 109.644L202.478 95.2036L201.016 85.3958C200.78 83.8287 200.898 82.2286 201.363 80.7132C201.827 79.1979 202.626 77.8061 203.701 76.6403Z" fill="white"/>
<path fill-rule="evenodd" clip-rule="evenodd" d="M212.117 73.7269C210.618 73.6324 209.116 73.8754 207.723 74.438C206.331 75.0006 205.082 75.8684 204.07 76.9774L203.701 76.6403C204.763 75.4761 206.074 74.565 207.536 73.9744C208.998 73.3838 210.574 73.1287 212.148 73.2279C212.252 73.2343 212.355 73.2415 212.457 73.2496C213.949 73.3674 215.399 73.8021 216.709 74.5245C218.019 75.247 219.16 76.2405 220.054 77.4388C220.964 78.6538 221.604 80.0488 221.931 81.5307C222.258 83.0125 222.264 84.547 221.95 86.0316C220.75 91.705 221.054 97.593 222.831 103.113L224.49 108.262C224.544 108.427 224.558 108.602 224.533 108.773C224.508 108.945 224.444 109.108 224.345 109.251C224.247 109.394 224.117 109.512 223.966 109.597C223.814 109.682 223.645 109.73 223.472 109.74L214.987 110.195L212.816 106.448V110.312L202.503 110.866C202.483 110.867 202.462 110.868 202.442 110.868C202.286 110.868 202.131 110.835 201.987 110.772C201.844 110.71 201.715 110.618 201.609 110.503C201.503 110.388 201.422 110.252 201.371 110.105C201.32 109.957 201.3 109.8 201.313 109.644L202.478 95.2036L201.016 85.3958C200.78 83.8287 200.898 82.2286 201.363 80.7132C201.827 79.1979 202.626 77.8061 203.701 76.6403L204.068 76.9792C203.044 78.09 202.283 79.4161 201.841 80.8598C201.398 82.3035 201.285 83.8281 201.511 85.3211L202.981 95.1866L201.811 109.684C201.811 109.684 201.811 109.684 201.811 109.684C201.804 109.771 201.815 109.859 201.844 109.941C201.872 110.024 201.917 110.1 201.977 110.164C202.036 110.228 202.108 110.279 202.188 110.314C202.268 110.349 202.355 110.368 202.442 110.368M212.316 109.838V104.588L215.266 109.68L223.445 109.24C223.542 109.235 223.637 109.208 223.721 109.161C223.806 109.113 223.879 109.047 223.933 108.967C223.988 108.888 224.024 108.796 224.038 108.701C224.052 108.605 224.044 108.507 224.014 108.415L222.355 103.267C220.551 97.6634 220.243 91.6868 221.461 85.9281C221.76 84.5133 221.754 83.0507 221.443 81.6384C221.131 80.2261 220.521 78.8965 219.654 77.7385C218.802 76.5973 217.715 75.6505 216.467 74.9624C215.222 74.2757 213.845 73.862 212.427 73.7487L212.418 73.748C212.319 73.7402 212.218 73.7332 212.117 73.7269M212.316 109.838L202.477 110.367L202.473 110.367C202.465 110.367 202.454 110.368 202.442 110.368" fill="black"/>
<path d="M214.767 71.5644C214.195 71.8936 211.93 72.112 211.769 71.4717L211.766 71.4576C211.653 70.9885 211.747 70.4986 211.779 70.0174C211.811 69.5361 211.764 69.0074 211.436 68.6535C210.824 67.9939 209.736 68.3436 208.852 68.1768C208.334 68.0613 207.876 67.7611 207.563 67.3325C207.251 66.9039 207.105 66.3762 207.154 65.8482C207.167 65.7482 207.186 65.648 207.209 65.5479C207.264 65.2943 207.26 65.0314 207.196 64.7797C207.133 64.5281 207.012 64.2946 206.842 64.0975C206.673 63.9005 206.461 63.7452 206.222 63.644C205.983 63.5428 205.723 63.4984 205.464 63.5142C204.57 63.5653 203.605 63.8358 202.866 63.1744C202.294 62.663 202.155 61.3317 202.406 60.6072C202.828 59.3896 205.533 58.7521 206.714 58.4017C208.174 57.9801 209.71 57.889 211.211 58.1349C212.711 58.3808 214.137 58.9577 215.386 59.8235C216.132 60.3487 216.829 61.0088 217.147 61.8634C217.465 62.718 217.311 63.7962 216.594 64.3603C217.15 64.9481 217.541 65.6715 217.729 66.458C217.917 67.2445 217.894 68.0664 217.664 68.8415C217.31 69.9814 215.62 71.0742 214.767 71.5644Z" fill="#7247FF"/>
<path fill-rule="evenodd" clip-rule="evenodd" d="M207.697 65.6545L207.697 65.656C207.677 65.7464 207.661 65.8269 207.651 65.9025C207.616 66.3065 207.728 66.7099 207.967 67.0379C208.206 67.366 208.556 67.5966 208.953 67.6869C209.126 67.7188 209.32 67.7279 209.545 67.7289C209.615 67.7292 209.692 67.7285 209.773 67.7279C209.932 67.7266 210.106 67.7252 210.263 67.7306C210.749 67.7474 211.353 67.8289 211.802 68.3136C212.281 68.8295 212.311 69.5469 212.278 70.0508C212.27 70.1681 212.259 70.2855 212.248 70.3948C212.247 70.4055 212.246 70.4163 212.245 70.4269C212.234 70.5481 212.223 70.66 212.217 70.7696C212.207 70.963 212.211 71.1296 212.239 71.2809C212.262 71.2911 212.298 71.3046 212.353 71.3192C212.532 71.3665 212.795 71.3891 213.102 71.3818C213.403 71.3746 213.717 71.3394 213.985 71.2878C214.269 71.2333 214.45 71.17 214.518 71.1309C214.932 70.8927 215.541 70.5133 216.083 70.0622C216.641 69.5977 217.053 69.119 217.186 68.6959C217.39 68.0058 217.41 67.2742 217.243 66.5741C217.075 65.8729 216.726 65.2279 216.231 64.7038L215.855 64.306L216.285 63.9674C216.783 63.5757 216.944 62.7531 216.678 62.0377C216.413 61.3245 215.815 60.7374 215.1 60.2334C213.912 59.4104 212.556 58.8621 211.13 58.6283C209.703 58.3945 208.243 58.481 206.854 58.8816C206.72 58.9212 206.572 58.9633 206.414 59.0083C205.839 59.1714 205.126 59.3739 204.463 59.6426C204.043 59.8131 203.668 60.0007 203.381 60.2052C203.089 60.4137 202.935 60.6065 202.878 60.771C202.786 61.0358 202.755 61.4633 202.821 61.8947C202.89 62.3386 203.041 62.6605 203.199 62.8017L202.867 63.1729L203.199 62.8017C203.449 63.0249 203.741 63.1043 204.117 63.1116C204.309 63.1153 204.512 63.0999 204.736 63.078C204.787 63.0731 204.839 63.0678 204.892 63.0624C205.066 63.0446 205.253 63.0255 205.434 63.0151C205.77 62.9947 206.107 63.0524 206.417 63.1835C206.727 63.3148 207.003 63.5162 207.222 63.7719C207.441 64.0277 207.598 64.3307 207.681 64.6574C207.763 64.984 207.769 65.3253 207.697 65.6545ZM205.464 63.5142C205.723 63.4984 205.983 63.5428 206.222 63.644C206.461 63.7452 206.673 63.9005 206.842 64.0975C207.012 64.2946 207.133 64.5281 207.196 64.7797C207.26 65.0314 207.264 65.2943 207.209 65.5479C207.186 65.648 207.167 65.7482 207.154 65.8482C207.105 66.3762 207.251 66.9039 207.563 67.3325C207.876 67.7611 208.334 68.0613 208.852 68.1768C209.151 68.2333 209.474 68.2305 209.794 68.2278C210.418 68.2225 211.031 68.2173 211.436 68.6535C211.764 69.0074 211.811 69.5361 211.779 70.0174C211.771 70.1272 211.761 70.2375 211.75 70.3479C211.715 70.7212 211.679 71.0956 211.766 71.4576L211.769 71.4717C211.93 72.112 214.195 71.8936 214.767 71.5644C215.62 71.0742 217.31 69.9814 217.664 68.8415C217.894 68.0664 217.917 67.2445 217.729 66.458C217.58 65.8342 217.303 65.2502 216.918 64.742C216.817 64.6094 216.709 64.482 216.594 64.3603C216.674 64.2973 216.748 64.2278 216.814 64.153C217.34 63.558 217.429 62.6225 217.147 61.8634C216.829 61.0088 216.132 60.3487 215.386 59.8235C214.137 58.9577 212.711 58.3808 211.211 58.1349C209.71 57.889 208.174 57.9801 206.714 58.4017C206.589 58.4388 206.447 58.4791 206.292 58.523C204.986 58.8935 202.783 59.5184 202.406 60.6072C202.155 61.3317 202.294 62.663 202.866 63.1744C203.465 63.7106 204.213 63.6343 204.951 63.559C205.123 63.5414 205.295 63.5239 205.464 63.5142ZM212.207 71.2627C212.207 71.2626 212.208 71.2637 212.211 71.2661C212.208 71.264 212.206 71.2628 212.207 71.2627Z" fill="black"/>
</g>
<defs>
<linearGradient id="paint0_linear" x1="40.8995" y1="103.894" x2="62.8343" y2="103.98" gradientUnits="userSpaceOnUse">
<stop stop-color="#4614E8"/>
<stop offset="1" stop-color="#BCA7FF"/>
</linearGradient>
<linearGradient id="paint1_linear" x1="162.355" y1="64.5092" x2="179.678" y2="68.5037" gradientUnits="userSpaceOnUse">
<stop stop-color="#4614E8"/>
<stop offset="1" stop-color="#BCA7FF"/>
</linearGradient>
<linearGradient id="paint2_linear" x1="24.6737" y1="38.1601" x2="34.1548" y2="44.7401" gradientUnits="userSpaceOnUse">
<stop stop-color="#4614E8"/>
<stop offset="1" stop-color="#BCA7FF"/>
</linearGradient>
<linearGradient id="paint3_linear" x1="37.2217" y1="29.1941" x2="49.4965" y2="33.8592" gradientUnits="userSpaceOnUse">
<stop stop-color="#4614E8"/>
<stop offset="1" stop-color="#BCA7FF"/>
</linearGradient>
<linearGradient id="paint4_linear" x1="49.7697" y1="38.1601" x2="59.2509" y2="44.7401" gradientUnits="userSpaceOnUse">
<stop stop-color="#4614E8"/>
<stop offset="1" stop-color="#BCA7FF"/>
</linearGradient>
<linearGradient id="paint5_linear" x1="62.3178" y1="25.6544" x2="75.0423" y2="29.7577" gradientUnits="userSpaceOnUse">
<stop stop-color="#4614E8"/>
<stop offset="1" stop-color="#BCA7FF"/>
</linearGradient>
<linearGradient id="paint6_linear" x1="74.8659" y1="19.2841" x2="88.0662" y2="22.6286" gradientUnits="userSpaceOnUse">
<stop stop-color="#4614E8"/>
<stop offset="1" stop-color="#BCA7FF"/>
</linearGradient>
<clipPath id="clip0">
<rect width="231" height="161" fill="white"/>
</clipPath>
</defs>
</svg>
