<svg width="55" height="55" viewBox="0 0 55 55" fill="none" xmlns="http://www.w3.org/2000/svg">
<g clip-path="url(#clip0)">
<path fill-rule="evenodd" clip-rule="evenodd" d="M25.3576 54.4998C39.086 54.4998 50.2152 43.3707 50.2152 29.6422C50.2152 15.9138 39.086 4.78467 25.3576 4.78467C11.6291 4.78467 0.5 15.9138 0.5 29.6422C0.5 43.3707 11.6291 54.4998 25.3576 54.4998ZM50.7152 29.6422C50.7152 43.6469 39.3622 54.9998 25.3576 54.9998C11.353 54.9998 0 43.6469 0 29.6422C0 15.6376 11.353 4.28467 25.3576 4.28467C39.3622 4.28467 50.7152 15.6376 50.7152 29.6422Z" fill="black"/>
<path fill-rule="evenodd" clip-rule="evenodd" d="M25.3576 47.5295C35.2365 47.5295 43.2449 39.5211 43.2449 29.6422C43.2449 19.7633 35.2365 11.7549 25.3576 11.7549C15.4788 11.7549 7.47034 19.7633 7.47034 29.6422C7.47034 39.5211 15.4788 47.5295 25.3576 47.5295ZM43.7449 29.6422C43.7449 39.7972 35.5127 48.0295 25.3576 48.0295C15.2026 48.0295 6.97034 39.7972 6.97034 29.6422C6.97034 19.4872 15.2026 11.2549 25.3576 11.2549C35.5127 11.2549 43.7449 19.4872 43.7449 29.6422Z" fill="black"/>
<path fill-rule="evenodd" clip-rule="evenodd" d="M25.3576 40.5594C31.3868 40.5594 36.2745 35.6717 36.2745 29.6425C36.2745 23.6132 31.3868 18.7256 25.3576 18.7256C19.3283 18.7256 14.4407 23.6132 14.4407 29.6425C14.4407 35.6717 19.3283 40.5594 25.3576 40.5594ZM36.7745 29.6425C36.7745 35.9479 31.663 41.0594 25.3576 41.0594C19.0522 41.0594 13.9407 35.9479 13.9407 29.6425C13.9407 23.3371 19.0522 18.2256 25.3576 18.2256C31.663 18.2256 36.7745 23.3371 36.7745 29.6425Z" fill="black"/>
<path d="M25.3575 34.089C27.8133 34.089 29.8041 32.0982 29.8041 29.6424C29.8041 27.1866 27.8133 25.1958 25.3575 25.1958C22.9017 25.1958 20.9109 27.1866 20.9109 29.6424C20.9109 32.0982 22.9017 34.089 25.3575 34.089Z" fill="url(#paint0_linear)"/>
<path d="M48.8654 0.115666L43.3025 5.67851C43.0634 5.91763 42.9386 6.24784 42.9599 6.58526L43.282 11.718L49.836 5.16406L49.535 0.368751C49.5138 0.0312319 49.1045 -0.123456 48.8654 0.115666Z" fill="url(#paint1_linear)"/>
<path d="M54.8846 6.13462L49.3217 11.6975C49.0826 11.9366 48.7524 12.0614 48.415 12.0401L43.2822 11.718L49.8362 5.16406L54.6315 5.46506C54.9689 5.48622 55.1236 5.89561 54.8846 6.13462Z" fill="url(#paint2_linear)"/>
<path fill-rule="evenodd" clip-rule="evenodd" d="M25.1243 29.8753C25.1889 29.9399 25.2725 29.972 25.3576 29.972C25.4427 29.972 25.5263 29.9399 25.5907 29.8755L25.8458 30.1305L25.5907 29.8755L53.301 2.16534C53.4297 2.03662 53.4297 1.8278 53.301 1.69908C53.1721 1.57034 52.9634 1.57036 52.8345 1.69914L25.1244 29.4092C24.9957 29.5379 24.9957 29.7466 25.1243 29.8753ZM53.6545 1.34553C53.3304 1.02154 52.8051 1.02154 52.481 1.34553L24.7708 29.0556C24.4468 29.3796 24.4468 29.905 24.7708 30.229C24.9329 30.391 25.1453 30.472 25.3576 30.472C25.5698 30.472 25.7823 30.391 25.9443 30.229L53.6545 2.5189C53.9785 2.19491 53.9785 1.66951 53.6545 1.34553Z" fill="black"/>
</g>
<defs>
<linearGradient id="paint0_linear" x1="25.3575" y1="25.1958" x2="25.3575" y2="34.089" gradientUnits="userSpaceOnUse">
<stop stop-color="#4614E8"/>
<stop offset="1" stop-color="#BCA7FF"/>
</linearGradient>
<linearGradient id="paint1_linear" x1="46.3967" y1="0" x2="46.3967" y2="11.718" gradientUnits="userSpaceOnUse">
<stop stop-color="#4614E8"/>
<stop offset="1" stop-color="#BCA7FF"/>
</linearGradient>
<linearGradient id="paint2_linear" x1="49.1412" y1="5.16406" x2="49.1412" y2="12.0425" gradientUnits="userSpaceOnUse">
<stop stop-color="#4614E8"/>
<stop offset="1" stop-color="#BCA7FF"/>
</linearGradient>
<clipPath id="clip0">
<rect width="55" height="55" fill="white"/>
</clipPath>
</defs>
</svg>
