<svg width="1021" height="364" viewBox="0 0 1021 364" fill="none" xmlns="http://www.w3.org/2000/svg">
<path opacity="0.5" fill-rule="evenodd" clip-rule="evenodd" d="M906.698 1.88469C903.406 1.82313 900.067 1.84492 896.684 1.94997L896.653 0.950454C900.052 0.844904 903.407 0.822986 906.716 0.884864L906.698 1.88469ZM926.611 3.35307C923.36 2.92161 920.048 2.58315 916.68 2.3376L916.753 1.34024C920.14 1.58719 923.471 1.92763 926.743 2.36176L926.611 3.35307ZM886.658 2.49555C883.365 2.74982 880.037 3.07922 876.675 3.48366L876.556 2.49082C879.931 2.08472 883.274 1.75391 886.581 1.49852L886.658 2.49555ZM866.785 4.87511C863.522 5.39953 860.232 5.99204 856.917 6.65257L856.722 5.67185C860.049 5.00894 863.351 4.41421 866.626 3.88778L866.785 4.87511ZM946.256 7.30246C943.084 6.42679 939.834 5.65675 936.51 4.99224L936.706 4.01164C940.053 4.6807 943.326 5.45623 946.522 6.33851L946.256 7.30246ZM847.079 8.79605C843.874 9.55337 840.649 10.3725 837.405 11.2533L837.143 10.2882C840.397 9.40457 843.633 8.58275 846.849 7.82285L847.079 8.79605ZM965.022 14.1544C962.04 12.7646 958.96 11.4927 955.787 10.3387L956.128 9.39895C959.328 10.5626 962.436 11.8455 965.444 13.248L965.022 14.1544ZM827.776 14.0343C824.594 15.0076 821.398 16.0391 818.189 17.1287L817.867 16.1817C821.086 15.089 824.292 14.0544 827.484 13.078L827.776 14.0343ZM982.194 24.2865C979.535 22.3271 976.756 20.4965 973.863 18.7944L974.37 17.9325C977.292 19.6516 980.1 21.5011 982.787 23.4815L982.194 24.2865ZM808.788 20.4737C805.678 21.6306 802.559 22.8411 799.432 24.1052L799.058 23.1781C802.193 21.9105 805.321 20.6966 808.439 19.5365L808.788 20.4737ZM790.17 27.9972C787.138 29.3195 784.1 30.6916 781.058 32.1136L780.635 31.2077C783.684 29.782 786.73 28.4063 789.77 27.0806L790.17 27.9972ZM996.827 37.7933C994.65 35.2727 992.335 32.8854 989.89 30.6312L990.568 29.896C993.04 32.1755 995.381 34.59 997.584 37.1397L996.827 37.7933ZM771.998 36.491C769.035 37.9694 766.07 39.4948 763.104 41.0671L762.635 40.1836C765.608 38.6074 768.581 37.0782 771.552 35.5962L771.998 36.491ZM754.296 45.8739C751.396 47.5022 748.496 49.1753 745.599 50.8933L745.089 50.0332C747.993 48.3112 750.899 46.6341 753.806 45.0019L754.296 45.8739ZM1008.04 54.2468C1006.47 51.2698 1004.75 48.4209 1002.9 45.6999L1003.73 45.1371C1005.6 47.8892 1007.34 50.7702 1008.92 53.78L1008.04 54.2468ZM71.9559 55.8377C73.519 55.3077 75.0882 54.865 76.661 54.5132L76.8793 55.4891C75.3426 55.8328 73.8077 56.2658 72.2769 56.7847L71.9559 55.8377ZM737.049 56.0984C734.219 57.8663 731.393 59.6771 728.571 61.5307L728.022 60.6949C730.85 58.8371 733.683 57.0222 736.52 55.2502L737.049 56.0984ZM54.8733 65.1912C57.5512 63.1573 60.2758 61.3632 63.0337 59.8297L63.5197 60.7037C60.8066 62.2122 58.1216 63.9798 55.4781 65.9876L54.8733 65.1912ZM1015.44 72.776C1014.5 69.507 1013.43 66.3526 1012.22 63.3125L1013.15 62.9426C1014.37 66.0142 1015.46 69.2 1016.4 72.5002L1015.44 72.776ZM720.283 67.1081C717.537 69.0013 714.796 70.9354 712.062 72.9102L711.477 72.0996C714.216 70.1205 716.963 68.1822 719.716 66.2848L720.283 67.1081ZM40.7442 78.6146C42.9233 76.1009 45.1572 73.7462 47.4367 71.5643L48.1282 72.2867C45.8725 74.4458 43.6599 76.7779 41.4998 79.2696L40.7442 78.6146ZM704.02 78.8544C701.361 80.864 698.711 82.9127 696.069 85.0002L695.449 84.2157C698.096 82.1237 700.752 80.0706 703.417 78.0567L704.02 78.8544ZM1019.22 92.3794C1018.85 89.001 1018.37 85.7186 1017.76 82.5322L1018.74 82.3448C1019.35 85.5587 1019.85 88.8679 1020.21 92.2725L1019.22 92.3794ZM29.1739 94.2608C30.949 91.4662 32.784 88.783 34.6716 86.2216L35.4766 86.8149C33.6032 89.3569 31.7813 92.0211 30.018 94.797L29.1739 94.2608ZM688.278 91.2941C685.709 93.414 683.151 95.5712 680.604 97.7656L679.951 97.008C682.504 94.8089 685.067 92.6472 687.641 90.5229L688.278 91.2941ZM1020 107.414C1020 105.693 1019.97 103.993 1019.91 102.314L1020.91 102.28C1020.97 103.97 1021 105.681 1021 107.414C1021 109.119 1020.98 110.803 1020.94 112.466L1019.94 112.44C1019.98 110.786 1020 109.111 1020 107.414ZM19.7613 111.302C21.1838 108.333 22.6698 105.443 24.2138 102.642L25.0895 103.125C23.555 105.909 22.0776 108.781 20.6632 111.734L19.7613 111.302ZM673.076 104.389C671.829 105.509 670.586 106.638 669.345 107.776C668.203 108.907 667.05 110.045 665.884 111.189L665.183 110.475C666.35 109.33 667.505 108.191 668.648 107.059L668.655 107.052L668.662 107.045C669.907 105.903 671.156 104.769 672.407 103.645L673.076 104.389ZM658.73 118.136C656.38 120.395 653.987 122.674 651.552 124.971L650.865 124.243C653.299 121.948 655.69 119.672 658.037 117.415L658.73 118.136ZM12.2964 129.273C13.3964 126.185 14.564 123.156 15.7941 120.191L16.7177 120.574C15.4942 123.523 14.3328 126.537 13.2384 129.608L12.2964 129.273ZM1018.38 131.873C1018.82 128.712 1019.18 125.458 1019.44 122.107L1020.44 122.185C1020.17 125.555 1019.81 128.83 1019.37 132.012L1018.38 131.873ZM644.246 131.797C641.852 134.013 639.421 136.243 636.954 138.487L636.281 137.747C638.746 135.506 641.175 133.277 643.567 131.063L644.246 131.797ZM6.67712 147.897C7.46736 144.728 8.32939 141.599 9.25877 138.517L10.2162 138.805C9.29148 141.872 8.43374 144.985 7.64742 148.139L6.67712 147.897ZM1014.39 150.852C1015.27 147.803 1016.05 144.648 1016.73 141.382L1017.71 141.586C1017.02 144.875 1016.24 148.055 1015.35 151.128L1014.39 150.852ZM629.53 145.181C627.092 147.36 624.621 149.55 622.119 151.749L621.459 150.997C623.959 148.801 626.428 146.613 628.864 144.435L629.53 145.181ZM2.88764 166.978C3.3671 163.754 3.92324 160.557 4.55192 157.392L5.53276 157.587C4.9072 160.736 4.35382 163.918 3.87676 167.125L2.88764 166.978ZM614.596 158.305C612.113 160.451 609.601 162.604 607.062 164.762L606.415 164C608.952 161.844 611.461 159.692 613.942 157.548L614.596 158.305ZM1007.48 169.024C1008.86 166.175 1010.14 163.208 1011.32 160.118L1012.25 160.473C1011.07 163.589 1009.78 166.584 1008.38 169.46L1007.48 169.024ZM599.451 171.18C596.923 173.294 594.37 175.412 591.793 177.532L591.158 176.76C593.733 174.641 596.284 172.525 598.809 170.413L599.451 171.18ZM0.976174 186.339C1.13403 183.088 1.374 179.852 1.69215 176.635L2.68729 176.733C2.37076 179.934 2.13203 183.154 1.975 186.387L0.976174 186.339ZM997.399 185.591C999.325 183.031 1001.15 180.345 1002.86 177.525L1003.71 178.045C1001.99 180.892 1000.14 183.606 998.199 186.192L997.399 185.591ZM584.098 183.812C581.527 185.893 578.934 187.976 576.318 190.058L575.695 189.276C578.309 187.195 580.9 185.114 583.469 183.035L584.098 183.812ZM984.237 199.872C986.644 197.729 988.957 195.462 991.169 193.064L991.904 193.742C989.67 196.165 987.333 198.455 984.902 200.619L984.237 199.872ZM568.541 196.201C565.928 198.248 563.295 200.293 560.643 202.337L560.033 201.544C562.683 199.503 565.314 197.459 567.924 195.414L568.541 196.201ZM1.03666 205.795C0.855321 202.548 0.761964 199.304 0.752762 196.068L1.75276 196.065C1.76191 199.284 1.85477 202.51 2.0351 205.739L1.03666 205.795ZM968.592 211.379C971.368 209.696 974.067 207.899 976.681 205.98L977.273 206.786C974.634 208.723 971.91 210.537 969.11 212.234L968.592 211.379ZM552.78 208.344C550.141 210.344 547.483 212.34 544.809 214.332L544.211 213.53C546.884 211.54 549.539 209.545 552.176 207.547L552.78 208.344ZM3.1898 225.134C2.64837 221.927 2.2009 218.712 1.84366 215.494L2.83756 215.384C3.19275 218.583 3.63762 221.78 4.17585 224.967L3.1898 225.134ZM951.198 220.105C954.213 218.866 957.171 217.526 960.064 216.079L960.511 216.974C957.595 218.432 954.615 219.782 951.578 221.03L951.198 220.105ZM536.819 220.232C534.152 222.185 531.469 224.132 528.77 226.073L528.186 225.261C530.882 223.322 533.564 221.376 536.229 219.425L536.819 220.232ZM764.785 220.121C765.579 220.269 766.747 220.521 768.25 220.852L768.035 221.828C766.529 221.497 765.377 221.249 764.601 221.103C764.211 221.03 763.931 220.986 763.754 220.968C763.711 220.964 763.678 220.962 763.653 220.961C763.627 220.96 763.619 220.961 763.623 220.961C763.625 220.961 763.635 220.96 763.652 220.956C763.666 220.953 763.698 220.945 763.736 220.926C763.812 220.889 764 220.76 764 220.5H763C763 220.22 763.2 220.074 763.302 220.025C763.395 219.98 763.485 219.969 763.529 219.965C763.592 219.959 763.661 219.96 763.73 219.964C763.771 219.966 763.811 219.969 763.851 219.973C764.075 219.995 764.391 220.047 764.785 220.121ZM777.823 222.941C780.688 223.549 783.934 224.219 787.513 224.917L787.321 225.899C783.736 225.199 780.485 224.528 777.615 223.919L777.823 222.941ZM932.746 226.319C935.895 225.467 939.008 224.53 942.074 223.501L942.392 224.449C939.306 225.485 936.175 226.428 933.007 227.284L932.746 226.319ZM797.056 226.692C800.11 227.231 803.326 227.772 806.684 228.3L806.529 229.288C803.164 228.759 799.941 228.217 796.882 227.677L797.056 226.692ZM913.676 230.416C916.895 229.887 920.094 229.287 923.266 228.608L923.475 229.586C920.287 230.268 917.072 230.872 913.838 231.402L913.676 230.416ZM816.355 229.724C819.5 230.155 822.738 230.568 826.058 230.952L825.943 231.945C822.616 231.56 819.37 231.147 816.219 230.715L816.355 229.724ZM520.66 231.854C517.963 233.76 515.251 235.658 512.525 237.549L511.955 236.727C514.679 234.838 517.388 232.941 520.083 231.037L520.66 231.854ZM894.306 232.756C897.548 232.494 900.787 232.172 904.015 231.785L904.134 232.777C900.892 233.167 897.641 233.49 894.387 233.752L894.306 232.756ZM835.788 231.971C838.984 232.27 842.239 232.538 845.54 232.767L845.471 233.765C842.161 233.535 838.899 233.266 835.695 232.967L835.788 231.971ZM855.284 233.323C858.503 233.466 861.756 233.568 865.033 233.623L865.016 234.623C861.729 234.567 858.468 234.465 855.24 234.322L855.284 233.323ZM874.796 233.646C878.039 233.604 881.296 233.513 884.56 233.366L884.605 234.365C881.33 234.512 878.062 234.604 874.809 234.645L874.796 233.646ZM7.55759 244.096C6.63694 240.975 5.81576 237.835 5.09043 234.682L6.06499 234.458C6.78587 237.592 7.60192 240.712 8.51673 243.813L7.55759 244.096ZM504.307 243.195C501.577 245.053 498.833 246.903 496.077 248.743L495.522 247.911C498.275 246.073 501.016 244.225 503.745 242.368L504.307 243.195ZM14.2255 262.371C12.9147 259.387 11.7077 256.375 10.6009 253.34L11.5404 252.997C12.6399 256.013 13.839 259.005 15.141 261.968L14.2255 262.371ZM487.775 254.23C485.003 256.044 482.22 257.846 479.426 259.637L478.886 258.795C481.678 257.006 484.458 255.205 487.227 253.393L487.775 254.23ZM471.029 264.963C468.221 266.725 465.402 268.475 462.574 270.211L462.05 269.359C464.876 267.624 467.692 265.876 470.498 264.116L471.029 264.963ZM23.2072 279.625C21.5098 276.835 19.9186 274.007 18.4301 271.146L19.3172 270.685C20.7955 273.526 22.3759 276.334 24.0615 279.105L23.2072 279.625ZM454.073 275.37C451.23 277.076 448.378 278.766 445.518 280.442L445.012 279.579C447.87 277.905 450.718 276.216 453.558 274.513L454.073 275.37ZM436.905 285.426C434.025 287.071 431.138 288.7 428.243 290.312L427.757 289.438C430.648 287.828 433.532 286.201 436.409 284.557L436.905 285.426ZM34.4157 295.541C32.353 292.993 30.3963 290.4 28.5424 287.768L29.36 287.192C31.2011 289.806 33.1444 292.381 35.193 294.912L34.4157 295.541ZM419.526 295.1C416.606 296.683 413.679 298.246 410.747 299.791L410.281 298.906C413.21 297.363 416.133 295.802 419.05 294.221L419.526 295.1ZM47.6245 309.828C45.2492 307.571 42.976 305.266 40.8022 302.917L41.5362 302.238C43.6954 304.571 45.9535 306.861 48.3133 309.103L47.6245 309.828ZM401.932 304.364C398.969 305.878 396.001 307.371 393.028 308.843L392.584 307.946C395.553 306.477 398.518 304.985 401.477 303.473L401.932 304.364ZM384.092 313.193C381.094 314.628 378.091 316.04 375.086 317.428L374.666 316.52C377.668 315.134 380.666 313.724 383.661 312.291L384.092 313.193ZM58.6908 319.393C57.3932 318.372 56.1204 317.339 54.8722 316.293L55.5144 315.526C56.7547 316.565 58.0196 317.592 59.3091 318.607C60.6286 319.645 61.9552 320.663 63.2887 321.661L62.6895 322.462C61.3495 321.459 60.0166 320.436 58.6908 319.393ZM366.02 321.536C362.988 322.884 359.954 324.206 356.917 325.502L356.525 324.582C359.557 323.288 362.587 321.968 365.614 320.622L366.02 321.536ZM79.185 333.601C76.3672 331.893 73.5758 330.107 70.812 328.24L71.3718 327.412C74.122 329.269 76.8995 331.047 79.7034 332.746L79.185 333.601ZM347.714 329.346C344.644 330.599 341.573 331.825 338.501 333.021L338.138 332.09C341.205 330.895 344.271 329.671 347.336 328.42L347.714 329.346ZM329.172 336.565C326.056 337.718 322.94 338.84 319.824 339.93L319.494 338.986C322.604 337.898 325.714 336.778 328.825 335.627L329.172 336.565ZM96.7052 343.062C93.7242 341.639 90.7686 340.138 87.8394 338.556L88.3145 337.677C91.229 339.25 94.1698 340.744 97.1359 342.159L96.7052 343.062ZM310.396 343.13C307.232 344.17 304.069 345.177 300.909 346.148L300.615 345.192C303.769 344.223 306.925 343.219 310.083 342.18L310.396 343.13ZM115.08 350.737C111.965 349.612 108.873 348.411 105.807 347.13L106.192 346.207C109.244 347.481 112.32 348.677 115.42 349.796L115.08 350.737ZM291.386 348.967C288.174 349.882 284.966 350.759 281.761 351.596L281.508 350.629C284.706 349.793 287.907 348.918 291.112 348.006L291.386 348.967ZM134.114 356.59C130.898 355.765 127.704 354.866 124.532 353.892L124.826 352.936C127.982 353.906 131.162 354.8 134.362 355.621L134.114 356.59ZM272.148 353.993C268.891 354.765 265.639 355.496 262.392 356.183L262.185 355.204C265.424 354.519 268.668 353.79 271.917 353.02L272.148 353.993ZM252.672 358.113C249.381 358.722 246.098 359.286 242.822 359.802L242.666 358.814C245.933 358.299 249.208 357.737 252.49 357.129L252.672 358.113ZM153.607 360.654C150.324 360.12 147.061 359.517 143.817 358.841L144.021 357.862C147.25 358.535 150.499 359.135 153.768 359.667L153.607 360.654ZM232.997 361.208C229.682 361.634 226.377 362.01 223.081 362.334L222.984 361.339C226.269 361.016 229.564 360.641 232.869 360.216L232.997 361.208ZM173.378 363.016C170.058 362.757 166.754 362.432 163.468 362.04L163.586 361.047C166.859 361.437 170.149 361.761 173.456 362.019L173.378 363.016ZM213.177 363.15C209.847 363.372 206.528 363.538 203.221 363.646L203.188 362.647C206.483 362.538 209.791 362.373 213.111 362.153L213.177 363.15ZM193.275 363.801C189.941 363.794 186.62 363.726 183.315 363.597L183.354 362.598C186.647 362.727 189.955 362.794 193.277 362.801L193.275 363.801Z" fill="#404040"/>
</svg>
