<svg width="58" height="58" viewBox="0 0 58 58" fill="none" xmlns="http://www.w3.org/2000/svg">
<g clip-path="url(#clip0)">
<path d="M38.557 18.5931C49.1474 18.4314 57.7912 26.7667 57.9963 37.3563C58.0264 38.9111 57.871 40.4244 57.5509 41.876C57.0087 44.3339 56.6864 46.835 56.6864 49.352V54.2172C56.6864 54.9626 56.0822 55.5668 55.3368 55.5668H50.4716C47.9546 55.5668 45.4535 55.8891 42.9956 56.4313C41.5441 56.7514 40.0308 56.9068 38.476 56.8767C27.8865 56.6718 19.5512 48.0282 19.7127 37.438C19.8703 27.1011 28.2202 18.751 38.557 18.5931Z" fill="url(#paint0_linear)" fill-opacity="0.5"/>
<path fill-rule="evenodd" clip-rule="evenodd" d="M54.9968 37.4145L54.9968 37.4144C54.8238 28.4795 47.5443 21.4562 38.6028 21.5928C29.8871 21.7259 22.8452 28.7679 22.7124 37.4837L22.7124 37.4838C22.576 46.425 29.5992 53.7043 38.5341 53.8773H38.5342C39.8506 53.9028 41.1275 53.7712 42.3494 53.5017C44.9791 52.9216 47.6995 52.5668 50.4716 52.5668H53.6864V49.352C53.6864 46.5799 54.0412 43.8596 54.6213 41.2299M42.9956 56.4313C41.5441 56.7514 40.0308 56.9068 38.476 56.8767C27.8865 56.6718 19.5512 48.0282 19.7127 37.438C19.8703 27.1011 28.2202 18.751 38.557 18.5931C49.1474 18.4314 57.7912 26.7667 57.9963 37.3563C58.0264 38.9111 57.871 40.4244 57.5509 41.876C57.0087 44.3339 56.6864 46.835 56.6864 49.352V54.2172C56.6864 54.9626 56.0822 55.5668 55.3368 55.5668H50.4716C47.9546 55.5668 45.4535 55.8891 42.9956 56.4313ZM54.9968 37.4145C55.0224 38.7308 54.8908 40.0078 54.6213 41.2298Z" fill="#CDBBEF" fill-opacity="0.2"/>
<path d="M23.6868 1.12245C10.7847 0.925341 0.254242 11.08 0.00434422 23.9811C-0.0322456 25.875 0.157047 27.7189 0.547187 29.4872C1.20762 32.4815 1.60025 35.5286 1.60025 38.595V44.5221C1.60025 45.4302 2.33635 46.1664 3.24452 46.1664H9.17161C12.2379 46.1664 15.2851 46.559 18.2794 47.2194C20.0477 47.6095 21.8915 47.7989 23.7854 47.7622C36.6863 47.5124 46.841 36.9822 46.6443 24.0804C46.4522 11.4873 36.2798 1.31469 23.6868 1.12245Z" fill="url(#paint1_linear)"/>
<path d="M12.346 29.2783C14.3413 29.2783 15.9587 27.6608 15.9587 25.6656C15.9587 23.6704 14.3413 22.053 12.346 22.053C10.3508 22.053 8.7334 23.6704 8.7334 25.6656C8.7334 27.6608 10.3508 29.2783 12.346 29.2783Z" fill="white"/>
<path d="M12.346 29.2783C14.3413 29.2783 15.9587 27.6608 15.9587 25.6656C15.9587 23.6704 14.3413 22.053 12.346 22.053C10.3508 22.053 8.7334 23.6704 8.7334 25.6656C8.7334 27.6608 10.3508 29.2783 12.346 29.2783Z" fill="url(#paint2_linear)"/>
<path d="M22.5631 29.2783C24.5583 29.2783 26.1757 27.6608 26.1757 25.6656C26.1757 23.6704 24.5583 22.053 22.5631 22.053C20.5678 22.053 18.9504 23.6704 18.9504 25.6656C18.9504 27.6608 20.5678 29.2783 22.5631 29.2783Z" fill="white"/>
<path d="M22.5631 29.2783C24.5583 29.2783 26.1757 27.6608 26.1757 25.6656C26.1757 23.6704 24.5583 22.053 22.5631 22.053C20.5678 22.053 18.9504 23.6704 18.9504 25.6656C18.9504 27.6608 20.5678 29.2783 22.5631 29.2783Z" fill="url(#paint3_linear)"/>
<path d="M32.7803 29.2783C34.7755 29.2783 36.3929 27.6608 36.3929 25.6656C36.3929 23.6704 34.7755 22.053 32.7803 22.053C30.7851 22.053 29.1676 23.6704 29.1676 25.6656C29.1676 27.6608 30.7851 29.2783 32.7803 29.2783Z" fill="white"/>
<path d="M32.7803 29.2783C34.7755 29.2783 36.3929 27.6608 36.3929 25.6656C36.3929 23.6704 34.7755 22.053 32.7803 22.053C30.7851 22.053 29.1676 23.6704 29.1676 25.6656C29.1676 27.6608 30.7851 29.2783 32.7803 29.2783Z" fill="url(#paint4_linear)"/>
</g>
<defs>
<linearGradient id="paint0_linear" x1="27.9689" y1="18.5908" x2="58" y2="18.5908" gradientUnits="userSpaceOnUse">
<stop stop-color="#E1D8FF"/>
<stop offset="1" stop-color="#F4ECFF"/>
</linearGradient>
<linearGradient id="paint1_linear" x1="10.0611" y1="1.11963" x2="46.6471" y2="1.11963" gradientUnits="userSpaceOnUse">
<stop stop-color="#E1D8FF"/>
<stop offset="1" stop-color="#F4ECFF"/>
</linearGradient>
<linearGradient id="paint2_linear" x1="12.346" y1="22.053" x2="12.346" y2="29.2783" gradientUnits="userSpaceOnUse">
<stop stop-color="#4614E8"/>
<stop offset="1" stop-color="#BCA7FF"/>
</linearGradient>
<linearGradient id="paint3_linear" x1="22.5631" y1="22.053" x2="22.5631" y2="29.2783" gradientUnits="userSpaceOnUse">
<stop stop-color="#4614E8"/>
<stop offset="1" stop-color="#BCA7FF"/>
</linearGradient>
<linearGradient id="paint4_linear" x1="32.7803" y1="22.053" x2="32.7803" y2="29.2783" gradientUnits="userSpaceOnUse">
<stop stop-color="#4614E8"/>
<stop offset="1" stop-color="#BCA7FF"/>
</linearGradient>
<clipPath id="clip0">
<rect width="58" height="58" fill="white"/>
</clipPath>
</defs>
</svg>
