<svg width="75" height="58" viewBox="0 0 75 58" fill="none" xmlns="http://www.w3.org/2000/svg">
<path opacity="0.7" d="M56.8549 29C56.8549 45.0163 44.1275 58 28.4274 58C12.7274 58 0 45.0163 0 29C0 12.9837 12.7274 0 28.4274 0C44.1275 0 56.8549 12.9837 56.8549 29Z" fill="url(#paint0_linear)"/>
<path fill-rule="evenodd" clip-rule="evenodd" d="M28.4275 50.0637C39.7422 50.0637 49.0162 40.6898 49.0162 28.9999C49.0162 17.31 39.7422 7.93604 28.4275 7.93604C17.1127 7.93604 7.83875 17.31 7.83875 28.9999C7.83875 40.6898 17.1127 50.0637 28.4275 50.0637ZM28.4275 53.0637C41.4552 53.0637 52.0162 42.2899 52.0162 28.9999C52.0162 15.7098 41.4552 4.93604 28.4275 4.93604C15.3998 4.93604 4.83875 15.7098 4.83875 28.9999C4.83875 42.2899 15.3998 53.0637 28.4275 53.0637Z" fill="#CDBBEF" fill-opacity="0.3"/>
<path opacity="0.7" d="M75 29C75 45.0163 62.2726 58 46.5726 58C30.8726 58 18.1452 45.0163 18.1452 29C18.1452 12.9837 30.8726 0 46.5726 0C62.2726 0 75 12.9837 75 29Z" fill="url(#paint1_linear)"/>
<path fill-rule="evenodd" clip-rule="evenodd" d="M47.1775 50.0637C58.4922 50.0637 67.7662 40.6898 67.7662 28.9999C67.7662 17.31 58.4922 7.93604 47.1775 7.93604C35.8627 7.93604 26.5887 17.31 26.5887 28.9999C26.5887 40.6898 35.8627 50.0637 47.1775 50.0637ZM47.1775 53.0637C60.2052 53.0637 70.7662 42.2899 70.7662 28.9999C70.7662 15.7098 60.2052 4.93604 47.1775 4.93604C34.1498 4.93604 23.5887 15.7098 23.5887 28.9999C23.5887 42.2899 34.1498 53.0637 47.1775 53.0637Z" fill="#CDBBEF"/>
<path d="M46.0645 40.5406V37.5789C43.0838 37.263 40.4709 36.2857 38.2258 34.6469L40.8387 30.7078C42.6967 32.0307 44.4967 32.8402 46.2387 33.1364V29.5823C43.8 29.0098 42.0096 28.2397 40.8677 27.2722C39.7451 26.3047 39.1838 24.9226 39.1838 23.1258C39.1838 21.3488 39.7935 19.9075 41.0129 18.8018C42.2322 17.6763 43.9354 17.0346 46.1225 16.8766V15.1885H49.1419V16.9655C51.3677 17.2222 53.4096 17.9922 55.2677 19.2756L52.8871 23.2443C51.7451 22.415 50.4484 21.8227 48.9967 21.4673V24.9029C51.3967 25.4755 53.1484 26.2554 54.2516 27.2426C55.3742 28.2298 55.9355 29.6218 55.9355 31.4186C55.9355 33.1956 55.3161 34.6271 54.0774 35.7131C52.858 36.799 51.1935 37.4407 49.0838 37.6382V40.5406H46.0645ZM48.9677 33.3141C50.2645 33.1759 50.9129 32.6526 50.9129 31.7444C50.9129 31.3298 50.7677 31.004 50.4774 30.767C50.2064 30.5103 49.7032 30.2734 48.9677 30.0562V33.3141ZM46.2677 24.3994V21.2007C44.9516 21.3192 44.2935 21.8326 44.2935 22.7408C44.2935 23.1357 44.429 23.4615 44.7 23.7182C44.9903 23.9551 45.5129 24.1822 46.2677 24.3994Z" fill="url(#paint2_linear)"/>
<defs>
<linearGradient id="paint0_linear" x1="12.2628" y1="0" x2="56.8549" y2="0" gradientUnits="userSpaceOnUse">
<stop stop-color="#E1D8FF"/>
<stop offset="1" stop-color="#F4ECFF"/>
</linearGradient>
<linearGradient id="paint1_linear" x1="30.408" y1="0" x2="75" y2="0" gradientUnits="userSpaceOnUse">
<stop stop-color="#E1D8FF"/>
<stop offset="1" stop-color="#F4ECFF"/>
</linearGradient>
<linearGradient id="paint2_linear" x1="47.0806" y1="15.1885" x2="47.0806" y2="40.5406" gradientUnits="userSpaceOnUse">
<stop stop-color="#4614E8"/>
<stop offset="1" stop-color="#BCA7FF"/>
</linearGradient>
</defs>
</svg>
