<svg width="135" height="24" viewBox="0 0 135 24" fill="none" xmlns="http://www.w3.org/2000/svg">
<path d="M5.16475 22.9998V5.43182L1.26076 6.39182L0.236755 2.35982L6.66876 0.439819H10.0288V22.9998H5.16475Z" fill="white"/>
<path d="M5.16475 22.9998V5.43182L1.26076 6.39182L0.236755 2.35982L6.66876 0.439819H10.0288V22.9998H5.16475Z" fill="url(#paint0_linear)"/>
<path d="M31.8168 20.0878C29.9608 22.2852 27.5608 23.3838 24.6168 23.3838C21.6728 23.3838 19.2834 22.2852 17.4488 20.0878C15.6141 17.8905 14.6968 15.1278 14.6968 11.7998C14.6968 8.49315 15.6248 5.74115 17.4808 3.54382C19.3368 1.32515 21.7368 0.21582 24.6808 0.21582C27.6034 0.21582 29.9821 1.31449 31.8168 3.51182C33.6728 5.70915 34.6008 8.47182 34.6008 11.7998C34.6008 15.1065 33.6728 17.8692 31.8168 20.0878ZM21.0968 16.9198C22.0141 18.2638 23.2088 18.9358 24.6808 18.9358C26.1528 18.9358 27.3261 18.2745 28.2008 16.9518C29.0968 15.6078 29.5448 13.8905 29.5448 11.7998C29.5448 9.75182 29.0861 8.05582 28.1688 6.71182C27.2514 5.34649 26.0674 4.66382 24.6168 4.66382C23.1661 4.66382 21.9928 5.33582 21.0968 6.67982C20.2008 8.00249 19.7528 9.70915 19.7528 11.7998C19.7528 13.8692 20.2008 15.5758 21.0968 16.9198Z" fill="white"/>
<path d="M31.8168 20.0878C29.9608 22.2852 27.5608 23.3838 24.6168 23.3838C21.6728 23.3838 19.2834 22.2852 17.4488 20.0878C15.6141 17.8905 14.6968 15.1278 14.6968 11.7998C14.6968 8.49315 15.6248 5.74115 17.4808 3.54382C19.3368 1.32515 21.7368 0.21582 24.6808 0.21582C27.6034 0.21582 29.9821 1.31449 31.8168 3.51182C33.6728 5.70915 34.6008 8.47182 34.6008 11.7998C34.6008 15.1065 33.6728 17.8692 31.8168 20.0878ZM21.0968 16.9198C22.0141 18.2638 23.2088 18.9358 24.6808 18.9358C26.1528 18.9358 27.3261 18.2745 28.2008 16.9518C29.0968 15.6078 29.5448 13.8905 29.5448 11.7998C29.5448 9.75182 29.0861 8.05582 28.1688 6.71182C27.2514 5.34649 26.0674 4.66382 24.6168 4.66382C23.1661 4.66382 21.9928 5.33582 21.0968 6.67982C20.2008 8.00249 19.7528 9.70915 19.7528 11.7998C19.7528 13.8692 20.2008 15.5758 21.0968 16.9198Z" fill="url(#paint1_linear)"/>
<path d="M64.7855 20.0878C62.9295 22.2852 60.5295 23.3838 57.5855 23.3838C54.6415 23.3838 52.2522 22.2852 50.4175 20.0878C48.5828 17.8905 47.6655 15.1278 47.6655 11.7998C47.6655 8.49315 48.5935 5.74115 50.4495 3.54382C52.3055 1.32515 54.7055 0.21582 57.6495 0.21582C60.5722 0.21582 62.9508 1.31449 64.7855 3.51182C66.6415 5.70915 67.5695 8.47182 67.5695 11.7998C67.5695 15.1065 66.6415 17.8692 64.7855 20.0878ZM54.0655 16.9198C54.9828 18.2638 56.1775 18.9358 57.6495 18.9358C59.1215 18.9358 60.2948 18.2745 61.1695 16.9518C62.0655 15.6078 62.5135 13.8905 62.5135 11.7998C62.5135 9.75182 62.0548 8.05582 61.1375 6.71182C60.2202 5.34649 59.0362 4.66382 57.5855 4.66382C56.1348 4.66382 54.9615 5.33582 54.0655 6.67982C53.1695 8.00249 52.7215 9.70915 52.7215 11.7998C52.7215 13.8692 53.1695 15.5758 54.0655 16.9198Z" fill="white"/>
<path d="M64.7855 20.0878C62.9295 22.2852 60.5295 23.3838 57.5855 23.3838C54.6415 23.3838 52.2522 22.2852 50.4175 20.0878C48.5828 17.8905 47.6655 15.1278 47.6655 11.7998C47.6655 8.49315 48.5935 5.74115 50.4495 3.54382C52.3055 1.32515 54.7055 0.21582 57.6495 0.21582C60.5722 0.21582 62.9508 1.31449 64.7855 3.51182C66.6415 5.70915 67.5695 8.47182 67.5695 11.7998C67.5695 15.1065 66.6415 17.8692 64.7855 20.0878ZM54.0655 16.9198C54.9828 18.2638 56.1775 18.9358 57.6495 18.9358C59.1215 18.9358 60.2948 18.2745 61.1695 16.9518C62.0655 15.6078 62.5135 13.8905 62.5135 11.7998C62.5135 9.75182 62.0548 8.05582 61.1375 6.71182C60.2202 5.34649 59.0362 4.66382 57.5855 4.66382C56.1348 4.66382 54.9615 5.33582 54.0655 6.67982C53.1695 8.00249 52.7215 9.70915 52.7215 11.7998C52.7215 13.8692 53.1695 15.5758 54.0655 16.9198Z" fill="url(#paint2_linear)"/>
<path d="M88.1605 20.0878C86.3045 22.2852 83.9045 23.3838 80.9605 23.3838C78.0165 23.3838 75.6272 22.2852 73.7925 20.0878C71.9578 17.8905 71.0405 15.1278 71.0405 11.7998C71.0405 8.49315 71.9685 5.74115 73.8245 3.54382C75.6805 1.32515 78.0805 0.21582 81.0245 0.21582C83.9472 0.21582 86.3258 1.31449 88.1605 3.51182C90.0165 5.70915 90.9445 8.47182 90.9445 11.7998C90.9445 15.1065 90.0165 17.8692 88.1605 20.0878ZM77.4405 16.9198C78.3578 18.2638 79.5525 18.9358 81.0245 18.9358C82.4965 18.9358 83.6698 18.2745 84.5445 16.9518C85.4405 15.6078 85.8885 13.8905 85.8885 11.7998C85.8885 9.75182 85.4298 8.05582 84.5125 6.71182C83.5952 5.34649 82.4112 4.66382 80.9605 4.66382C79.5098 4.66382 78.3365 5.33582 77.4405 6.67982C76.5445 8.00249 76.0965 9.70915 76.0965 11.7998C76.0965 13.8692 76.5445 15.5758 77.4405 16.9198Z" fill="white"/>
<path d="M88.1605 20.0878C86.3045 22.2852 83.9045 23.3838 80.9605 23.3838C78.0165 23.3838 75.6272 22.2852 73.7925 20.0878C71.9578 17.8905 71.0405 15.1278 71.0405 11.7998C71.0405 8.49315 71.9685 5.74115 73.8245 3.54382C75.6805 1.32515 78.0805 0.21582 81.0245 0.21582C83.9472 0.21582 86.3258 1.31449 88.1605 3.51182C90.0165 5.70915 90.9445 8.47182 90.9445 11.7998C90.9445 15.1065 90.0165 17.8692 88.1605 20.0878ZM77.4405 16.9198C78.3578 18.2638 79.5525 18.9358 81.0245 18.9358C82.4965 18.9358 83.6698 18.2745 84.5445 16.9518C85.4405 15.6078 85.8885 13.8905 85.8885 11.7998C85.8885 9.75182 85.4298 8.05582 84.5125 6.71182C83.5952 5.34649 82.4112 4.66382 80.9605 4.66382C79.5098 4.66382 78.3365 5.33582 77.4405 6.67982C76.5445 8.00249 76.0965 9.70915 76.0965 11.7998C76.0965 13.8692 76.5445 15.5758 77.4405 16.9198Z" fill="url(#paint3_linear)"/>
<path d="M111.536 20.0878C109.68 22.2852 107.28 23.3838 104.336 23.3838C101.392 23.3838 99.0022 22.2852 97.1675 20.0878C95.3328 17.8905 94.4155 15.1278 94.4155 11.7998C94.4155 8.49315 95.3435 5.74115 97.1995 3.54382C99.0555 1.32515 101.456 0.21582 104.4 0.21582C107.322 0.21582 109.701 1.31449 111.536 3.51182C113.392 5.70915 114.32 8.47182 114.32 11.7998C114.32 15.1065 113.392 17.8692 111.536 20.0878ZM100.816 16.9198C101.733 18.2638 102.928 18.9358 104.4 18.9358C105.872 18.9358 107.045 18.2745 107.92 16.9518C108.816 15.6078 109.264 13.8905 109.264 11.7998C109.264 9.75182 108.805 8.05582 107.888 6.71182C106.97 5.34649 105.786 4.66382 104.336 4.66382C102.885 4.66382 101.712 5.33582 100.816 6.67982C99.9195 8.00249 99.4715 9.70915 99.4715 11.7998C99.4715 13.8692 99.9195 15.5758 100.816 16.9198Z" fill="white"/>
<path d="M111.536 20.0878C109.68 22.2852 107.28 23.3838 104.336 23.3838C101.392 23.3838 99.0022 22.2852 97.1675 20.0878C95.3328 17.8905 94.4155 15.1278 94.4155 11.7998C94.4155 8.49315 95.3435 5.74115 97.1995 3.54382C99.0555 1.32515 101.456 0.21582 104.4 0.21582C107.322 0.21582 109.701 1.31449 111.536 3.51182C113.392 5.70915 114.32 8.47182 114.32 11.7998C114.32 15.1065 113.392 17.8692 111.536 20.0878ZM100.816 16.9198C101.733 18.2638 102.928 18.9358 104.4 18.9358C105.872 18.9358 107.045 18.2745 107.92 16.9518C108.816 15.6078 109.264 13.8905 109.264 11.7998C109.264 9.75182 108.805 8.05582 107.888 6.71182C106.97 5.34649 105.786 4.66382 104.336 4.66382C102.885 4.66382 101.712 5.33582 100.816 6.67982C99.9195 8.00249 99.4715 9.70915 99.4715 11.7998C99.4715 13.8692 99.9195 15.5758 100.816 16.9198Z" fill="url(#paint4_linear)"/>
<path d="M124.031 19.7038V13.9438H118.239V9.52782H124.031V3.76782H128.574V9.52782H134.367V13.9438H128.574V19.7038H124.031Z" fill="white"/>
<path d="M124.031 19.7038V13.9438H118.239V9.52782H124.031V3.76782H128.574V9.52782H134.367V13.9438H128.574V19.7038H124.031Z" fill="url(#paint5_linear)"/>
<defs>
<linearGradient id="paint0_linear" x1="-32" y1="-21.5" x2="74" y2="23" gradientUnits="userSpaceOnUse">
<stop stop-color="#4614E8"/>
<stop offset="1" stop-color="#BCA7FF"/>
</linearGradient>
<linearGradient id="paint1_linear" x1="-32" y1="-21.5" x2="74" y2="23" gradientUnits="userSpaceOnUse">
<stop stop-color="#4614E8"/>
<stop offset="1" stop-color="#BCA7FF"/>
</linearGradient>
<linearGradient id="paint2_linear" x1="-32" y1="-21.5" x2="74" y2="23" gradientUnits="userSpaceOnUse">
<stop stop-color="#4614E8"/>
<stop offset="1" stop-color="#BCA7FF"/>
</linearGradient>
<linearGradient id="paint3_linear" x1="-32" y1="-21.5" x2="74" y2="23" gradientUnits="userSpaceOnUse">
<stop stop-color="#4614E8"/>
<stop offset="1" stop-color="#BCA7FF"/>
</linearGradient>
<linearGradient id="paint4_linear" x1="-32" y1="-21.5" x2="74" y2="23" gradientUnits="userSpaceOnUse">
<stop stop-color="#4614E8"/>
<stop offset="1" stop-color="#BCA7FF"/>
</linearGradient>
<linearGradient id="paint5_linear" x1="-32" y1="-21.5" x2="74" y2="23" gradientUnits="userSpaceOnUse">
<stop stop-color="#4614E8"/>
<stop offset="1" stop-color="#BCA7FF"/>
</linearGradient>
</defs>
</svg>
