<svg width="85" height="24" viewBox="0 0 85 24" fill="none" xmlns="http://www.w3.org/2000/svg">
<path d="M9.39244 23.3198C6.87511 23.3198 4.80578 22.7225 3.18444 21.5278C1.56311 20.3332 0.752441 18.7545 0.752441 16.7918C0.752441 14.2958 1.95778 12.4932 4.36844 11.3838C2.46978 10.2318 1.52044 8.57849 1.52044 6.42382C1.52044 4.67449 2.24577 3.21315 3.69644 2.03982C5.16844 0.866486 7.06711 0.279819 9.39244 0.279819C11.7391 0.279819 13.6378 0.866486 15.0884 2.03982C16.5391 3.21315 17.2644 4.69582 17.2644 6.48782C17.2644 8.59982 16.3151 10.2318 14.4164 11.3838C15.6324 12.0238 16.5391 12.7492 17.1364 13.5598C17.7338 14.3705 18.0324 15.4265 18.0324 16.7278C18.0324 18.7545 17.2218 20.3652 15.6004 21.5598C14.0004 22.7332 11.9311 23.3198 9.39244 23.3198ZM7.05644 8.98382C7.65378 9.49582 8.43244 9.75182 9.39244 9.75182C10.3524 9.75182 11.1204 9.49582 11.6964 8.98382C12.2938 8.47182 12.5924 7.79982 12.5924 6.96782C12.5924 6.24249 12.2938 5.62382 11.6964 5.11182C11.1204 4.59982 10.3524 4.34382 9.39244 4.34382C8.41111 4.34382 7.63244 4.59982 7.05644 5.11182C6.48044 5.62382 6.19244 6.25315 6.19244 6.99982C6.19244 7.78915 6.48044 8.45049 7.05644 8.98382ZM9.39244 19.2558C10.5871 19.2558 11.5258 18.9892 12.2084 18.4558C12.9124 17.9225 13.2644 17.2398 13.2644 16.4078C13.2644 15.5545 12.9018 14.8825 12.1764 14.3918C11.4724 13.9012 10.5444 13.6558 9.39244 13.6558C8.24044 13.6558 7.30178 13.9118 6.57644 14.4238C5.87244 14.9145 5.52044 15.5972 5.52044 16.4718C5.52044 17.2612 5.87244 17.9225 6.57644 18.4558C7.28044 18.9892 8.21911 19.2558 9.39244 19.2558Z" fill="white"/>
<path d="M9.39244 23.3198C6.87511 23.3198 4.80578 22.7225 3.18444 21.5278C1.56311 20.3332 0.752441 18.7545 0.752441 16.7918C0.752441 14.2958 1.95778 12.4932 4.36844 11.3838C2.46978 10.2318 1.52044 8.57849 1.52044 6.42382C1.52044 4.67449 2.24577 3.21315 3.69644 2.03982C5.16844 0.866486 7.06711 0.279819 9.39244 0.279819C11.7391 0.279819 13.6378 0.866486 15.0884 2.03982C16.5391 3.21315 17.2644 4.69582 17.2644 6.48782C17.2644 8.59982 16.3151 10.2318 14.4164 11.3838C15.6324 12.0238 16.5391 12.7492 17.1364 13.5598C17.7338 14.3705 18.0324 15.4265 18.0324 16.7278C18.0324 18.7545 17.2218 20.3652 15.6004 21.5598C14.0004 22.7332 11.9311 23.3198 9.39244 23.3198ZM7.05644 8.98382C7.65378 9.49582 8.43244 9.75182 9.39244 9.75182C10.3524 9.75182 11.1204 9.49582 11.6964 8.98382C12.2938 8.47182 12.5924 7.79982 12.5924 6.96782C12.5924 6.24249 12.2938 5.62382 11.6964 5.11182C11.1204 4.59982 10.3524 4.34382 9.39244 4.34382C8.41111 4.34382 7.63244 4.59982 7.05644 5.11182C6.48044 5.62382 6.19244 6.25315 6.19244 6.99982C6.19244 7.78915 6.48044 8.45049 7.05644 8.98382ZM9.39244 19.2558C10.5871 19.2558 11.5258 18.9892 12.2084 18.4558C12.9124 17.9225 13.2644 17.2398 13.2644 16.4078C13.2644 15.5545 12.9018 14.8825 12.1764 14.3918C11.4724 13.9012 10.5444 13.6558 9.39244 13.6558C8.24044 13.6558 7.30178 13.9118 6.57644 14.4238C5.87244 14.9145 5.52044 15.5972 5.52044 16.4718C5.52044 17.2612 5.87244 17.9225 6.57644 18.4558C7.28044 18.9892 8.21911 19.2558 9.39244 19.2558Z" fill="url(#paint0_linear)"/>
<path d="M38.3167 20.0878C36.4607 22.2852 34.0607 23.3838 31.1167 23.3838C28.1727 23.3838 25.7834 22.2852 23.9487 20.0878C22.114 17.8905 21.1967 15.1278 21.1967 11.7998C21.1967 8.49315 22.1247 5.74115 23.9807 3.54382C25.8367 1.32515 28.2367 0.21582 31.1807 0.21582C34.1034 0.21582 36.482 1.31449 38.3167 3.51182C40.1727 5.70915 41.1007 8.47182 41.1007 11.7998C41.1007 15.1065 40.1727 17.8692 38.3167 20.0878ZM27.5967 16.9198C28.514 18.2638 29.7087 18.9358 31.1807 18.9358C32.6527 18.9358 33.826 18.2745 34.7007 16.9518C35.5967 15.6078 36.0447 13.8905 36.0447 11.7998C36.0447 9.75182 35.586 8.05582 34.6687 6.71182C33.7514 5.34649 32.5674 4.66382 31.1167 4.66382C29.666 4.66382 28.4927 5.33582 27.5967 6.67982C26.7007 8.00249 26.2527 9.70915 26.2527 11.7998C26.2527 13.8692 26.7007 15.5758 27.5967 16.9198Z" fill="white"/>
<path d="M38.3167 20.0878C36.4607 22.2852 34.0607 23.3838 31.1167 23.3838C28.1727 23.3838 25.7834 22.2852 23.9487 20.0878C22.114 17.8905 21.1967 15.1278 21.1967 11.7998C21.1967 8.49315 22.1247 5.74115 23.9807 3.54382C25.8367 1.32515 28.2367 0.21582 31.1807 0.21582C34.1034 0.21582 36.482 1.31449 38.3167 3.51182C40.1727 5.70915 41.1007 8.47182 41.1007 11.7998C41.1007 15.1065 40.1727 17.8692 38.3167 20.0878ZM27.5967 16.9198C28.514 18.2638 29.7087 18.9358 31.1807 18.9358C32.6527 18.9358 33.826 18.2745 34.7007 16.9518C35.5967 15.6078 36.0447 13.8905 36.0447 11.7998C36.0447 9.75182 35.586 8.05582 34.6687 6.71182C33.7514 5.34649 32.5674 4.66382 31.1167 4.66382C29.666 4.66382 28.4927 5.33582 27.5967 6.67982C26.7007 8.00249 26.2527 9.70915 26.2527 11.7998C26.2527 13.8692 26.7007 15.5758 27.5967 16.9198Z" fill="url(#paint1_linear)"/>
<path d="M61.6917 20.0878C59.8357 22.2852 57.4357 23.3838 54.4917 23.3838C51.5477 23.3838 49.1584 22.2852 47.3237 20.0878C45.489 17.8905 44.5717 15.1278 44.5717 11.7998C44.5717 8.49315 45.4997 5.74115 47.3557 3.54382C49.2117 1.32515 51.6117 0.21582 54.5557 0.21582C57.4784 0.21582 59.857 1.31449 61.6917 3.51182C63.5477 5.70915 64.4757 8.47182 64.4757 11.7998C64.4757 15.1065 63.5477 17.8692 61.6917 20.0878ZM50.9717 16.9198C51.889 18.2638 53.0837 18.9358 54.5557 18.9358C56.0277 18.9358 57.201 18.2745 58.0757 16.9518C58.9717 15.6078 59.4197 13.8905 59.4197 11.7998C59.4197 9.75182 58.961 8.05582 58.0437 6.71182C57.1264 5.34649 55.9424 4.66382 54.4917 4.66382C53.041 4.66382 51.8677 5.33582 50.9717 6.67982C50.0757 8.00249 49.6277 9.70915 49.6277 11.7998C49.6277 13.8692 50.0757 15.5758 50.9717 16.9198Z" fill="white"/>
<path d="M61.6917 20.0878C59.8357 22.2852 57.4357 23.3838 54.4917 23.3838C51.5477 23.3838 49.1584 22.2852 47.3237 20.0878C45.489 17.8905 44.5717 15.1278 44.5717 11.7998C44.5717 8.49315 45.4997 5.74115 47.3557 3.54382C49.2117 1.32515 51.6117 0.21582 54.5557 0.21582C57.4784 0.21582 59.857 1.31449 61.6917 3.51182C63.5477 5.70915 64.4757 8.47182 64.4757 11.7998C64.4757 15.1065 63.5477 17.8692 61.6917 20.0878ZM50.9717 16.9198C51.889 18.2638 53.0837 18.9358 54.5557 18.9358C56.0277 18.9358 57.201 18.2745 58.0757 16.9518C58.9717 15.6078 59.4197 13.8905 59.4197 11.7998C59.4197 9.75182 58.961 8.05582 58.0437 6.71182C57.1264 5.34649 55.9424 4.66382 54.4917 4.66382C53.041 4.66382 51.8677 5.33582 50.9717 6.67982C50.0757 8.00249 49.6277 9.70915 49.6277 11.7998C49.6277 13.8692 50.0757 15.5758 50.9717 16.9198Z" fill="url(#paint2_linear)"/>
<path d="M74.1867 19.7038V13.9438H68.3947V9.52782H74.1867V3.76782H78.7307V9.52782H84.5227V13.9438H78.7307V19.7038H74.1867Z" fill="white"/>
<path d="M74.1867 19.7038V13.9438H68.3947V9.52782H74.1867V3.76782H78.7307V9.52782H84.5227V13.9438H78.7307V19.7038H74.1867Z" fill="url(#paint3_linear)"/>
<defs>
<linearGradient id="paint0_linear" x1="61.5" y1="-24" x2="32" y2="27" gradientUnits="userSpaceOnUse">
<stop stop-color="#4614E8"/>
<stop offset="1" stop-color="#BCA7FF"/>
</linearGradient>
<linearGradient id="paint1_linear" x1="61.5" y1="-24" x2="32" y2="27" gradientUnits="userSpaceOnUse">
<stop stop-color="#4614E8"/>
<stop offset="1" stop-color="#BCA7FF"/>
</linearGradient>
<linearGradient id="paint2_linear" x1="61.5" y1="-24" x2="32" y2="27" gradientUnits="userSpaceOnUse">
<stop stop-color="#4614E8"/>
<stop offset="1" stop-color="#BCA7FF"/>
</linearGradient>
<linearGradient id="paint3_linear" x1="61.5" y1="-24" x2="32" y2="27" gradientUnits="userSpaceOnUse">
<stop stop-color="#4614E8"/>
<stop offset="1" stop-color="#BCA7FF"/>
</linearGradient>
</defs>
</svg>
