<svg width="121" height="29" viewBox="0 0 121 29" fill="none" xmlns="http://www.w3.org/2000/svg">
<path d="M8.36627 28.1361V24.9041C5.52893 24.5415 3.0116 23.5281 0.81427 21.8641L3.31027 18.2161C5.14494 19.6028 6.8836 20.4668 8.52627 20.8081V15.7201C6.13694 15.0801 4.3876 14.2481 3.27827 13.2241C2.19027 12.1788 1.64627 10.7281 1.64627 8.87214C1.64627 7.12281 2.25427 5.69347 3.47027 4.58414C4.68627 3.47481 6.31827 2.81347 8.36627 2.60014V0.744141H11.6943V2.66414C13.8489 2.96281 15.8329 3.75214 17.6463 5.03214L15.5023 8.77614C14.1369 7.85881 12.8143 7.22947 11.5343 6.88814V11.7201C13.9876 12.3815 15.7583 13.2561 16.8463 14.3441C17.9343 15.4108 18.4783 16.8508 18.4783 18.6641C18.4783 20.4135 17.8596 21.8428 16.6223 22.9521C15.4063 24.0615 13.7636 24.7335 11.6943 24.9681V28.1361H8.36627ZM8.52627 10.9201V6.60014C7.05427 6.79214 6.31827 7.47481 6.31827 8.64814C6.31827 9.16014 6.4676 9.59747 6.76627 9.96014C7.08627 10.3015 7.67294 10.6215 8.52627 10.9201ZM11.5343 20.9681C13.0489 20.7335 13.8063 20.0295 13.8063 18.8561C13.8063 18.3015 13.6356 17.8535 13.2943 17.5121C12.9743 17.1495 12.3876 16.8081 11.5343 16.4881V20.9681Z" fill="white"/>
<path d="M8.36627 28.1361V24.9041C5.52893 24.5415 3.0116 23.5281 0.81427 21.8641L3.31027 18.2161C5.14494 19.6028 6.8836 20.4668 8.52627 20.8081V15.7201C6.13694 15.0801 4.3876 14.2481 3.27827 13.2241C2.19027 12.1788 1.64627 10.7281 1.64627 8.87214C1.64627 7.12281 2.25427 5.69347 3.47027 4.58414C4.68627 3.47481 6.31827 2.81347 8.36627 2.60014V0.744141H11.6943V2.66414C13.8489 2.96281 15.8329 3.75214 17.6463 5.03214L15.5023 8.77614C14.1369 7.85881 12.8143 7.22947 11.5343 6.88814V11.7201C13.9876 12.3815 15.7583 13.2561 16.8463 14.3441C17.9343 15.4108 18.4783 16.8508 18.4783 18.6641C18.4783 20.4135 17.8596 21.8428 16.6223 22.9521C15.4063 24.0615 13.7636 24.7335 11.6943 24.9681V28.1361H8.36627ZM8.52627 10.9201V6.60014C7.05427 6.79214 6.31827 7.47481 6.31827 8.64814C6.31827 9.16014 6.4676 9.59747 6.76627 9.96014C7.08627 10.3015 7.67294 10.6215 8.52627 10.9201ZM11.5343 20.9681C13.0489 20.7335 13.8063 20.0295 13.8063 18.8561C13.8063 18.3015 13.6356 17.8535 13.2943 17.5121C12.9743 17.1495 12.3876 16.8081 11.5343 16.4881V20.9681Z" fill="url(#paint0_linear)"/>
<path d="M21.6618 25.0001V21.0961L29.1178 14.9841C30.5898 13.7681 31.6031 12.7975 32.1578 12.0721C32.7124 11.3255 32.9898 10.5041 32.9898 9.60814C32.9898 8.69081 32.7124 7.97614 32.1578 7.46414C31.6031 6.95214 30.8778 6.69614 29.9818 6.69614C29.1498 6.69614 28.3924 6.93081 27.7098 7.40014C27.0484 7.84814 26.2804 8.61614 25.4058 9.70414L21.9498 6.92014C23.1231 5.32014 24.3284 4.14681 25.5658 3.40014C26.8244 2.65347 28.4031 2.28014 30.3018 2.28014C32.6271 2.28014 34.4938 2.92014 35.9018 4.20014C37.3098 5.45881 38.0138 7.14414 38.0138 9.25614C38.0138 10.4721 37.7791 11.5708 37.3098 12.5521C36.8404 13.5121 36.2324 14.3655 35.4858 15.1121C34.7391 15.8375 33.6191 16.7761 32.1258 17.9281L28.4778 20.7441H38.2378V25.0001H21.6618Z" fill="white"/>
<path d="M21.6618 25.0001V21.0961L29.1178 14.9841C30.5898 13.7681 31.6031 12.7975 32.1578 12.0721C32.7124 11.3255 32.9898 10.5041 32.9898 9.60814C32.9898 8.69081 32.7124 7.97614 32.1578 7.46414C31.6031 6.95214 30.8778 6.69614 29.9818 6.69614C29.1498 6.69614 28.3924 6.93081 27.7098 7.40014C27.0484 7.84814 26.2804 8.61614 25.4058 9.70414L21.9498 6.92014C23.1231 5.32014 24.3284 4.14681 25.5658 3.40014C26.8244 2.65347 28.4031 2.28014 30.3018 2.28014C32.6271 2.28014 34.4938 2.92014 35.9018 4.20014C37.3098 5.45881 38.0138 7.14414 38.0138 9.25614C38.0138 10.4721 37.7791 11.5708 37.3098 12.5521C36.8404 13.5121 36.2324 14.3655 35.4858 15.1121C34.7391 15.8375 33.6191 16.7761 32.1258 17.9281L28.4778 20.7441H38.2378V25.0001H21.6618Z" fill="url(#paint1_linear)"/>
<path d="M51.801 25.0001V7.84814H56.729L61.369 15.0481L66.073 7.84814H71.001V25.0001H66.073V14.6961L61.305 21.7361L56.601 14.7921V25.0001H51.801Z" fill="white"/>
<path d="M51.801 25.0001V7.84814H56.729L61.369 15.0481L66.073 7.84814H71.001V25.0001H66.073V14.6961L61.305 21.7361L56.601 14.7921V25.0001H51.801Z" fill="url(#paint2_linear)"/>
<path d="M77.4115 7.84814H91.2035V25.0001H86.3395V12.0081H81.9875C81.9875 14.2695 81.9022 16.1788 81.7315 17.7361C81.5609 19.2935 81.3262 20.5628 81.0275 21.5441C80.7288 22.5255 80.3129 23.2828 79.7795 23.8161C79.2462 24.3495 78.6702 24.7121 78.0515 24.9041C77.4328 25.0961 76.6648 25.1921 75.7475 25.1921C74.8728 25.1921 74.0515 25.0961 73.2835 24.9041L73.6035 20.9681C73.9875 21.0321 74.3289 21.0641 74.6275 21.0641C75.1395 21.0641 75.5449 20.9468 75.8435 20.7121C76.1422 20.4561 76.4195 19.9015 76.6755 19.0481C76.9529 18.1735 77.1449 16.8401 77.2515 15.0481C77.3582 13.2348 77.4115 10.8348 77.4115 7.84814Z" fill="white"/>
<path d="M77.4115 7.84814H91.2035V25.0001H86.3395V12.0081H81.9875C81.9875 14.2695 81.9022 16.1788 81.7315 17.7361C81.5609 19.2935 81.3262 20.5628 81.0275 21.5441C80.7288 22.5255 80.3129 23.2828 79.7795 23.8161C79.2462 24.3495 78.6702 24.7121 78.0515 24.9041C77.4328 25.0961 76.6648 25.1921 75.7475 25.1921C74.8728 25.1921 74.0515 25.0961 73.2835 24.9041L73.6035 20.9681C73.9875 21.0321 74.3289 21.0641 74.6275 21.0641C75.1395 21.0641 75.5449 20.9468 75.8435 20.7121C76.1422 20.4561 76.4195 19.9015 76.6755 19.0481C76.9529 18.1735 77.1449 16.8401 77.2515 15.0481C77.3582 13.2348 77.4115 10.8348 77.4115 7.84814Z" fill="url(#paint3_linear)"/>
<path d="M111.263 7.84814V25.0001H106.399V18.4401H100.415V25.0001H95.551V7.84814H100.415V14.4401H106.399V7.84814H111.263Z" fill="white"/>
<path d="M111.263 7.84814V25.0001H106.399V18.4401H100.415V25.0001H95.551V7.84814H100.415V14.4401H106.399V7.84814H111.263Z" fill="url(#paint4_linear)"/>
<path d="M115.422 25.0001V19.8801H120.606V25.0001H115.422Z" fill="white"/>
<path d="M115.422 25.0001V19.8801H120.606V25.0001H115.422Z" fill="url(#paint5_linear)"/>
<defs>
<linearGradient id="paint0_linear" x1="-11.5" y1="-4" x2="112.5" y2="29" gradientUnits="userSpaceOnUse">
<stop stop-color="#4614E8"/>
<stop offset="1" stop-color="#BCA7FF"/>
</linearGradient>
<linearGradient id="paint1_linear" x1="-11.5" y1="-4" x2="112.5" y2="29" gradientUnits="userSpaceOnUse">
<stop stop-color="#4614E8"/>
<stop offset="1" stop-color="#BCA7FF"/>
</linearGradient>
<linearGradient id="paint2_linear" x1="-11.5" y1="-4" x2="112.5" y2="29" gradientUnits="userSpaceOnUse">
<stop stop-color="#4614E8"/>
<stop offset="1" stop-color="#BCA7FF"/>
</linearGradient>
<linearGradient id="paint3_linear" x1="-11.5" y1="-4" x2="112.5" y2="29" gradientUnits="userSpaceOnUse">
<stop stop-color="#4614E8"/>
<stop offset="1" stop-color="#BCA7FF"/>
</linearGradient>
<linearGradient id="paint4_linear" x1="-11.5" y1="-4" x2="112.5" y2="29" gradientUnits="userSpaceOnUse">
<stop stop-color="#4614E8"/>
<stop offset="1" stop-color="#BCA7FF"/>
</linearGradient>
<linearGradient id="paint5_linear" x1="-11.5" y1="-4" x2="112.5" y2="29" gradientUnits="userSpaceOnUse">
<stop stop-color="#4614E8"/>
<stop offset="1" stop-color="#BCA7FF"/>
</linearGradient>
</defs>
</svg>
