<svg width="99" height="29" viewBox="0 0 99 29" fill="none" xmlns="http://www.w3.org/2000/svg">
<path d="M8.41308 28.1361V24.9041C5.57575 24.5415 3.05842 23.5281 0.861084 21.8641L3.35708 18.2161C5.19175 19.6028 6.93042 20.4668 8.57309 20.8081V15.7201C6.18375 15.0801 4.43442 14.2481 3.32508 13.2241C2.23708 12.1788 1.69308 10.7281 1.69308 8.87214C1.69308 7.12281 2.30108 5.69347 3.51708 4.58414C4.73308 3.47481 6.36508 2.81347 8.41308 2.60014V0.744141H11.7411V2.66414C13.8958 2.96281 15.8798 3.75214 17.6931 5.03214L15.5491 8.77614C14.1838 7.85881 12.8611 7.22947 11.5811 6.88814V11.7201C14.0344 12.3815 15.8051 13.2561 16.8931 14.3441C17.9811 15.4108 18.5251 16.8508 18.5251 18.6641C18.5251 20.4135 17.9064 21.8428 16.6691 22.9521C15.4531 24.0615 13.8104 24.7335 11.7411 24.9681V28.1361H8.41308ZM8.57309 10.9201V6.60014C7.10109 6.79214 6.36508 7.47481 6.36508 8.64814C6.36508 9.16014 6.51442 9.59747 6.81308 9.96014C7.13308 10.3015 7.71975 10.6215 8.57309 10.9201ZM11.5811 20.9681C13.0957 20.7335 13.8531 20.0295 13.8531 18.8561C13.8531 18.3015 13.6824 17.8535 13.3411 17.5121C13.0211 17.1495 12.4344 16.8081 11.5811 16.4881V20.9681Z" fill="white"/>
<path d="M8.41308 28.1361V24.9041C5.57575 24.5415 3.05842 23.5281 0.861084 21.8641L3.35708 18.2161C5.19175 19.6028 6.93042 20.4668 8.57309 20.8081V15.7201C6.18375 15.0801 4.43442 14.2481 3.32508 13.2241C2.23708 12.1788 1.69308 10.7281 1.69308 8.87214C1.69308 7.12281 2.30108 5.69347 3.51708 4.58414C4.73308 3.47481 6.36508 2.81347 8.41308 2.60014V0.744141H11.7411V2.66414C13.8958 2.96281 15.8798 3.75214 17.6931 5.03214L15.5491 8.77614C14.1838 7.85881 12.8611 7.22947 11.5811 6.88814V11.7201C14.0344 12.3815 15.8051 13.2561 16.8931 14.3441C17.9811 15.4108 18.5251 16.8508 18.5251 18.6641C18.5251 20.4135 17.9064 21.8428 16.6691 22.9521C15.4531 24.0615 13.8104 24.7335 11.7411 24.9681V28.1361H8.41308ZM8.57309 10.9201V6.60014C7.10109 6.79214 6.36508 7.47481 6.36508 8.64814C6.36508 9.16014 6.51442 9.59747 6.81308 9.96014C7.13308 10.3015 7.71975 10.6215 8.57309 10.9201ZM11.5811 20.9681C13.0957 20.7335 13.8531 20.0295 13.8531 18.8561C13.8531 18.3015 13.6824 17.8535 13.3411 17.5121C13.0211 17.1495 12.4344 16.8081 11.5811 16.4881V20.9681Z" fill="url(#paint0_linear)"/>
<path d="M25.8366 25.0001V7.43214L21.9326 8.39214L20.9086 4.36014L27.3406 2.44014H30.7006V25.0001H25.8366Z" fill="white"/>
<path d="M25.8366 25.0001V7.43214L21.9326 8.39214L20.9086 4.36014L27.3406 2.44014H30.7006V25.0001H25.8366Z" fill="url(#paint1_linear)"/>
<path d="M43.4006 25.3841C40.1579 25.3841 37.3633 24.2641 35.0166 22.0241L37.9926 18.4721C39.7846 20.0935 41.5659 20.9041 43.3366 20.9041C44.5099 20.9041 45.4272 20.6268 46.0886 20.0721C46.7499 19.5175 47.0806 18.7388 47.0806 17.7361C47.0806 16.7975 46.7179 16.0615 45.9926 15.5281C45.2672 14.9735 44.3073 14.6961 43.1126 14.6961C41.9179 14.6961 40.6699 14.9735 39.3686 15.5281L36.5206 13.6401L37.1606 2.60014H50.9206V6.92014H41.3846L41.1286 10.7921C42.1526 10.5361 43.1339 10.4081 44.0726 10.4081C46.3979 10.4081 48.2859 11.0055 49.7366 12.2001C51.1873 13.3948 51.9126 15.2081 51.9126 17.6401C51.9126 20.0081 51.1339 21.8961 49.5766 23.3041C48.0406 24.6908 45.9819 25.3841 43.4006 25.3841Z" fill="white"/>
<path d="M43.4006 25.3841C40.1579 25.3841 37.3633 24.2641 35.0166 22.0241L37.9926 18.4721C39.7846 20.0935 41.5659 20.9041 43.3366 20.9041C44.5099 20.9041 45.4272 20.6268 46.0886 20.0721C46.7499 19.5175 47.0806 18.7388 47.0806 17.7361C47.0806 16.7975 46.7179 16.0615 45.9926 15.5281C45.2672 14.9735 44.3073 14.6961 43.1126 14.6961C41.9179 14.6961 40.6699 14.9735 39.3686 15.5281L36.5206 13.6401L37.1606 2.60014H50.9206V6.92014H41.3846L41.1286 10.7921C42.1526 10.5361 43.1339 10.4081 44.0726 10.4081C46.3979 10.4081 48.2859 11.0055 49.7366 12.2001C51.1873 13.3948 51.9126 15.2081 51.9126 17.6401C51.9126 20.0081 51.1339 21.8961 49.5766 23.3041C48.0406 24.6908 45.9819 25.3841 43.4006 25.3841Z" fill="url(#paint2_linear)"/>
<path d="M72.6448 22.0881C70.7888 24.2855 68.3888 25.3841 65.4448 25.3841C62.5008 25.3841 60.1115 24.2855 58.2768 22.0881C56.4422 19.8908 55.5248 17.1281 55.5248 13.8001C55.5248 10.4935 56.4528 7.74147 58.3088 5.54414C60.1648 3.32547 62.5648 2.21614 65.5088 2.21614C68.4315 2.21614 70.8102 3.31481 72.6448 5.51214C74.5008 7.70947 75.4288 10.4721 75.4288 13.8001C75.4288 17.1068 74.5008 19.8695 72.6448 22.0881ZM61.9248 18.9201C62.8422 20.2641 64.0368 20.9361 65.5088 20.9361C66.9808 20.9361 68.1542 20.2748 69.0288 18.9521C69.9248 17.6081 70.3728 15.8908 70.3728 13.8001C70.3728 11.7521 69.9142 10.0561 68.9968 8.71214C68.0795 7.34681 66.8955 6.66414 65.4448 6.66414C63.9942 6.66414 62.8208 7.33614 61.9248 8.68014C61.0288 10.0028 60.5808 11.7095 60.5808 13.8001C60.5808 15.8695 61.0288 17.5761 61.9248 18.9201Z" fill="white"/>
<path d="M72.6448 22.0881C70.7888 24.2855 68.3888 25.3841 65.4448 25.3841C62.5008 25.3841 60.1115 24.2855 58.2768 22.0881C56.4422 19.8908 55.5248 17.1281 55.5248 13.8001C55.5248 10.4935 56.4528 7.74147 58.3088 5.54414C60.1648 3.32547 62.5648 2.21614 65.5088 2.21614C68.4315 2.21614 70.8102 3.31481 72.6448 5.51214C74.5008 7.70947 75.4288 10.4721 75.4288 13.8001C75.4288 17.1068 74.5008 19.8695 72.6448 22.0881ZM61.9248 18.9201C62.8422 20.2641 64.0368 20.9361 65.5088 20.9361C66.9808 20.9361 68.1542 20.2748 69.0288 18.9521C69.9248 17.6081 70.3728 15.8908 70.3728 13.8001C70.3728 11.7521 69.9142 10.0561 68.9968 8.71214C68.0795 7.34681 66.8955 6.66414 65.4448 6.66414C63.9942 6.66414 62.8208 7.33614 61.9248 8.68014C61.0288 10.0028 60.5808 11.7095 60.5808 13.8001C60.5808 15.8695 61.0288 17.5761 61.9248 18.9201Z" fill="url(#paint3_linear)"/>
<path d="M96.0198 22.0881C94.1638 24.2855 91.7638 25.3841 88.8198 25.3841C85.8758 25.3841 83.4865 24.2855 81.6518 22.0881C79.8172 19.8908 78.8998 17.1281 78.8998 13.8001C78.8998 10.4935 79.8278 7.74147 81.6838 5.54414C83.5398 3.32547 85.9398 2.21614 88.8838 2.21614C91.8065 2.21614 94.1852 3.31481 96.0198 5.51214C97.8758 7.70947 98.8038 10.4721 98.8038 13.8001C98.8038 17.1068 97.8758 19.8695 96.0198 22.0881ZM85.2998 18.9201C86.2172 20.2641 87.4118 20.9361 88.8838 20.9361C90.3558 20.9361 91.5292 20.2748 92.4038 18.9521C93.2998 17.6081 93.7478 15.8908 93.7478 13.8001C93.7478 11.7521 93.2892 10.0561 92.3718 8.71214C91.4545 7.34681 90.2705 6.66414 88.8198 6.66414C87.3692 6.66414 86.1958 7.33614 85.2998 8.68014C84.4038 10.0028 83.9558 11.7095 83.9558 13.8001C83.9558 15.8695 84.4038 17.5761 85.2998 18.9201Z" fill="white"/>
<path d="M96.0198 22.0881C94.1638 24.2855 91.7638 25.3841 88.8198 25.3841C85.8758 25.3841 83.4865 24.2855 81.6518 22.0881C79.8172 19.8908 78.8998 17.1281 78.8998 13.8001C78.8998 10.4935 79.8278 7.74147 81.6838 5.54414C83.5398 3.32547 85.9398 2.21614 88.8838 2.21614C91.8065 2.21614 94.1852 3.31481 96.0198 5.51214C97.8758 7.70947 98.8038 10.4721 98.8038 13.8001C98.8038 17.1068 97.8758 19.8695 96.0198 22.0881ZM85.2998 18.9201C86.2172 20.2641 87.4118 20.9361 88.8838 20.9361C90.3558 20.9361 91.5292 20.2748 92.4038 18.9521C93.2998 17.6081 93.7478 15.8908 93.7478 13.8001C93.7478 11.7521 93.2892 10.0561 92.3718 8.71214C91.4545 7.34681 90.2705 6.66414 88.8198 6.66414C87.3692 6.66414 86.1958 7.33614 85.2998 8.68014C84.4038 10.0028 83.9558 11.7095 83.9558 13.8001C83.9558 15.8695 84.4038 17.5761 85.2998 18.9201Z" fill="url(#paint4_linear)"/>
<defs>
<linearGradient id="paint0_linear" x1="80" y1="-8" x2="50" y2="29" gradientUnits="userSpaceOnUse">
<stop stop-color="#4614E8"/>
<stop offset="1" stop-color="#BCA7FF"/>
</linearGradient>
<linearGradient id="paint1_linear" x1="80" y1="-8" x2="50" y2="29" gradientUnits="userSpaceOnUse">
<stop stop-color="#4614E8"/>
<stop offset="1" stop-color="#BCA7FF"/>
</linearGradient>
<linearGradient id="paint2_linear" x1="80" y1="-8" x2="50" y2="29" gradientUnits="userSpaceOnUse">
<stop stop-color="#4614E8"/>
<stop offset="1" stop-color="#BCA7FF"/>
</linearGradient>
<linearGradient id="paint3_linear" x1="80" y1="-8" x2="50" y2="29" gradientUnits="userSpaceOnUse">
<stop stop-color="#4614E8"/>
<stop offset="1" stop-color="#BCA7FF"/>
</linearGradient>
<linearGradient id="paint4_linear" x1="80" y1="-8" x2="50" y2="29" gradientUnits="userSpaceOnUse">
<stop stop-color="#4614E8"/>
<stop offset="1" stop-color="#BCA7FF"/>
</linearGradient>
</defs>
</svg>
