<svg width="145" height="145" viewBox="0 0 145 145" fill="none" xmlns="http://www.w3.org/2000/svg">
<path d="M70.7451 129.745C101.673 129.745 126.745 104.673 126.745 73.7455C126.745 42.8175 101.673 17.7455 70.7451 17.7455C58.8315 17.7455 47.7868 21.4658 38.7093 27.808C30.7213 31.9538 14.7451 46.9455 14.7451 73.7455C14.7451 104.673 39.8172 129.745 70.7451 129.745Z" fill="#F4F7FA"/>
<path d="M0 72.4999C0 112.321 32.6788 145 72.5 145C112.321 145 145 112.321 145 72.4999C145 35.5942 116.931 4.82324 81.1215 0.515355C76.3852 -0.0544235 72.5 3.8671 72.5 8.63757V8.63757C72.5 13.408 76.392 17.2043 81.1046 17.9447C107.483 22.0894 127.725 44.9762 127.725 72.4999C127.725 102.95 102.95 127.724 72.5 127.724C42.05 127.724 17.2754 102.95 17.2754 72.4999C17.2754 61.9604 20.2434 52.1009 25.3875 43.7133C27.8902 39.6325 27.4868 34.1786 23.8038 31.1206V31.1206C20.1862 28.1168 14.7768 28.5582 12.1656 32.4685C4.48848 43.9647 0 57.7418 0 72.4999Z" fill="url(#paint0_linear)"/>
<defs>
<linearGradient id="paint0_linear" x1="135" y1="25.9999" x2="-19.5" y2="53.4999" gradientUnits="userSpaceOnUse">
<stop stop-color="#4614E8"/>
<stop offset="1" stop-color="#BCA7FF"/>
</linearGradient>
</defs>
</svg>
