<svg width="151" height="36" viewBox="0 0 151 36" fill="none" xmlns="http://www.w3.org/2000/svg">
<path d="M7.54398 35V8.64797L1.68798 10.088L0.151978 4.03997L9.79998 1.15997H14.84V35H7.54398Z" fill="#7247FF"/>
<path d="M7.54398 35V8.64797L1.68798 10.088L0.151978 4.03997L9.79998 1.15997H14.84V35H7.54398Z" fill="url(#paint0_linear)"/>
<path d="M47.522 30.632C44.738 33.928 41.138 35.576 36.722 35.576C32.306 35.576 28.722 33.928 25.97 30.632C23.218 27.336 21.842 23.192 21.842 18.2C21.842 13.24 23.234 9.11197 26.018 5.81597C28.802 2.48797 32.402 0.823975 36.818 0.823975C41.202 0.823975 44.77 2.47197 47.522 5.76797C50.306 9.06397 51.698 13.208 51.698 18.2C51.698 23.16 50.306 27.304 47.522 30.632ZM31.442 25.88C32.818 27.896 34.61 28.904 36.818 28.904C39.026 28.904 40.786 27.912 42.098 25.928C43.442 23.912 44.114 21.336 44.114 18.2C44.114 15.128 43.426 12.584 42.05 10.568C40.674 8.51997 38.898 7.49597 36.722 7.49597C34.546 7.49597 32.786 8.50397 31.442 10.52C30.098 12.504 29.426 15.064 29.426 18.2C29.426 21.304 30.098 23.864 31.442 25.88Z" fill="#7247FF"/>
<path d="M47.522 30.632C44.738 33.928 41.138 35.576 36.722 35.576C32.306 35.576 28.722 33.928 25.97 30.632C23.218 27.336 21.842 23.192 21.842 18.2C21.842 13.24 23.234 9.11197 26.018 5.81597C28.802 2.48797 32.402 0.823975 36.818 0.823975C41.202 0.823975 44.77 2.47197 47.522 5.76797C50.306 9.06397 51.698 13.208 51.698 18.2C51.698 23.16 50.306 27.304 47.522 30.632ZM31.442 25.88C32.818 27.896 34.61 28.904 36.818 28.904C39.026 28.904 40.786 27.912 42.098 25.928C43.442 23.912 44.114 21.336 44.114 18.2C44.114 15.128 43.426 12.584 42.05 10.568C40.674 8.51997 38.898 7.49597 36.722 7.49597C34.546 7.49597 32.786 8.50397 31.442 10.52C30.098 12.504 29.426 15.064 29.426 18.2C29.426 21.304 30.098 23.864 31.442 25.88Z" fill="url(#paint1_linear)"/>
<path d="M82.5845 30.632C79.8005 33.928 76.2005 35.576 71.7845 35.576C67.3685 35.576 63.7845 33.928 61.0325 30.632C58.2805 27.336 56.9045 23.192 56.9045 18.2C56.9045 13.24 58.2965 9.11197 61.0805 5.81597C63.8645 2.48797 67.4645 0.823975 71.8805 0.823975C76.2645 0.823975 79.8325 2.47197 82.5845 5.76797C85.3685 9.06397 86.7605 13.208 86.7605 18.2C86.7605 23.16 85.3685 27.304 82.5845 30.632ZM66.5045 25.88C67.8805 27.896 69.6725 28.904 71.8805 28.904C74.0885 28.904 75.8485 27.912 77.1605 25.928C78.5045 23.912 79.1765 21.336 79.1765 18.2C79.1765 15.128 78.4885 12.584 77.1125 10.568C75.7365 8.51997 73.9605 7.49597 71.7845 7.49597C69.6085 7.49597 67.8485 8.50397 66.5045 10.52C65.1605 12.504 64.4885 15.064 64.4885 18.2C64.4885 21.304 65.1605 23.864 66.5045 25.88Z" fill="#7247FF"/>
<path d="M82.5845 30.632C79.8005 33.928 76.2005 35.576 71.7845 35.576C67.3685 35.576 63.7845 33.928 61.0325 30.632C58.2805 27.336 56.9045 23.192 56.9045 18.2C56.9045 13.24 58.2965 9.11197 61.0805 5.81597C63.8645 2.48797 67.4645 0.823975 71.8805 0.823975C76.2645 0.823975 79.8325 2.47197 82.5845 5.76797C85.3685 9.06397 86.7605 13.208 86.7605 18.2C86.7605 23.16 85.3685 27.304 82.5845 30.632ZM66.5045 25.88C67.8805 27.896 69.6725 28.904 71.8805 28.904C74.0885 28.904 75.8485 27.912 77.1605 25.928C78.5045 23.912 79.1765 21.336 79.1765 18.2C79.1765 15.128 78.4885 12.584 77.1125 10.568C75.7365 8.51997 73.9605 7.49597 71.7845 7.49597C69.6085 7.49597 67.8485 8.50397 66.5045 10.52C65.1605 12.504 64.4885 15.064 64.4885 18.2C64.4885 21.304 65.1605 23.864 66.5045 25.88Z" fill="url(#paint2_linear)"/>
<path d="M101.327 30.056V21.416H92.639V14.792H101.327V6.15197H108.143V14.792H116.831V21.416H108.143V30.056H101.327Z" fill="#7247FF"/>
<path d="M101.327 30.056V21.416H92.639V14.792H101.327V6.15197H108.143V14.792H116.831V21.416H108.143V30.056H101.327Z" fill="url(#paint3_linear)"/>
<path d="M128.526 26.4239V28.5039H125.982V34.9999H123.518V28.5039H120.974V26.4239H128.526Z" fill="#7247FF"/>
<path d="M128.526 26.4239V28.5039H125.982V34.9999H123.518V28.5039H120.974V26.4239H128.526Z" fill="url(#paint4_linear)"/>
<path d="M129.854 34.9999V26.4239H132.286V29.2559H134.046C135.08 29.2559 135.907 29.4959 136.526 29.9759C137.155 30.4559 137.47 31.1599 137.47 32.0879C137.47 32.9946 137.176 33.7092 136.59 34.2319C136.014 34.7439 135.208 34.9999 134.174 34.9999H129.854ZM133.806 31.0959H132.286V33.0799H133.822C134.622 33.0799 135.022 32.7386 135.022 32.0559C135.022 31.7572 134.915 31.5226 134.702 31.3519C134.499 31.1812 134.2 31.0959 133.806 31.0959ZM138.606 34.9999V26.4239H141.038V34.9999H138.606Z" fill="#7247FF"/>
<path d="M129.854 34.9999V26.4239H132.286V29.2559H134.046C135.08 29.2559 135.907 29.4959 136.526 29.9759C137.155 30.4559 137.47 31.1599 137.47 32.0879C137.47 32.9946 137.176 33.7092 136.59 34.2319C136.014 34.7439 135.208 34.9999 134.174 34.9999H129.854ZM133.806 31.0959H132.286V33.0799H133.822C134.622 33.0799 135.022 32.7386 135.022 32.0559C135.022 31.7572 134.915 31.5226 134.702 31.3519C134.499 31.1812 134.2 31.0959 133.806 31.0959ZM138.606 34.9999V26.4239H141.038V34.9999H138.606Z" fill="url(#paint5_linear)"/>
<path d="M147.261 35.1919C145.981 35.1919 144.914 34.7599 144.061 33.8959C143.218 33.0319 142.797 31.9759 142.797 30.7279C142.797 29.4906 143.224 28.4399 144.077 27.5759C144.93 26.7012 146.002 26.2639 147.293 26.2639C148.669 26.2639 149.805 26.7652 150.701 27.7679L149.277 29.2079C148.68 28.6426 148.013 28.3599 147.277 28.3599C146.68 28.3599 146.184 28.5892 145.789 29.0479C145.394 29.5066 145.197 30.0666 145.197 30.7279C145.197 31.3999 145.394 31.9652 145.789 32.4239C146.194 32.8719 146.722 33.0959 147.373 33.0959C148.045 33.0959 148.701 32.7919 149.341 32.1839L150.765 33.6239C150.296 34.1359 149.794 34.5252 149.261 34.7919C148.728 35.0586 148.061 35.1919 147.261 35.1919Z" fill="#7247FF"/>
<path d="M147.261 35.1919C145.981 35.1919 144.914 34.7599 144.061 33.8959C143.218 33.0319 142.797 31.9759 142.797 30.7279C142.797 29.4906 143.224 28.4399 144.077 27.5759C144.93 26.7012 146.002 26.2639 147.293 26.2639C148.669 26.2639 149.805 26.7652 150.701 27.7679L149.277 29.2079C148.68 28.6426 148.013 28.3599 147.277 28.3599C146.68 28.3599 146.184 28.5892 145.789 29.0479C145.394 29.5066 145.197 30.0666 145.197 30.7279C145.197 31.3999 145.394 31.9652 145.789 32.4239C146.194 32.8719 146.722 33.0959 147.373 33.0959C148.045 33.0959 148.701 32.7919 149.341 32.1839L150.765 33.6239C150.296 34.1359 149.794 34.5252 149.261 34.7919C148.728 35.0586 148.061 35.1919 147.261 35.1919Z" fill="url(#paint6_linear)"/>
<defs>
<linearGradient id="paint0_linear" x1="77" y1="-1" x2="77" y2="53" gradientUnits="userSpaceOnUse">
<stop stop-color="#4614E8"/>
<stop offset="1" stop-color="#BCA7FF"/>
</linearGradient>
<linearGradient id="paint1_linear" x1="77" y1="-1" x2="77" y2="53" gradientUnits="userSpaceOnUse">
<stop stop-color="#4614E8"/>
<stop offset="1" stop-color="#BCA7FF"/>
</linearGradient>
<linearGradient id="paint2_linear" x1="77" y1="-1" x2="77" y2="53" gradientUnits="userSpaceOnUse">
<stop stop-color="#4614E8"/>
<stop offset="1" stop-color="#BCA7FF"/>
</linearGradient>
<linearGradient id="paint3_linear" x1="77" y1="-1" x2="77" y2="53" gradientUnits="userSpaceOnUse">
<stop stop-color="#4614E8"/>
<stop offset="1" stop-color="#BCA7FF"/>
</linearGradient>
<linearGradient id="paint4_linear" x1="136" y1="17.9999" x2="136" y2="41.9999" gradientUnits="userSpaceOnUse">
<stop stop-color="#4614E8"/>
<stop offset="1" stop-color="#BCA7FF"/>
</linearGradient>
<linearGradient id="paint5_linear" x1="136" y1="17.9999" x2="136" y2="41.9999" gradientUnits="userSpaceOnUse">
<stop stop-color="#4614E8"/>
<stop offset="1" stop-color="#BCA7FF"/>
</linearGradient>
<linearGradient id="paint6_linear" x1="136" y1="17.9999" x2="136" y2="41.9999" gradientUnits="userSpaceOnUse">
<stop stop-color="#4614E8"/>
<stop offset="1" stop-color="#BCA7FF"/>
</linearGradient>
</defs>
</svg>
