<svg width="71" height="27" viewBox="0 0 71 27" fill="none" xmlns="http://www.w3.org/2000/svg">
<path d="M6.40801 26V6.236L2.01601 7.31599L0.864014 2.78L8.10001 0.619995H11.88V26H6.40801Z" fill="#7247FF"/>
<path d="M6.40801 26V6.236L2.01601 7.31599L0.864014 2.78L8.10001 0.619995H11.88V26H6.40801Z" fill="url(#paint0_linear)"/>
<path d="M26.1675 26.432C22.5195 26.432 19.3755 25.172 16.7355 22.652L20.0835 18.656C22.0995 20.48 24.1035 21.392 26.0955 21.392C27.4155 21.392 28.4475 21.08 29.1915 20.456C29.9355 19.832 30.3075 18.956 30.3075 17.828C30.3075 16.772 29.8995 15.944 29.0835 15.344C28.2675 14.72 27.1875 14.408 25.8435 14.408C24.4995 14.408 23.0955 14.72 21.6315 15.344L18.4275 13.22L19.1475 0.799995H34.6275V5.66H23.8995L23.6115 10.016C24.7635 9.728 25.8675 9.584 26.9235 9.584C29.5395 9.584 31.6635 10.256 33.2955 11.6C34.9275 12.944 35.7435 14.984 35.7435 17.72C35.7435 20.384 34.8675 22.508 33.1155 24.092C31.3875 25.652 29.0715 26.432 26.1675 26.432Z" fill="#7247FF"/>
<path d="M26.1675 26.432C22.5195 26.432 19.3755 25.172 16.7355 22.652L20.0835 18.656C22.0995 20.48 24.1035 21.392 26.0955 21.392C27.4155 21.392 28.4475 21.08 29.1915 20.456C29.9355 19.832 30.3075 18.956 30.3075 17.828C30.3075 16.772 29.8995 15.944 29.0835 15.344C28.2675 14.72 27.1875 14.408 25.8435 14.408C24.4995 14.408 23.0955 14.72 21.6315 15.344L18.4275 13.22L19.1475 0.799995H34.6275V5.66H23.8995L23.6115 10.016C24.7635 9.728 25.8675 9.584 26.9235 9.584C29.5395 9.584 31.6635 10.256 33.2955 11.6C34.9275 12.944 35.7435 14.984 35.7435 17.72C35.7435 20.384 34.8675 22.508 33.1155 24.092C31.3875 25.652 29.0715 26.432 26.1675 26.432Z" fill="url(#paint1_linear)"/>
<path d="M45.1433 17.424H52.0393V26H49.6073V19.504H47.4313C47.4313 20.6347 47.3886 21.5894 47.3033 22.368C47.218 23.1467 47.1006 23.7814 46.9513 24.272C46.802 24.7627 46.594 25.1414 46.3273 25.408C46.0606 25.6747 45.7726 25.856 45.4633 25.952C45.154 26.048 44.77 26.096 44.3113 26.096C43.874 26.096 43.4633 26.048 43.0793 25.952L43.2393 23.984C43.4313 24.016 43.602 24.032 43.7513 24.032C44.0073 24.032 44.21 23.9734 44.3593 23.856C44.5086 23.728 44.6473 23.4507 44.7753 23.024C44.914 22.5867 45.01 21.92 45.0633 21.024C45.1166 20.1174 45.1433 18.9174 45.1433 17.424Z" fill="#7247FF"/>
<path d="M45.1433 17.424H52.0393V26H49.6073V19.504H47.4313C47.4313 20.6347 47.3886 21.5894 47.3033 22.368C47.218 23.1467 47.1006 23.7814 46.9513 24.272C46.802 24.7627 46.594 25.1414 46.3273 25.408C46.0606 25.6747 45.7726 25.856 45.4633 25.952C45.154 26.048 44.77 26.096 44.3113 26.096C43.874 26.096 43.4633 26.048 43.0793 25.952L43.2393 23.984C43.4313 24.016 43.602 24.032 43.7513 24.032C44.0073 24.032 44.21 23.9734 44.3593 23.856C44.5086 23.728 44.6473 23.4507 44.7753 23.024C44.914 22.5867 45.01 21.92 45.0633 21.024C45.1166 20.1174 45.1433 18.9174 45.1433 17.424Z" fill="url(#paint2_linear)"/>
<path d="M58.277 26.192C56.9757 26.192 55.9037 25.7814 55.061 24.96C54.2184 24.128 53.797 23.0507 53.797 21.728C53.797 20.48 54.197 19.424 54.997 18.56C55.797 17.696 56.8104 17.264 58.037 17.264C59.3917 17.264 60.4264 17.712 61.141 18.608C61.8557 19.504 62.213 20.608 62.213 21.92C62.213 22.048 62.2024 22.2614 62.181 22.56H56.213C56.3304 23.104 56.5704 23.52 56.933 23.808C57.2957 24.096 57.7544 24.24 58.309 24.24C59.0664 24.24 59.7597 23.9467 60.389 23.36L61.781 24.592C60.917 25.6587 59.749 26.192 58.277 26.192ZM56.181 21.04H59.845C59.7704 20.4854 59.573 20.0427 59.253 19.712C58.9437 19.3814 58.5384 19.216 58.037 19.216C57.5464 19.216 57.1357 19.3814 56.805 19.712C56.485 20.032 56.277 20.4747 56.181 21.04Z" fill="#7247FF"/>
<path d="M58.277 26.192C56.9757 26.192 55.9037 25.7814 55.061 24.96C54.2184 24.128 53.797 23.0507 53.797 21.728C53.797 20.48 54.197 19.424 54.997 18.56C55.797 17.696 56.8104 17.264 58.037 17.264C59.3917 17.264 60.4264 17.712 61.141 18.608C61.8557 19.504 62.213 20.608 62.213 21.92C62.213 22.048 62.2024 22.2614 62.181 22.56H56.213C56.3304 23.104 56.5704 23.52 56.933 23.808C57.2957 24.096 57.7544 24.24 58.309 24.24C59.0664 24.24 59.7597 23.9467 60.389 23.36L61.781 24.592C60.917 25.6587 59.749 26.192 58.277 26.192ZM56.181 21.04H59.845C59.7704 20.4854 59.573 20.0427 59.253 19.712C58.9437 19.3814 58.5384 19.216 58.037 19.216C57.5464 19.216 57.1357 19.3814 56.805 19.712C56.485 20.032 56.277 20.4747 56.181 21.04Z" fill="url(#paint3_linear)"/>
<path d="M70.7295 17.424V19.504H68.1855V26H65.7215V19.504H63.1775V17.424H70.7295Z" fill="#7247FF"/>
<path d="M70.7295 17.424V19.504H68.1855V26H65.7215V19.504H63.1775V17.424H70.7295Z" fill="url(#paint4_linear)"/>
<defs>
<linearGradient id="paint0_linear" x1="29" y1="-6" x2="29" y2="26" gradientUnits="userSpaceOnUse">
<stop stop-color="#4614E8"/>
<stop offset="1" stop-color="#BCA7FF"/>
</linearGradient>
<linearGradient id="paint1_linear" x1="29" y1="-6" x2="29" y2="26" gradientUnits="userSpaceOnUse">
<stop stop-color="#4614E8"/>
<stop offset="1" stop-color="#BCA7FF"/>
</linearGradient>
<linearGradient id="paint2_linear" x1="57.0001" y1="9" x2="57.0001" y2="33" gradientUnits="userSpaceOnUse">
<stop stop-color="#4614E8"/>
<stop offset="1" stop-color="#BCA7FF"/>
</linearGradient>
<linearGradient id="paint3_linear" x1="57.0001" y1="9" x2="57.0001" y2="33" gradientUnits="userSpaceOnUse">
<stop stop-color="#4614E8"/>
<stop offset="1" stop-color="#BCA7FF"/>
</linearGradient>
<linearGradient id="paint4_linear" x1="57.0001" y1="9" x2="57.0001" y2="33" gradientUnits="userSpaceOnUse">
<stop stop-color="#4614E8"/>
<stop offset="1" stop-color="#BCA7FF"/>
</linearGradient>
</defs>
</svg>
