<svg width="186" height="127" viewBox="0 0 186 127" fill="none" xmlns="http://www.w3.org/2000/svg">
<g clip-path="url(#clip0)">
<path d="M182.674 115.49C181.401 119.901 177.686 122.988 173.81 125.611C173.269 125.977 172.727 126.335 172.186 126.685C172.182 126.686 172.178 126.69 172.174 126.691C172.148 126.708 172.122 126.725 172.098 126.741C171.986 126.813 171.874 126.885 171.764 126.957L171.824 126.984C171.824 126.984 171.884 127.016 171.819 126.989C171.799 126.981 171.779 126.974 171.76 126.965C169.508 126.058 167.216 125.084 165.491 123.384C163.7 121.619 162.654 118.851 163.624 116.532C163.751 116.228 163.912 115.94 164.103 115.672C164.182 115.559 164.267 115.452 164.355 115.346C164.89 114.694 165.588 114.196 166.38 113.904C167.171 113.611 168.026 113.534 168.856 113.681C169.687 113.828 170.464 114.193 171.106 114.739C171.749 115.285 172.234 115.992 172.513 116.788C172.797 114.139 170.611 111.92 168.507 110.283C166.402 108.647 164.011 106.865 163.604 104.231C163.376 102.765 163.887 101.345 164.816 100.204C164.845 100.17 164.873 100.135 164.903 100.101C166.034 98.7735 167.625 97.9207 169.358 97.7135C172.586 97.3784 175.721 99.0852 178.065 101.327C181.839 104.934 184.121 110.475 182.674 115.49Z" fill="#F2F2F2"/>
<path d="M176.608 109.721C177.227 110.684 177.703 111.732 178.019 112.832C178.287 113.815 178.406 114.833 178.373 115.851C178.286 117.947 177.698 119.991 176.656 121.812C175.871 123.193 174.915 124.47 173.81 125.611C173.269 125.978 172.727 126.336 172.186 126.685C172.182 126.687 172.178 126.69 172.174 126.692C172.148 126.708 172.122 126.725 172.098 126.742C171.986 126.814 171.874 126.886 171.764 126.957C171.764 126.957 171.884 127.016 171.819 126.99C171.799 126.981 171.779 126.974 171.76 126.966C171.961 125.313 171.764 123.636 171.183 122.075C170.602 120.514 169.656 119.114 168.422 117.994C167.186 116.891 165.706 116.095 164.104 115.672C164.182 115.56 164.267 115.452 164.355 115.347C164.974 115.52 165.576 115.748 166.155 116.027C168.224 117.02 169.918 118.652 170.987 120.681C171.946 122.524 172.358 124.602 172.176 126.671C172.269 126.587 172.362 126.502 172.451 126.417C174.162 124.823 175.682 122.994 176.711 120.883C177.603 119.095 178.042 117.115 177.988 115.118C177.904 112.94 177.035 110.923 175.778 109.167C174.4 107.293 172.772 105.617 170.939 104.184C169.092 102.706 167.071 101.46 164.921 100.472C164.872 100.45 164.834 100.409 164.815 100.36C164.795 100.31 164.796 100.254 164.816 100.205C164.83 100.16 164.862 100.123 164.903 100.102C164.924 100.093 164.948 100.089 164.971 100.089C164.994 100.09 165.017 100.097 165.037 100.108C165.303 100.23 165.566 100.354 165.828 100.483C168.006 101.558 170.042 102.9 171.889 104.477C173.673 105.997 175.353 107.733 176.608 109.721Z" fill="white"/>
<path d="M155.094 2.86066e-09H2.19641C1.61403 0.000529774 1.05567 0.231903 0.643873 0.643332C0.232079 1.05476 0.000511557 1.61263 0 2.19447V105.707C0.000510891 106.289 0.232079 106.847 0.643873 107.258C1.05567 107.669 1.61403 107.901 2.19641 107.901H155.094C155.411 107.901 155.725 107.832 156.013 107.7C156.302 107.567 156.558 107.373 156.764 107.131C156.781 107.112 156.797 107.092 156.812 107.071C156.943 106.911 157.049 106.732 157.126 106.54C157.237 106.276 157.293 105.993 157.293 105.707V2.19448C157.292 1.61223 157.06 1.05404 156.648 0.642564C156.235 0.231086 155.676 -2.96894e-05 155.094 2.86066e-09ZM156.665 105.707C156.666 106.013 156.575 106.312 156.406 106.568C156.255 106.792 156.051 106.975 155.811 107.101C155.59 107.216 155.343 107.275 155.094 107.275H2.19641C1.78036 107.274 1.38151 107.109 1.08732 106.815C0.793134 106.521 0.627639 106.123 0.627134 105.707V2.19448C0.627639 1.77882 0.793134 1.38033 1.08732 1.08641C1.38151 0.792491 1.78036 0.627144 2.19641 0.62664H155.094C155.51 0.626586 155.909 0.791669 156.204 1.08563C156.499 1.3796 156.665 1.77841 156.665 2.19448V105.707Z" fill="#3F3D56"/>
<path d="M156.978 8.79541H0.31308V9.42275H156.978V8.79541Z" fill="#3F3D56"/>
<path fill-rule="evenodd" clip-rule="evenodd" d="M5.65019 6.08728C6.41485 6.08728 7.03394 5.46809 7.03394 4.70526C7.03394 3.94242 6.41485 3.32324 5.65019 3.32324C4.88554 3.32324 4.26645 3.94242 4.26645 4.70526C4.26645 5.46809 4.88554 6.08728 5.65019 6.08728ZM7.53394 4.70526C7.53394 5.74467 6.69056 6.58728 5.65019 6.58728C4.60983 6.58728 3.76645 5.74467 3.76645 4.70526C3.76645 3.66585 4.60983 2.82324 5.65019 2.82324C6.69056 2.82324 7.53394 3.66585 7.53394 4.70526Z" fill="black"/>
<path fill-rule="evenodd" clip-rule="evenodd" d="M11.0661 6.08728C11.8308 6.08728 12.4499 5.46809 12.4499 4.70526C12.4499 3.94242 11.8308 3.32324 11.0661 3.32324C10.3015 3.32324 9.68237 3.94242 9.68237 4.70526C9.68237 5.46809 10.3015 6.08728 11.0661 6.08728ZM12.9499 4.70526C12.9499 5.74467 12.1065 6.58728 11.0661 6.58728C10.0258 6.58728 9.18237 5.74467 9.18237 4.70526C9.18237 3.66585 10.0258 2.82324 11.0661 2.82324C12.1065 2.82324 12.9499 3.66585 12.9499 4.70526Z" fill="black"/>
<path fill-rule="evenodd" clip-rule="evenodd" d="M16.4818 6.08728C17.2465 6.08728 17.8656 5.46809 17.8656 4.70526C17.8656 3.94242 17.2465 3.32324 16.4818 3.32324C15.7172 3.32324 15.0981 3.94242 15.0981 4.70526C15.0981 5.46809 15.7172 6.08728 16.4818 6.08728ZM18.3656 4.70526C18.3656 5.74467 17.5222 6.58728 16.4818 6.58728C15.4415 6.58728 14.5981 5.74467 14.5981 4.70526C14.5981 3.66585 15.4415 2.82324 16.4818 2.82324C17.5222 2.82324 18.3656 3.66585 18.3656 4.70526Z" fill="black"/>
<path d="M101.464 44.1311C100.459 44.1311 99.4768 43.8333 98.6411 43.2755C97.8055 42.7176 97.1541 41.9247 96.7695 40.997C96.3849 40.0693 96.2843 39.0484 96.4803 38.0636C96.6764 37.0788 97.1604 36.1741 97.8711 35.4641C98.5818 34.754 99.4872 34.2705 100.473 34.0746C101.459 33.8787 102.481 33.9793 103.409 34.3635C104.338 34.7478 105.131 35.3985 105.69 36.2334C106.248 37.0683 106.546 38.0499 106.546 39.0541C106.545 40.4001 106.009 41.6906 105.056 42.6424C104.103 43.5942 102.812 44.1296 101.464 44.1311ZM101.464 34.4582C100.555 34.4582 99.6652 34.7278 98.9087 35.2328C98.1522 35.7378 97.5626 36.4555 97.2144 37.2953C96.8663 38.1351 96.7752 39.0592 96.9527 39.9507C97.1302 40.8422 97.5683 41.6611 98.2116 42.3039C98.855 42.9466 99.6746 43.3843 100.567 43.5616C101.459 43.739 102.384 43.648 103.225 43.3001C104.065 42.9523 104.784 42.3632 105.289 41.6074C105.795 40.8516 106.064 39.9631 106.064 39.0541C106.063 37.8356 105.578 36.6674 104.716 35.8058C103.853 34.9442 102.684 34.4596 101.464 34.4582Z" fill="#6C63FF"/>
<path d="M100.985 40.899C100.876 40.8992 100.77 40.864 100.683 40.7987L100.677 40.7947L99.5395 39.9252C99.4331 39.8437 99.3634 39.7233 99.3458 39.5905C99.3283 39.4577 99.3643 39.3233 99.4458 39.217C99.5274 39.1107 99.6479 39.0411 99.7809 39.0236C99.9138 39.0061 100.048 39.042 100.155 39.1235L100.892 39.6881L102.633 37.4184C102.673 37.3658 102.724 37.3216 102.781 37.2885C102.839 37.2553 102.902 37.2337 102.968 37.2251C103.034 37.2164 103.1 37.2207 103.165 37.2379C103.229 37.255 103.289 37.2846 103.341 37.3249L103.342 37.325L103.331 37.34L103.342 37.325C103.448 37.4066 103.518 37.527 103.535 37.6597C103.553 37.7925 103.517 37.9267 103.435 38.033L101.387 40.7014C101.34 40.7629 101.279 40.8127 101.209 40.8468C101.139 40.881 101.063 40.8987 100.985 40.8984L100.985 40.899Z" fill="#6C63FF"/>
<path d="M116.005 44.1311C115 44.1311 114.017 43.8333 113.181 43.2755C112.346 42.7176 111.694 41.9247 111.31 40.997C110.925 40.0693 110.825 39.0484 111.021 38.0636C111.217 37.0788 111.701 36.1741 112.411 35.4641C113.122 34.754 114.027 34.2705 115.013 34.0746C115.999 33.8787 117.021 33.9793 117.949 34.3635C118.878 34.7478 119.672 35.3985 120.23 36.2334C120.788 37.0683 121.086 38.0499 121.086 39.0541C121.085 40.4001 120.549 41.6906 119.596 42.6424C118.644 43.5942 117.352 44.1296 116.005 44.1311ZM116.005 34.4582C115.095 34.4582 114.205 34.7278 113.449 35.2328C112.692 35.7378 112.103 36.4555 111.755 37.2953C111.407 38.1351 111.315 39.0592 111.493 39.9507C111.67 40.8422 112.109 41.6611 112.752 42.3039C113.395 42.9466 114.215 43.3843 115.107 43.5616C116 43.739 116.924 43.648 117.765 43.3001C118.606 42.9523 119.324 42.3632 119.829 41.6074C120.335 40.8516 120.605 39.9631 120.605 39.0541C120.603 37.8356 120.118 36.6674 119.256 35.8058C118.393 34.9442 117.224 34.4596 116.005 34.4582Z" fill="#E6E6E6"/>
<path d="M117.834 40.811C117.773 40.8718 117.69 40.906 117.604 40.906C117.518 40.906 117.435 40.8718 117.374 40.811L116.154 39.5927C116.127 39.5656 116.09 39.5504 116.052 39.5503C116.014 39.5503 115.977 39.5656 115.949 39.5927L114.73 40.811C114.669 40.8719 114.586 40.9062 114.5 40.9062C114.414 40.9062 114.331 40.8719 114.27 40.811C114.209 40.75 114.175 40.6674 114.175 40.5812C114.175 40.495 114.209 40.4123 114.27 40.3513L115.489 39.1331C115.517 39.1059 115.532 39.0691 115.532 39.0307C115.532 38.9923 115.517 38.9555 115.489 38.9283L114.27 37.71C114.209 37.649 114.175 37.5664 114.175 37.4802C114.175 37.394 114.209 37.3114 114.27 37.2504C114.331 37.1895 114.414 37.1553 114.5 37.1553C114.586 37.1553 114.669 37.1895 114.73 37.2504L115.949 38.4688C115.977 38.4959 116.013 38.5111 116.052 38.5111C116.09 38.5111 116.127 38.4959 116.154 38.4688L117.374 37.2505C117.435 37.1895 117.517 37.1553 117.604 37.1553C117.69 37.1553 117.773 37.1895 117.834 37.2505C117.895 37.3114 117.929 37.3941 117.929 37.4803C117.929 37.5665 117.895 37.6492 117.834 37.7101L116.614 38.9284C116.587 38.9556 116.572 38.9924 116.572 39.0308C116.572 39.0692 116.587 39.106 116.614 39.1332L117.834 40.3515C117.895 40.4124 117.929 40.4951 117.929 40.5812C117.929 40.6674 117.895 40.75 117.834 40.811Z" fill="#E6E6E6"/>
<path d="M101.464 60.2497C100.459 60.2497 99.4768 59.952 98.6411 59.3941C97.8055 58.8362 97.1541 58.0433 96.7695 57.1156C96.3849 56.1879 96.2843 55.1671 96.4803 54.1822C96.6764 53.1974 97.1604 52.2928 97.8711 51.5827C98.5818 50.8727 99.4872 50.3892 100.473 50.1933C101.459 49.9974 102.481 50.0979 103.409 50.4822C104.338 50.8664 105.131 51.5172 105.69 52.3521C106.248 53.187 106.546 54.1686 106.546 55.1727C106.545 56.5188 106.009 57.8092 105.056 58.761C104.103 59.7128 102.812 60.2482 101.464 60.2497ZM101.464 50.5769C100.555 50.5769 99.6652 50.8464 98.9087 51.3514C98.1522 51.8564 97.5626 52.5742 97.2144 53.414C96.8663 54.2537 96.7752 55.1778 96.9527 56.0693C97.1302 56.9608 97.5683 57.7797 98.2116 58.4225C98.855 59.0652 99.6746 59.5029 100.567 59.6803C101.459 59.8576 102.384 59.7666 103.225 59.4187C104.065 59.0709 104.784 58.4818 105.289 57.726C105.795 56.9703 106.064 56.0817 106.064 55.1727C106.063 53.9542 105.578 52.7861 104.716 51.9245C103.853 51.0629 102.684 50.5782 101.464 50.5769Z" fill="#6C63FF"/>
<path d="M100.985 57.0177C100.876 57.0179 100.77 56.9827 100.683 56.9174L100.677 56.9133L99.5395 56.0439C99.4331 55.9624 99.3634 55.842 99.3458 55.7092C99.3283 55.5763 99.3643 55.442 99.4458 55.3357C99.5274 55.2294 99.6479 55.1598 99.7809 55.1423C99.9138 55.1247 100.048 55.1606 100.155 55.2421L100.892 55.8067L102.633 53.5371C102.673 53.4844 102.724 53.4403 102.781 53.4071C102.839 53.3739 102.902 53.3524 102.968 53.3437C103.034 53.335 103.1 53.3394 103.165 53.3565C103.229 53.3736 103.289 53.4032 103.341 53.4436L103.342 53.4437L103.331 53.4587L103.342 53.4437C103.448 53.5253 103.518 53.6456 103.535 53.7784C103.553 53.9111 103.517 54.0454 103.435 54.1517L101.387 56.8201C101.34 56.8816 101.279 56.9313 101.209 56.9655C101.139 56.9997 101.063 57.0173 100.985 57.0171L100.985 57.0177Z" fill="#6C63FF"/>
<path d="M116.005 60.2497C115 60.2497 114.017 59.952 113.181 59.3941C112.346 58.8362 111.694 58.0433 111.31 57.1156C110.925 56.1879 110.825 55.1671 111.021 54.1822C111.217 53.1974 111.701 52.2928 112.411 51.5827C113.122 50.8727 114.027 50.3892 115.013 50.1933C115.999 49.9974 117.021 50.0979 117.949 50.4822C118.878 50.8664 119.672 51.5172 120.23 52.3521C120.788 53.187 121.086 54.1686 121.086 55.1727C121.085 56.5188 120.549 57.8093 119.596 58.7611C118.644 59.7128 117.352 60.2482 116.005 60.2497ZM116.005 50.5769C115.095 50.5769 114.205 50.8464 113.449 51.3514C112.692 51.8564 112.103 52.5742 111.755 53.414C111.407 54.2537 111.315 55.1778 111.493 56.0693C111.67 56.9608 112.109 57.7797 112.752 58.4225C113.395 59.0652 114.215 59.5029 115.107 59.6803C116 59.8576 116.924 59.7666 117.765 59.4187C118.606 59.0709 119.324 58.4818 119.829 57.726C120.335 56.9703 120.605 56.0817 120.605 55.1727C120.603 53.9542 120.118 52.7861 119.256 51.9245C118.393 51.0629 117.224 50.5782 116.005 50.5769Z" fill="#E6E6E6"/>
<path d="M117.834 56.9292C117.773 56.99 117.69 57.0242 117.604 57.0242C117.517 57.0242 117.435 56.99 117.374 56.9292L116.154 55.7109C116.127 55.6838 116.09 55.6685 116.052 55.6685C116.013 55.6685 115.977 55.6837 115.949 55.7109L114.73 56.9291C114.669 56.9901 114.586 57.0243 114.5 57.0243C114.414 57.0243 114.331 56.9901 114.27 56.9291C114.209 56.8682 114.175 56.7855 114.175 56.6993C114.175 56.6131 114.209 56.5305 114.27 56.4695L115.489 55.2512C115.516 55.2241 115.532 55.1873 115.532 55.1489C115.532 55.1105 115.516 55.0737 115.489 55.0465L114.27 53.8281C114.209 53.7672 114.175 53.6846 114.175 53.5984C114.175 53.5122 114.209 53.4295 114.27 53.3686C114.331 53.3077 114.414 53.2734 114.5 53.2734C114.586 53.2734 114.669 53.3077 114.73 53.3686L115.949 54.587C115.976 54.6141 116.013 54.6293 116.052 54.6293C116.09 54.6293 116.127 54.6141 116.154 54.5869L117.374 53.3686C117.435 53.3077 117.517 53.2735 117.604 53.2735C117.69 53.2735 117.773 53.3077 117.834 53.3686C117.895 53.4296 117.929 53.5123 117.929 53.5985C117.929 53.6847 117.895 53.7673 117.834 53.8283L116.614 55.0465C116.587 55.0737 116.572 55.1106 116.572 55.149C116.572 55.1873 116.587 55.2242 116.614 55.2514L117.834 56.4696C117.895 56.5306 117.929 56.6133 117.929 56.6994C117.929 56.7855 117.895 56.8682 117.834 56.9292Z" fill="#E6E6E6"/>
<path d="M101.464 76.3684C100.459 76.3684 99.4768 76.0706 98.6411 75.5128C97.8055 74.9549 97.1541 74.162 96.7695 73.2343C96.3849 72.3066 96.2843 71.2857 96.4803 70.3009C96.6764 69.3161 97.1604 68.4114 97.8711 67.7014C98.5818 66.9914 99.4872 66.5078 100.473 66.3119C101.459 66.116 102.481 66.2166 103.409 66.6008C104.338 66.9851 105.131 67.6358 105.69 68.4707C106.248 69.3057 106.546 70.2872 106.546 71.2914C106.545 72.6374 106.009 73.9279 105.056 74.8797C104.103 75.8315 102.812 76.3669 101.464 76.3684ZM101.464 66.6955C100.555 66.6955 99.6652 66.9651 98.9087 67.4701C98.1522 67.9751 97.5626 68.6928 97.2144 69.5326C96.8663 70.3724 96.7752 71.2965 96.9527 72.188C97.1302 73.0795 97.5683 73.8984 98.2116 74.5412C98.855 75.1839 99.6746 75.6216 100.567 75.7989C101.459 75.9763 102.384 75.8853 103.225 75.5374C104.065 75.1896 104.784 74.6005 105.289 73.8447C105.795 73.0889 106.064 72.2004 106.064 71.2914C106.063 70.0729 105.578 68.9047 104.716 68.0431C103.853 67.1815 102.684 66.6969 101.464 66.6955Z" fill="#E6E6E6"/>
<path d="M100.985 73.1364C100.876 73.1365 100.77 73.1013 100.683 73.0361L100.677 73.032L99.5395 72.1625C99.4331 72.081 99.3634 71.9606 99.3458 71.8278C99.3283 71.695 99.3643 71.5607 99.4458 71.4543C99.5274 71.348 99.6479 71.2785 99.7809 71.2609C99.9138 71.2434 100.048 71.2793 100.155 71.3608L100.892 71.9254L102.633 69.6557C102.673 69.6031 102.724 69.5589 102.781 69.5258C102.839 69.4926 102.902 69.471 102.968 69.4624C103.034 69.4537 103.1 69.458 103.165 69.4752C103.229 69.4923 103.289 69.5219 103.341 69.5622L103.342 69.5623L103.331 69.5773L103.342 69.5623C103.448 69.6439 103.518 69.7643 103.535 69.897C103.553 70.0298 103.517 70.164 103.435 70.2704L101.387 72.9388C101.34 73.0003 101.279 73.05 101.209 73.0842C101.139 73.1183 101.063 73.136 100.985 73.1358L100.985 73.1364Z" fill="#E6E6E6"/>
<path d="M116.005 76.3684C115 76.3684 114.017 76.0706 113.181 75.5128C112.346 74.9549 111.694 74.162 111.31 73.2343C110.925 72.3066 110.825 71.2857 111.021 70.3009C111.217 69.3161 111.701 68.4114 112.411 67.7014C113.122 66.9914 114.027 66.5078 115.013 66.3119C115.999 66.116 117.021 66.2166 117.949 66.6008C118.878 66.9851 119.672 67.6358 120.23 68.4707C120.788 69.3057 121.086 70.2872 121.086 71.2914C121.085 72.6374 120.549 73.9279 119.596 74.8797C118.644 75.8315 117.352 76.3669 116.005 76.3684ZM116.005 66.6955C115.095 66.6955 114.205 66.9651 113.449 67.4701C112.692 67.9751 112.103 68.6928 111.755 69.5326C111.407 70.3724 111.315 71.2965 111.493 72.188C111.67 73.0795 112.109 73.8984 112.752 74.5412C113.395 75.1839 114.215 75.6216 115.107 75.7989C116 75.9763 116.924 75.8853 117.765 75.5374C118.606 75.1896 119.324 74.6005 119.829 73.8447C120.335 73.0889 120.605 72.2004 120.605 71.2914C120.603 70.0729 120.118 68.9047 119.256 68.0431C118.393 67.1815 117.224 66.6969 116.005 66.6955Z" fill="#E6E6E6"/>
<path d="M117.834 73.0478C117.773 73.1087 117.69 73.1428 117.604 73.1428C117.517 73.1428 117.435 73.1087 117.374 73.0478L116.154 71.8295C116.127 71.8024 116.09 71.7872 116.052 71.7872C116.013 71.7872 115.977 71.8024 115.949 71.8295L114.73 73.0478C114.669 73.1087 114.586 73.143 114.5 73.143C114.414 73.143 114.331 73.1087 114.27 73.0478C114.209 72.9868 114.175 72.9042 114.175 72.818C114.175 72.7318 114.209 72.6491 114.27 72.5882L115.489 71.3699C115.516 71.3427 115.532 71.3059 115.532 71.2675C115.532 71.2291 115.516 71.1923 115.489 71.1651L114.27 69.9468C114.209 69.8859 114.175 69.8032 114.175 69.717C114.175 69.6308 114.209 69.5482 114.27 69.4873C114.331 69.4263 114.414 69.3921 114.5 69.3921C114.586 69.3921 114.669 69.4263 114.73 69.4873L115.949 70.7056C115.976 70.7327 116.013 70.7479 116.052 70.7479C116.09 70.7479 116.127 70.7327 116.154 70.7056L117.374 69.4873C117.435 69.4266 117.517 69.3925 117.604 69.3926C117.69 69.3927 117.772 69.4269 117.833 69.4878C117.894 69.5486 117.928 69.6312 117.928 69.7172C117.929 69.8033 117.894 69.8859 117.834 69.9469L116.614 71.1652C116.587 71.1924 116.572 71.2292 116.572 71.2676C116.572 71.306 116.587 71.3428 116.614 71.37L117.834 72.5883C117.895 72.6493 117.929 72.7319 117.929 72.818C117.929 72.9042 117.895 72.9868 117.834 73.0478Z" fill="#E6E6E6"/>
<path d="M185.748 126.926H89.7781C89.7113 126.926 89.6472 126.899 89.6 126.852C89.5527 126.805 89.5262 126.741 89.5262 126.674C89.5262 126.607 89.5527 126.543 89.6 126.496C89.6472 126.449 89.7113 126.422 89.7781 126.422H185.748C185.815 126.422 185.879 126.449 185.926 126.496C185.973 126.543 186 126.607 186 126.674C186 126.741 185.973 126.805 185.926 126.852C185.879 126.899 185.815 126.926 185.748 126.926Z" fill="#3F3D56"/>
<path d="M103.441 58.2442C103.758 58.4357 104.113 58.5553 104.481 58.5948C104.849 58.6343 105.221 58.5927 105.572 58.4729C105.922 58.353 106.242 58.1579 106.509 57.9012C106.775 57.6446 106.982 57.3326 107.115 56.9873L116.112 57.2865L113.668 53.3018L105.5 53.6286C104.904 53.4438 104.262 53.4837 103.694 53.7407C103.126 53.9977 102.672 54.4539 102.418 55.0228C102.164 55.5918 102.128 56.2339 102.317 56.8277C102.505 57.4214 102.905 57.9254 103.441 58.2443V58.2442Z" fill="#F4F7FA"/>
<path fill-rule="evenodd" clip-rule="evenodd" d="M103.672 57.7996L103.699 57.8163C103.954 57.9699 104.239 58.066 104.534 58.0977C104.83 58.1294 105.129 58.096 105.41 57.9998C105.691 57.9036 105.948 57.747 106.162 57.541C106.376 57.335 106.542 57.0847 106.649 56.8077L106.777 56.4758L115.2 56.7559L113.395 53.8131L105.434 54.1316L105.351 54.1061C104.873 53.9576 104.356 53.9897 103.9 54.1962C103.443 54.4028 103.079 54.7694 102.875 55.2265C102.671 55.6836 102.642 56.1994 102.793 56.6764C102.942 57.1441 103.254 57.5427 103.672 57.7996ZM102.941 57.8549C103.09 58.0039 103.257 58.1349 103.441 58.2442C103.599 58.3398 103.767 58.4175 103.941 58.4762C104.115 58.5352 104.297 58.575 104.481 58.5948C104.849 58.6343 105.221 58.5927 105.572 58.4729C105.922 58.353 106.242 58.1579 106.509 57.9012C106.775 57.6446 106.982 57.3326 107.115 56.9873L116.112 57.2865L113.668 53.3018L105.5 53.6286C104.904 53.4438 104.262 53.4837 103.694 53.7407C103.126 53.9977 102.672 54.4539 102.418 55.0228C102.164 55.5918 102.128 56.2339 102.317 56.8277C102.441 57.2178 102.656 57.5693 102.941 57.8549Z" fill="black"/>
<path d="M154.165 77.7124C154.409 77.4342 154.589 77.1059 154.692 76.7507C154.796 76.3954 154.82 76.0219 154.763 75.6563C154.707 75.2907 154.57 74.942 154.364 74.6347C154.158 74.3274 153.887 74.069 153.57 73.8778L155.44 65.0811L151.085 66.787L149.977 74.879C149.691 75.4323 149.617 76.0713 149.771 76.6749C149.925 77.2785 150.295 77.8049 150.811 78.1541C151.327 78.5034 151.954 78.6513 152.572 78.5699C153.19 78.4885 153.757 78.1834 154.165 77.7124Z" fill="#F4F7FA"/>
<path fill-rule="evenodd" clip-rule="evenodd" d="M153.007 74.122L154.758 65.8853L151.541 67.1455L150.46 75.0322L150.421 75.1087C150.191 75.5533 150.132 76.0666 150.256 76.5515C150.379 77.0364 150.676 77.4593 151.091 77.74C151.506 78.0207 152.01 78.1396 152.507 78.0742C153.004 78.0087 153.459 77.7635 153.787 77.385L154.165 77.7124C153.757 78.1834 153.19 78.4885 152.572 78.5699C151.954 78.6513 151.327 78.5034 150.811 78.1541C150.295 77.8049 149.925 77.2785 149.771 76.6749C149.617 76.0713 149.691 75.4323 149.977 74.879L151.085 66.787L155.44 65.0811L153.57 73.8778C153.887 74.069 154.158 74.3274 154.364 74.6347C154.57 74.942 154.707 75.2907 154.763 75.6563C154.82 76.0219 154.796 76.3954 154.692 76.7507C154.589 77.1059 154.409 77.4342 154.165 77.7124L153.789 77.3826C153.985 77.1593 154.129 76.8959 154.212 76.6109C154.295 76.3259 154.315 76.0262 154.269 75.7329C154.224 75.4396 154.114 75.1599 153.949 74.9133C153.783 74.6667 153.566 74.4594 153.311 74.3059L153.007 74.122Z" fill="black"/>
<path d="M133.091 123.558L130.003 123.558L128.534 111.657L133.091 111.657L133.091 123.558Z" fill="#F4F7FA"/>
<path fill-rule="evenodd" clip-rule="evenodd" d="M133.091 123.558L130.003 123.558L128.534 111.657L133.091 111.657L133.091 123.558ZM132.591 112.157L129.099 112.157L130.445 123.058L132.591 123.058L132.591 112.157Z" fill="black"/>
<path d="M133.878 126.549L123.921 126.549V126.423C123.921 125.914 124.021 125.411 124.216 124.941C124.411 124.471 124.696 124.044 125.056 123.685C125.416 123.325 125.843 123.04 126.313 122.846C126.784 122.651 127.288 122.551 127.797 122.551H127.797L133.878 122.551L133.878 126.549Z" fill="#F4F7FA"/>
<path fill-rule="evenodd" clip-rule="evenodd" d="M127.797 122.551C127.288 122.551 126.784 122.651 126.313 122.846C125.843 123.04 125.416 123.325 125.056 123.685C124.696 124.044 124.411 124.471 124.216 124.941C124.069 125.295 123.976 125.669 123.939 126.049C123.927 126.171 123.921 126.293 123.921 126.417C123.921 126.419 123.921 126.421 123.921 126.423V126.549L133.878 126.549L133.878 122.551L127.797 122.551ZM127.797 123.051C127.353 123.051 126.914 123.138 126.505 123.308C126.095 123.477 125.723 123.725 125.409 124.039C125.096 124.352 124.847 124.723 124.678 125.133C124.556 125.426 124.477 125.734 124.442 126.049L133.378 126.049L133.378 123.051L127.797 123.051Z" fill="black"/>
<path d="M148.204 123.558L145.116 123.558L143.647 111.657L148.205 111.657L148.204 123.558Z" fill="#F4F7FA"/>
<path fill-rule="evenodd" clip-rule="evenodd" d="M148.204 123.558L145.116 123.558L143.647 111.657L148.205 111.657L148.204 123.558ZM147.705 112.157L144.212 112.157L145.558 123.058L147.704 123.058L147.705 112.157Z" fill="black"/>
<path d="M148.992 126.549L139.034 126.549V126.423C139.034 125.914 139.135 125.411 139.329 124.941C139.524 124.471 139.81 124.044 140.169 123.685C140.529 123.325 140.957 123.04 141.427 122.846C141.897 122.651 142.401 122.551 142.91 122.551H142.91L148.992 122.551L148.992 126.549Z" fill="#F4F7FA"/>
<path fill-rule="evenodd" clip-rule="evenodd" d="M142.91 122.551C142.401 122.551 141.897 122.651 141.427 122.846C140.957 123.04 140.529 123.325 140.169 123.685C139.81 124.044 139.524 124.471 139.329 124.941C139.182 125.295 139.089 125.669 139.052 126.049C139.041 126.171 139.035 126.293 139.034 126.417C139.034 126.419 139.034 126.421 139.034 126.423V126.549L148.992 126.549L148.992 122.551L142.91 122.551ZM142.91 123.051C142.467 123.051 142.028 123.138 141.618 123.308C141.208 123.477 140.836 123.725 140.523 124.039C140.209 124.352 139.961 124.723 139.791 125.133C139.67 125.426 139.59 125.734 139.555 126.049L148.492 126.049L148.492 123.051L142.91 123.051Z" fill="black"/>
<path d="M133.412 117.344L129.041 117.169C128.743 117.156 128.462 117.027 128.258 116.809C128.055 116.59 127.945 116.301 127.953 116.003L129.185 75.6422L129.265 75.6132C136.927 72.8442 143.265 73.0536 148.642 76.2524L148.702 76.2883L149.44 115.598C149.443 115.748 149.416 115.898 149.36 116.038C149.304 116.178 149.221 116.305 149.116 116.413C149.01 116.52 148.884 116.605 148.746 116.664C148.607 116.722 148.457 116.752 148.307 116.752H144.621C144.358 116.751 144.104 116.66 143.901 116.493C143.698 116.327 143.559 116.095 143.508 115.838L138.487 90.3173C138.47 90.2291 138.421 90.15 138.351 90.0942C138.28 90.0384 138.192 90.0095 138.102 90.0128C138.012 90.0161 137.927 90.0514 137.86 90.1123C137.794 90.1732 137.752 90.2556 137.741 90.3449L134.583 116.349C134.548 116.623 134.415 116.875 134.208 117.058C134.001 117.242 133.734 117.343 133.457 117.345C133.442 117.345 133.427 117.344 133.412 117.344Z" fill="#F4F7FA"/>
<path fill-rule="evenodd" clip-rule="evenodd" d="M129.265 75.6133L129.185 75.6423L127.953 116.003C127.945 116.301 128.055 116.591 128.258 116.809C128.462 117.027 128.743 117.156 129.041 117.169L133.412 117.344C133.427 117.344 133.442 117.345 133.457 117.345C133.734 117.343 134.001 117.242 134.208 117.059C134.415 116.875 134.548 116.623 134.583 116.349L137.741 90.3449C137.752 90.2557 137.794 90.1732 137.86 90.1123C137.927 90.0515 138.012 90.0162 138.102 90.0129C138.192 90.0096 138.28 90.0384 138.351 90.0942C138.421 90.1501 138.47 90.2292 138.487 90.3174L143.508 115.838C143.559 116.095 143.698 116.327 143.901 116.494C144.104 116.66 144.358 116.751 144.621 116.752H148.307C148.457 116.752 148.607 116.722 148.746 116.664C148.884 116.605 149.01 116.52 149.116 116.413C149.221 116.305 149.304 116.178 149.36 116.038C149.416 115.898 149.443 115.749 149.44 115.598M143.999 115.741C144.027 115.885 144.105 116.014 144.218 116.107C144.332 116.2 144.474 116.252 144.622 116.252H144.621V116.751L144.622 116.252H148.307C148.391 116.252 148.475 116.235 148.552 116.203C148.63 116.17 148.7 116.122 148.759 116.062C148.818 116.002 148.864 115.931 148.896 115.853C148.927 115.775 148.942 115.692 148.94 115.608L148.94 115.607L148.208 76.5771C148.267 76.6117 148.327 76.6466 148.386 76.6819M148.62 76.2899L148.202 76.2978L148.208 76.5771C143.089 73.6088 137.046 73.3846 129.674 75.998L128.453 116.017C128.453 116.017 128.453 116.017 128.453 116.017C128.449 116.184 128.51 116.346 128.624 116.468C128.738 116.59 128.895 116.662 129.062 116.67C129.062 116.67 129.062 116.67 129.062 116.67L133.429 116.844C133.429 116.844 133.43 116.844 133.43 116.844C133.439 116.845 133.448 116.845 133.456 116.845C133.611 116.844 133.76 116.787 133.876 116.684C133.992 116.581 134.067 116.44 134.087 116.287C134.087 116.287 134.087 116.286 134.087 116.286L137.245 90.2851M143.999 115.74L138.978 90.221ZM148.62 76.2899L148.642 76.2525L148.62 76.2899M148.387 76.6822L148.446 76.7178L148.702 76.2884L148.62 76.2899" fill="black"/>
<path d="M137.665 40.2468C141.082 40.2468 143.852 37.4795 143.852 34.0658C143.852 30.6521 141.082 27.8848 137.665 27.8848C134.249 27.8848 131.479 30.6521 131.479 34.0658C131.479 37.4795 134.249 40.2468 137.665 40.2468Z" fill="#F4F7FA"/>
<path fill-rule="evenodd" clip-rule="evenodd" d="M137.665 39.7468C140.806 39.7468 143.352 37.2029 143.352 34.0658C143.352 30.9287 140.806 28.3848 137.665 28.3848C134.524 28.3848 131.979 30.9287 131.979 34.0658C131.979 37.2029 134.524 39.7468 137.665 39.7468ZM143.852 34.0658C143.852 37.4795 141.082 40.2468 137.665 40.2468C134.249 40.2468 131.479 37.4795 131.479 34.0658C131.479 30.6521 134.249 27.8848 137.665 27.8848C141.082 27.8848 143.852 30.6521 143.852 34.0658Z" fill="black"/>
<path d="M108.58 56.7835C108.511 56.5635 108.511 56.3277 108.58 56.1077L109.221 54.0558C109.291 53.8338 109.427 53.6386 109.612 53.4966C109.796 53.3546 110.02 53.2727 110.253 53.2619L118.37 52.9034L131.538 46.1593C131.995 46.0134 132.477 45.959 132.955 45.9991C133.433 46.0393 133.899 46.1733 134.325 46.3934C134.752 46.6135 135.13 46.9154 135.44 47.2818C135.749 47.6483 135.984 48.0722 136.129 48.5291C136.274 48.9861 136.328 49.4672 136.287 49.945C136.247 50.4227 136.112 50.8878 135.891 51.3135C135.67 51.7392 135.367 52.1172 135 52.4259C134.633 52.7347 134.208 52.968 133.751 53.1127L125.681 57.7893C123.232 59.209 120.35 59.6916 117.571 59.1473L109.444 57.5565C109.288 57.5258 109.14 57.4626 109.01 57.371C108.879 57.2795 108.77 57.1615 108.688 57.0249C108.643 56.949 108.607 56.8679 108.58 56.7835Z" fill="#F4F7FA"/>
<path fill-rule="evenodd" clip-rule="evenodd" d="M109.058 56.6346C109.072 56.6814 109.092 56.7263 109.117 56.7683C109.163 56.8446 109.224 56.9108 109.297 56.9621C109.37 57.0133 109.453 57.0487 109.54 57.0658L117.667 58.6566C120.327 59.1776 123.086 58.7156 125.43 57.3567L133.548 52.6525L133.6 52.636C133.995 52.5111 134.361 52.3097 134.678 52.0432C134.995 51.7768 135.257 51.4505 135.447 51.0832C135.638 50.7159 135.754 50.3146 135.789 49.9024C135.824 49.4902 135.778 49.0751 135.653 48.6808C135.527 48.2865 135.325 47.9207 135.058 47.6045C134.791 47.2882 134.464 47.0276 134.096 46.8377C133.728 46.6477 133.326 46.5321 132.913 46.4974C132.513 46.4638 132.111 46.5068 131.728 46.6238L118.501 53.3981L110.276 53.7614C110.276 53.7614 110.276 53.7614 110.276 53.7614C110.146 53.7675 110.02 53.8135 109.917 53.8929C109.814 53.9723 109.737 54.0814 109.698 54.2055C109.698 54.2056 109.698 54.2053 109.698 54.2055L109.057 56.2565M110.253 53.2619C110.02 53.2727 109.796 53.3546 109.612 53.4966C109.427 53.6386 109.291 53.8338 109.221 54.0558L108.58 56.1077C108.511 56.3277 108.511 56.5635 108.58 56.7835C108.607 56.8679 108.643 56.949 108.688 57.0249C108.77 57.1615 108.879 57.2795 109.01 57.371C109.14 57.4626 109.288 57.5258 109.444 57.5565L117.571 59.1473C120.35 59.6916 123.232 59.209 125.681 57.7893L133.751 53.1127C134.208 52.968 134.633 52.7347 135 52.4259C135.367 52.1172 135.67 51.7392 135.891 51.3135C136.112 50.8878 136.247 50.4227 136.287 49.945C136.328 49.4672 136.274 48.9861 136.129 48.5291C135.984 48.0722 135.749 47.6483 135.44 47.2818C135.13 46.9154 134.752 46.6135 134.325 46.3934C133.899 46.1733 133.433 46.0393 132.955 45.9991C132.477 45.959 131.995 46.0134 131.538 46.1593L118.37 52.9034L110.253 53.2619ZM109.058 56.6346C109.019 56.5118 109.019 56.3794 109.057 56.2565Z" fill="black"/>
<path d="M153.901 72.0174C153.684 72.0955 153.448 72.1057 153.225 72.0466L151.146 71.4942C150.921 71.4338 150.72 71.3059 150.57 71.1278C150.42 70.9496 150.329 70.7297 150.308 70.4979L149.603 62.4113L142.298 49.5544C142.133 49.1042 142.058 48.626 142.078 48.1469C142.098 47.6679 142.212 47.1974 142.414 46.7625C142.616 46.3275 142.901 45.9366 143.255 45.6121C143.608 45.2876 144.022 45.0358 144.473 44.8712C144.923 44.7066 145.402 44.6323 145.882 44.6527C146.361 44.6731 146.832 44.7877 147.267 44.99C147.702 45.1923 148.093 45.4783 148.417 45.8317C148.742 46.185 148.993 46.5988 149.157 47.0493L154.178 54.9054C155.702 57.2895 156.307 60.1456 155.881 62.9423L154.637 71.1223C154.613 71.2796 154.556 71.4301 154.47 71.5639C154.384 71.6978 154.271 71.8121 154.138 71.8993C154.064 71.9479 153.984 71.9875 153.901 72.0174Z" fill="#F4F7FA"/>
<path fill-rule="evenodd" clip-rule="evenodd" d="M149.603 62.4113L150.308 70.4979C150.329 70.7297 150.42 70.9496 150.57 71.1278C150.72 71.3059 150.921 71.4338 151.146 71.4942L153.225 72.0466C153.448 72.1057 153.684 72.0955 153.901 72.0174C153.984 71.9875 154.064 71.9479 154.138 71.8993C154.271 71.8121 154.384 71.6978 154.47 71.5639C154.556 71.4301 154.613 71.2796 154.637 71.1223L155.881 62.9423C156.307 60.1456 155.702 57.2895 154.178 54.9054L149.157 47.0493C148.993 46.5988 148.742 46.185 148.417 45.8317C148.093 45.4783 147.702 45.1923 147.267 44.99C146.832 44.7877 146.361 44.6731 145.882 44.6527C145.402 44.6323 144.923 44.7066 144.473 44.8712C144.022 45.0358 143.608 45.2876 143.255 45.6121C142.901 45.9366 142.616 46.3275 142.414 46.7625C142.212 47.1974 142.098 47.6679 142.078 48.1469C142.058 48.626 142.133 49.1042 142.298 49.5544L149.603 62.4113ZM142.754 49.3446C142.621 48.9671 142.561 48.5677 142.577 48.1676C142.594 47.7543 142.693 47.3483 142.867 46.973C143.041 46.5977 143.288 46.2604 143.593 45.9803C143.898 45.7002 144.255 45.4829 144.644 45.3408C145.033 45.1987 145.446 45.1347 145.86 45.1523C146.274 45.1699 146.681 45.2688 147.056 45.4434C147.432 45.618 147.769 45.8649 148.049 46.1698C148.329 46.4747 148.546 46.8318 148.688 47.2205L148.706 47.2722L153.757 55.1746C155.215 57.4566 155.795 60.1902 155.387 62.867L154.143 71.0469C154.143 71.0469 154.143 71.0469 154.143 71.0469C154.129 71.1347 154.097 71.2188 154.049 71.2936C154.001 71.3684 153.938 71.4323 153.864 71.4811C153.823 71.508 153.778 71.5302 153.732 71.5468C153.61 71.5905 153.478 71.5964 153.353 71.5633M153.353 71.5633L151.275 71.0113C151.275 71.0113 151.275 71.0112 151.275 71.0113C151.149 70.9774 151.036 70.9057 150.953 70.8059C150.869 70.7063 150.818 70.5835 150.806 70.454C150.806 70.4542 150.806 70.4538 150.806 70.454L150.092 62.2592L142.754 49.3446" fill="black"/>
<path d="M130.898 45.0427C131.961 43.8784 133.272 42.9674 134.734 42.3767C136.196 41.7861 137.772 41.531 139.346 41.6303C139.449 41.6367 139.552 41.6439 139.655 41.6519H139.655C141.147 41.7697 142.596 42.2044 143.906 42.9269C145.217 43.6493 146.357 44.6429 147.252 45.8411C148.162 47.0561 148.802 48.4512 149.129 49.933C149.455 51.4149 149.462 52.9494 149.148 54.4339C147.948 60.1073 148.252 65.9953 150.028 71.5155L151.688 76.6642C151.741 76.8292 151.756 77.0042 151.731 77.1757C151.705 77.3472 151.641 77.5106 151.543 77.6534C151.444 77.7962 151.315 77.9145 151.163 77.9992C151.012 78.0839 150.843 78.1327 150.67 78.142L142.185 78.5977L140.014 74.8506V78.7144L129.701 79.2683C129.68 79.2695 129.66 79.27 129.64 79.27C129.483 79.27 129.328 79.2375 129.185 79.1748C129.042 79.112 128.913 79.0203 128.807 78.9054C128.701 78.7904 128.62 78.6548 128.569 78.507C128.518 78.3592 128.498 78.2025 128.51 78.0466L129.676 63.606L128.214 53.7981C127.977 52.2311 128.096 50.6309 128.56 49.1156C129.025 47.6003 129.824 46.2084 130.898 45.0427Z" fill="#F4F7FA"/>
<path fill-rule="evenodd" clip-rule="evenodd" d="M139.315 42.1293C137.815 42.0348 136.314 42.2778 134.921 42.8403C133.528 43.4029 132.28 44.2708 131.268 45.3797L130.898 45.0427C131.961 43.8784 133.272 42.9674 134.734 42.3767C136.196 41.7861 137.772 41.531 139.346 41.6303C139.449 41.6367 139.552 41.6439 139.655 41.6519C141.147 41.7697 142.596 42.2044 143.906 42.9269C145.217 43.6493 146.357 44.6429 147.252 45.8411C148.162 47.0561 148.802 48.4512 149.129 49.933C149.455 51.4149 149.462 52.9494 149.148 54.4339C147.948 60.1073 148.252 65.9953 150.028 71.5155L151.688 76.6642C151.741 76.8292 151.756 77.0042 151.731 77.1757C151.705 77.3472 151.641 77.5106 151.543 77.6534C151.444 77.7962 151.315 77.9145 151.163 77.9992C151.012 78.0839 150.843 78.1327 150.67 78.142L142.185 78.5977L140.014 74.8506V78.7144L129.701 79.2683C129.68 79.2695 129.66 79.27 129.64 79.27C129.483 79.27 129.328 79.2375 129.185 79.1748C129.042 79.112 128.913 79.0203 128.807 78.9054C128.701 78.7904 128.62 78.6548 128.569 78.507C128.518 78.3592 128.498 78.2025 128.51 78.0466L129.676 63.606L128.214 53.7981C127.977 52.2311 128.096 50.6309 128.56 49.1156C129.025 47.6003 129.824 46.2084 130.898 45.0427L131.266 45.3815C130.242 46.4923 129.481 47.8184 129.038 49.2622C128.596 50.7059 128.483 52.2304 128.708 53.7235L130.179 63.589L129.009 78.0868C129.009 78.0868 129.009 78.0868 129.009 78.0868C129.002 78.1738 129.013 78.2613 129.041 78.3438C129.07 78.4262 129.115 78.502 129.174 78.5662C129.234 78.6304 129.306 78.6817 129.386 78.7168C129.466 78.7518 129.552 78.77 129.64 78.77M139.514 78.2405V72.9905L142.464 78.082L150.643 77.6427C150.74 77.6375 150.834 77.6102 150.919 77.5629C151.004 77.5155 151.076 77.4494 151.131 77.3697C151.186 77.29 151.222 77.1988 151.236 77.1031C151.25 77.0074 151.242 76.9098 151.212 76.8177L149.552 71.6689C147.749 66.0658 147.441 60.0891 148.658 54.3305C148.958 52.9156 148.952 51.453 148.64 50.0407C148.329 48.6285 147.719 47.2989 146.852 46.1408C146 44.9996 144.913 44.0528 143.665 43.3647C142.42 42.6781 141.043 42.2643 139.625 42.1511L139.616 42.1504C139.516 42.1426 139.415 42.1355 139.315 42.1293M139.514 78.2405L129.674 78.769L129.671 78.7692C129.662 78.7697 129.652 78.77 129.64 78.77" fill="black"/>
<path d="M141.965 39.9667C141.392 40.296 139.128 40.5143 138.967 39.874L138.963 39.86C138.851 39.3908 138.944 38.901 138.976 38.4197C139.009 37.9384 138.962 37.4097 138.633 37.0559C138.022 36.3962 136.934 36.7459 136.049 36.5791C135.531 36.4636 135.073 36.1635 134.761 35.7349C134.448 35.3062 134.303 34.7786 134.352 34.2505C134.364 34.1505 134.384 34.0504 134.406 33.9503C134.462 33.6967 134.457 33.4337 134.394 33.1821C134.33 32.9304 134.209 32.6969 134.04 32.4999C133.871 32.3028 133.659 32.1476 133.419 32.0464C133.18 31.9452 132.921 31.9007 132.661 31.9165C131.768 31.9676 130.803 32.2381 130.064 31.5768C129.492 31.0653 129.352 29.734 129.603 29.0095C130.026 27.7919 132.73 27.1545 133.911 26.8041C135.372 26.3825 136.908 26.2913 138.408 26.5372C139.908 26.7832 141.335 27.36 142.584 28.2258C143.33 28.7511 144.026 29.4111 144.344 30.2657C144.662 31.1203 144.509 32.1985 143.792 32.7627C144.348 33.3505 144.739 34.0739 144.927 34.8603C145.114 35.6468 145.092 36.4688 144.862 37.2438C144.507 38.3837 142.818 39.4766 141.965 39.9667Z" fill="#7247FF"/>
<path d="M56.58 40.2838H16.9675C16.457 40.2832 15.9676 40.0802 15.6068 39.7193C15.246 39.3584 15.0434 38.8692 15.0434 38.3592C15.0434 37.8491 15.246 37.3599 15.6068 36.9991C15.9676 36.6382 16.457 36.4352 16.9675 36.4346H56.58C57.0905 36.4352 57.5799 36.6382 57.9407 36.9991C58.3015 37.3599 58.5041 37.8491 58.5041 38.3592C58.5041 38.8692 58.3015 39.3584 57.9407 39.7193C57.5799 40.0802 57.0905 40.2832 56.58 40.2838Z" fill="#6C63FF"/>
<path d="M56.58 40.2838H16.9675C16.457 40.2832 15.9676 40.0802 15.6068 39.7193C15.246 39.3584 15.0434 38.8692 15.0434 38.3592C15.0434 37.8491 15.246 37.3599 15.6068 36.9991C15.9676 36.6382 16.457 36.4352 16.9675 36.4346H56.58C57.0905 36.4352 57.5799 36.6382 57.9407 36.9991C58.3015 37.3599 58.5041 37.8491 58.5041 38.3592C58.5041 38.8692 58.3015 39.3584 57.9407 39.7193C57.5799 40.0802 57.0905 40.2832 56.58 40.2838Z" fill="url(#paint0_linear)"/>
<path d="M81.0362 41.9252H13.0259C12.9591 41.9252 12.895 41.8987 12.8478 41.8515C12.8006 41.8043 12.774 41.7403 12.774 41.6735C12.774 41.6068 12.8006 41.5428 12.8478 41.4956C12.895 41.4484 12.9591 41.4219 13.0259 41.4219H81.0362C81.103 41.4219 81.1671 41.4484 81.2143 41.4956C81.2615 41.5428 81.2881 41.6068 81.2881 41.6735C81.2881 41.7403 81.2615 41.8043 81.2143 41.8515C81.1671 41.8987 81.103 41.9252 81.0362 41.9252Z" fill="#3F3D56"/>
<path d="M56.58 56.4024H16.9675C16.4566 56.4024 15.9666 56.1997 15.6054 55.8387C15.2441 55.4778 15.0411 54.9883 15.0411 54.4778C15.0411 53.9674 15.2441 53.4779 15.6054 53.1169C15.9666 52.756 16.4566 52.5532 16.9675 52.5532H56.58C57.0905 52.5538 57.5799 52.7568 57.9407 53.1177C58.3015 53.4786 58.5041 53.9678 58.5041 54.4778C58.5041 54.9879 58.3015 55.4771 57.9407 55.838C57.5799 56.1988 57.0905 56.4019 56.58 56.4024Z" fill="#6C63FF"/>
<path d="M56.58 56.4024H16.9675C16.4566 56.4024 15.9666 56.1997 15.6054 55.8387C15.2441 55.4778 15.0411 54.9883 15.0411 54.4778C15.0411 53.9674 15.2441 53.4779 15.6054 53.1169C15.9666 52.756 16.4566 52.5532 16.9675 52.5532H56.58C57.0905 52.5538 57.5799 52.7568 57.9407 53.1177C58.3015 53.4786 58.5041 53.9678 58.5041 54.4778C58.5041 54.9879 58.3015 55.4771 57.9407 55.838C57.5799 56.1988 57.0905 56.4019 56.58 56.4024Z" fill="url(#paint1_linear)"/>
<path d="M81.0362 58.0438H13.0259C12.9591 58.0438 12.895 58.0173 12.8478 57.9701C12.8006 57.9229 12.774 57.8589 12.774 57.7922C12.774 57.7254 12.8006 57.6614 12.8478 57.6142C12.895 57.567 12.9591 57.5405 13.0259 57.5405H81.0362C81.103 57.5405 81.1671 57.567 81.2143 57.6142C81.2615 57.6614 81.2881 57.7254 81.2881 57.7922C81.2881 57.8589 81.2615 57.9229 81.2143 57.9701C81.1671 58.0173 81.103 58.0438 81.0362 58.0438Z" fill="#3F3D56"/>
<path d="M56.58 72.5211H16.9675C16.4566 72.5211 15.9666 72.3183 15.6054 71.9574C15.2441 71.5965 15.0411 71.1069 15.0411 70.5965C15.0411 70.086 15.2441 69.5965 15.6054 69.2356C15.9666 68.8746 16.4566 68.6719 16.9675 68.6719H56.58C57.0905 68.6725 57.5799 68.8755 57.9407 69.2364C58.3015 69.5972 58.5041 70.0864 58.5041 70.5965C58.5041 71.1065 58.3015 71.5957 57.9407 71.9566C57.5799 72.3175 57.0905 72.5205 56.58 72.5211Z" fill="#F2F2F2"/>
<path d="M81.0362 74.1625H13.0259C12.9591 74.1625 12.895 74.136 12.8478 74.0888C12.8006 74.0416 12.774 73.9776 12.774 73.9108C12.774 73.8441 12.8006 73.7801 12.8478 73.7329C12.895 73.6857 12.9591 73.6592 13.0259 73.6592H81.0362C81.103 73.6592 81.1671 73.6857 81.2143 73.7329C81.2615 73.7801 81.2881 73.8441 81.2881 73.9108C81.2881 73.9776 81.2615 74.0416 81.2143 74.0888C81.1671 74.136 81.103 74.1625 81.0362 74.1625Z" fill="#3F3D56"/>
</g>
<defs>
<linearGradient id="paint0_linear" x1="14.8089" y1="36.6232" x2="59.8265" y2="40.1872" gradientUnits="userSpaceOnUse">
<stop stop-color="#4614E8"/>
<stop offset="1" stop-color="#BCA7FF"/>
</linearGradient>
<linearGradient id="paint1_linear" x1="14.8067" y1="52.7419" x2="59.8265" y2="56.3062" gradientUnits="userSpaceOnUse">
<stop stop-color="#4614E8"/>
<stop offset="1" stop-color="#BCA7FF"/>
</linearGradient>
<clipPath id="clip0">
<rect width="186" height="127" fill="white"/>
</clipPath>
</defs>
</svg>
