<svg width="219" height="106" viewBox="0 0 219 106" fill="none" xmlns="http://www.w3.org/2000/svg">
<g clip-path="url(#clip0)">
<path d="M29.796 84.7473H194.5V1.35889H29.796V84.7473Z" fill="white"/>
<path d="M195.859 86.1061H28.4374V0H195.859V86.1061ZM31.1547 83.3885H193.142V2.71758H31.1547V83.3885Z" fill="#E5E5E5"/>
<path d="M101.667 19C104.429 19 106.667 21.2386 106.667 24V42.303C106.667 45.0644 104.429 47.303 101.667 47.303H65.528L57.9278 56.4229L58.7956 47.303C56.7532 47.303 55.0976 45.6473 55.0976 43.6049V24C55.0976 21.2386 57.3361 19 60.0976 19H101.667Z" fill="url(#paint0_linear)"/>
<path d="M131.564 20.6792V38.8259H157.94L162.813 44.673L162.257 38.8259H164.628V20.6792H131.564Z" fill="#F0F0F0"/>
<path d="M22.7059 103.323H25.0856L26.2178 94.1436H22.7057L22.7059 103.323Z" fill="#F4F7FA"/>
<path fill-rule="evenodd" clip-rule="evenodd" d="M24.6435 102.823L25.6524 94.6436H23.2057L23.2059 102.823H24.6435ZM22.7057 94.1436H26.2178L25.0856 103.323H22.7059L22.7057 94.1436Z" fill="black"/>
<path d="M22.099 102.547L26.7855 102.546H26.7857C27.5778 102.546 28.3374 102.861 28.8975 103.421C29.4576 103.981 29.7723 104.741 29.7723 105.533V105.63L22.0991 105.631L22.099 102.547Z" fill="#F4F7FA"/>
<path fill-rule="evenodd" clip-rule="evenodd" d="M22.099 102.547L26.7855 102.546C27.5776 102.546 28.3374 102.861 28.8975 103.421C29.3617 103.886 29.6574 104.487 29.745 105.13C29.7629 105.262 29.7721 105.395 29.7723 105.529C29.7723 105.53 29.7723 105.532 29.7723 105.533V105.63L22.0991 105.631L22.099 102.547ZM22.5991 105.131L29.2394 105.13C29.1556 104.62 28.9142 104.145 28.5439 103.775C28.0776 103.308 27.4452 103.046 26.7857 103.046C26.7857 103.046 26.7857 103.046 26.7857 103.046L22.599 103.047L22.5991 105.131Z" fill="black"/>
<path d="M51.2964 103.245L53.6073 102.676L52.5133 93.4922L49.1028 94.3316L51.2964 103.245Z" fill="#F4F7FA"/>
<path fill-rule="evenodd" clip-rule="evenodd" d="M53.0585 102.297L51.6624 102.64L49.7078 94.6976L52.0837 94.1128L53.0585 102.297ZM52.5133 93.4922L53.6073 102.676L51.2964 103.245L49.1028 94.3316L52.5133 93.4922Z" fill="black"/>
<path d="M50.5213 102.636L55.0721 101.516L55.0722 101.516C55.8414 101.326 56.6542 101.451 57.3319 101.861C58.0096 102.271 58.4966 102.933 58.686 103.702L58.7091 103.797L51.2583 105.63L50.5213 102.636Z" fill="#F4F7FA"/>
<path fill-rule="evenodd" clip-rule="evenodd" d="M55.0721 101.516L50.5213 102.636L51.2583 105.63L58.7091 103.797L58.686 103.702C58.6854 103.7 58.6849 103.698 58.6844 103.696C58.6523 103.567 58.6117 103.44 58.5632 103.318C58.3244 102.714 57.8936 102.2 57.3319 101.861C56.6542 101.45 55.8412 101.326 55.0721 101.516ZM58.0722 103.438C57.869 102.963 57.521 102.559 57.073 102.288C56.5088 101.947 55.8321 101.844 55.1917 102.001L51.1263 103.002L51.6243 105.025L58.0722 103.438Z" fill="black"/>
<path d="M21.2426 101.135L21.7369 98.6054C21.7369 98.6054 22.6469 88.8387 29.1774 79.0914L31.3031 68.5029C31.3031 68.5029 30.6718 60.4881 36.7649 56.1496L38.6434 54.8555L45.2295 55.233L46.7506 63.5616L49.8155 83.268C49.8155 83.268 50.6065 83.3421 50.9031 85.621C51.5059 86.578 51.8626 87.6693 51.9412 88.7976C51.9412 88.7976 53.5098 93.1251 53.9299 96.3113L53.8805 99.429L50.5684 101.194L43.6652 81.6692L38.7277 70.7537C38.7277 70.7537 36.3513 78.4443 32.7113 85.0327C32.7113 85.0327 27.7258 95.8247 26.7298 98.0172L25.6422 101.606L21.2426 101.135Z" fill="#F4F7FA"/>
<path fill-rule="evenodd" clip-rule="evenodd" d="M21.7369 98.6054L21.2426 101.135L25.6422 101.606L26.7298 98.0172C27.7258 95.8247 32.7113 85.0327 32.7113 85.0327C35.6903 79.6408 37.8229 73.5105 38.4993 71.4619C38.6493 71.0074 38.7277 70.7537 38.7277 70.7537L43.6652 81.6692L50.5684 101.194L53.8805 99.429L53.9299 96.3113C53.5098 93.1251 51.9412 88.7976 51.9412 88.7976C51.8626 87.6693 51.5059 86.578 50.9031 85.621C50.6065 83.3421 49.8155 83.268 49.8155 83.268L46.7506 63.5616L45.2295 55.233L38.6434 54.8555L36.7649 56.1496C30.6718 60.4881 31.3031 68.5029 31.3031 68.5029L29.1774 79.0914C22.6469 88.8387 21.7369 98.6054 21.7369 98.6054ZM31.8016 68.4637L31.807 68.533L29.6481 79.2872L29.5928 79.3697C26.3638 84.1893 24.5226 89.0168 23.4891 92.6408C22.9725 94.452 22.6584 95.9604 22.4736 97.0135C22.3813 97.54 22.3213 97.9525 22.2845 98.232C22.2661 98.3717 22.2536 98.4781 22.2456 98.5489C22.2417 98.5843 22.2389 98.6108 22.2371 98.628L22.2352 98.6469L22.2348 98.6512L22.2324 98.6768L21.8379 100.696L25.2838 101.064L26.2609 97.8405L26.2746 97.8104C26.7733 96.7125 28.2695 93.4646 29.64 90.4933C30.3255 89.0072 30.9799 87.5897 31.4628 86.5436L32.2572 84.8235C32.2572 84.8235 32.2574 84.8231 32.7113 85.0327L32.2572 84.8235L32.265 84.8067L32.2737 84.791C34.078 81.5252 35.5726 77.9792 36.6174 75.2442C37.1394 73.8779 37.5481 72.7167 37.8261 71.8976C37.965 71.4882 38.0713 71.1644 38.1427 70.9434C38.1784 70.8329 38.2054 70.7481 38.2233 70.6912L38.2435 70.6269L38.2485 70.611L38.6395 69.3456L44.1295 81.4824L50.8461 100.479L53.3852 99.1263L53.4294 96.3405C53.2219 94.7957 52.7383 92.9654 52.2992 91.5034C52.0788 90.7698 51.8713 90.1347 51.7191 89.6833C51.6685 89.5333 51.624 89.4037 51.5873 89.2976H51.4749L51.4424 88.8323C51.3695 87.7863 51.0389 86.7746 50.4801 85.8875L50.4215 85.7945L50.4073 85.6855C50.2651 84.5935 50.0127 84.1027 49.8527 83.896C49.7876 83.8118 49.738 83.7748 49.7159 83.7608L49.3813 83.7295L46.2576 63.6449L44.8083 55.7097L38.7859 55.3645L37.0518 56.5591C34.1394 58.6343 32.8224 61.5945 32.2356 64.0685C31.9425 65.3043 31.8342 66.4095 31.7992 67.2047C31.7817 67.6019 31.7826 67.9207 31.7878 68.1382C31.7903 68.247 31.7939 68.3304 31.7968 68.3856C31.7983 68.4132 31.7995 68.4337 31.8004 68.4469L31.8014 68.4609L31.8016 68.4637Z" fill="black"/>
<path d="M43.2635 38.0965C45.8634 38.0965 47.971 35.9887 47.971 33.3886C47.971 30.7885 45.8634 28.6807 43.2635 28.6807C40.6636 28.6807 38.556 30.7885 38.556 33.3886C38.556 35.9887 40.6636 38.0965 43.2635 38.0965Z" fill="#FFB7B7"/>
<path d="M43.2635 38.0965C45.8634 38.0965 47.971 35.9887 47.971 33.3886C47.971 30.7885 45.8634 28.6807 43.2635 28.6807C40.6636 28.6807 38.556 30.7885 38.556 33.3886C38.556 35.9887 40.6636 38.0965 43.2635 38.0965Z" fill="#F4F7FA"/>
<path fill-rule="evenodd" clip-rule="evenodd" d="M43.2635 37.5965C45.5872 37.5965 47.471 35.7126 47.471 33.3886C47.471 31.0646 45.5872 29.1807 43.2635 29.1807C40.9398 29.1807 39.056 31.0646 39.056 33.3886C39.056 35.7126 40.9398 37.5965 43.2635 37.5965ZM47.971 33.3886C47.971 35.9887 45.8634 38.0965 43.2635 38.0965C40.6636 38.0965 38.556 35.9887 38.556 33.3886C38.556 30.7885 40.6636 28.6807 43.2635 28.6807C45.8634 28.6807 47.971 30.7885 47.971 33.3886Z" fill="black"/>
<path d="M36.7787 56.1996L38.3327 52.3175C37.2347 48.7608 37.302 44.9463 38.5248 41.4306L38.8221 41.1858C41.4122 39.0525 43.6856 39.4409 45.7952 42.0504C46.1349 42.4746 46.5322 42.8493 46.9757 43.1635C47.9061 43.8164 49.3822 47.3633 47.4332 49.4424L45.874 58.5386C46.0382 63.5607 42.3942 61.6696 36.7787 56.1996Z" fill="#F4F7FA"/>
<path fill-rule="evenodd" clip-rule="evenodd" d="M38.3327 52.3175L36.7787 56.1996C42.3942 61.6696 46.0382 63.5607 45.874 58.5386L47.4332 49.4424C49.3822 47.3633 47.9061 43.8164 46.9757 43.1635C46.5322 42.8493 46.1349 42.4746 45.7952 42.0504C43.6856 39.4409 41.4122 39.0525 38.8221 41.1858L38.5248 41.4306C37.302 44.9463 37.2347 48.7608 38.3327 52.3175ZM38.9518 41.7267C37.8078 45.1051 37.7576 48.7596 38.8104 52.17L38.8626 52.339L37.3675 56.0741C38.6691 57.3308 39.853 58.3799 40.8968 59.1826C42.0122 60.0404 42.9357 60.5915 43.6513 60.8291C44.3673 61.0669 44.7322 60.9536 44.9431 60.7233C45.2077 60.4345 45.4146 59.7893 45.3743 58.5549L45.3726 58.5042L46.9657 49.21L47.0684 49.1005C47.8905 48.2235 48.0186 47.0076 47.7936 45.8647C47.6823 45.2988 47.4878 44.7747 47.2706 44.3593C47.0454 43.9283 46.8239 43.6679 46.6885 43.5728L46.6866 43.5715C46.2054 43.2305 45.7743 42.824 45.4056 42.3637C44.392 41.1103 43.4002 40.4676 42.4217 40.335C41.452 40.2036 40.3718 40.5571 39.1399 41.5717L38.9518 41.7267Z" fill="black"/>
<path d="M59.0611 50.9197C58.8601 50.7677 58.6283 50.6616 58.3819 50.6089C58.1355 50.5562 57.8805 50.5582 57.635 50.6147C57.3894 50.6712 57.1593 50.7809 56.9607 50.936C56.7621 51.0911 56.5999 51.2878 56.4856 51.5124L52.5589 51.2066L51.7912 53.5478L57.3424 53.9017C57.7324 54.0687 58.17 54.0869 58.5725 53.9529C58.975 53.8188 59.3143 53.5417 59.5261 53.1741C59.738 52.8065 59.8076 52.374 59.7219 51.9585C59.6362 51.543 59.4011 51.1734 59.0611 50.9197H59.0611Z" fill="#F4F7FA"/>
<path d="M55.3016 54.7173L44.1127 52.628L40.4735 46.526C40.2397 45.8777 40.273 45.1629 40.5661 44.5391C40.8592 43.9152 41.388 43.4334 42.0364 43.1996C42.6847 42.9657 43.3994 42.999 44.0232 43.2921C44.6469 43.5853 45.1287 44.1142 45.3626 44.7626L47.0695 49.4832L55.9183 50.948L55.3016 54.7173Z" fill="#F4F7FA"/>
<path fill-rule="evenodd" clip-rule="evenodd" d="M45.3626 44.7626C45.1287 44.1142 44.6469 43.5853 44.0232 43.2921C43.3994 42.999 42.6847 42.9657 42.0364 43.1996C41.388 43.4334 40.8592 43.9152 40.5661 44.5391C40.273 45.1629 40.2397 45.8777 40.4735 46.526L44.1127 52.628L55.3016 54.7173L55.9183 50.9482L47.0695 49.4832L45.3626 44.7626ZM54.8907 54.132L55.3443 51.3598L46.6989 49.9286L44.8924 44.9326C44.7035 44.4089 44.3143 43.9814 43.8105 43.7447C43.3068 43.5079 42.7296 43.481 42.206 43.6699C41.6824 43.8587 41.2553 44.2479 41.0186 44.7517C40.7884 45.2418 40.7566 45.8013 40.9289 46.3134L44.4264 52.1779L54.8907 54.132Z" fill="black"/>
<path d="M34.8724 32.3571C37.3666 32.3571 39.3886 30.3349 39.3886 27.8404C39.3886 25.3459 37.3666 23.3237 34.8724 23.3237C32.3781 23.3237 30.3561 25.3459 30.3561 27.8404C30.3561 30.3349 32.3781 32.3571 34.8724 32.3571Z" fill="#7247FF"/>
<path d="M30.9768 31.5808C31.5613 32.0033 32.2385 32.2797 32.9518 32.3868C33.665 32.4939 34.3936 32.4287 35.0764 32.1965C35.7593 31.9643 36.3766 31.5719 36.8767 31.0522C37.3768 30.5324 37.7452 29.9005 37.9511 29.2092C37.8732 29.8287 37.6677 30.4253 37.3476 30.9614C37.0275 31.4975 36.5998 31.9614 36.0914 32.3238C35.5829 32.6862 35.0049 32.9393 34.3938 33.067C33.7827 33.1948 33.1517 33.1944 32.5407 33.0659C31.9297 32.9375 31.352 32.6837 30.844 32.3207C30.336 31.9577 29.9088 31.4933 29.5894 30.9568C29.2699 30.4204 29.0651 29.8235 28.988 29.2039C28.9108 28.5843 28.9629 27.9554 29.1411 27.3569C29.0399 28.1609 29.1569 28.9774 29.4799 29.7205C29.8029 30.4637 30.3199 31.1063 30.9768 31.5808Z" fill="#7247FF"/>
<path d="M48.8 31.5855C48.0116 30.1739 47.7099 29.5842 46.6933 28.7258C45.7944 27.9667 44.6886 27.7437 43.7967 28.463C42.7417 28.0071 41.5677 27.9037 40.4492 28.1683C39.3306 28.4328 38.3273 29.0511 37.5881 29.9313C36.849 30.8115 36.4134 31.9067 36.3462 33.0542C36.279 34.2017 36.5836 35.3402 37.215 36.3008C37.8463 37.2613 38.7706 37.9925 39.8506 38.3859C40.9305 38.7792 42.1086 38.8136 43.2097 38.4841C44.3108 38.1545 45.2762 37.4785 45.9626 36.5565C46.6489 35.6345 47.0196 34.5157 47.0195 33.3662C47.0187 33.1644 47.0065 32.9627 46.9831 32.7622C47.7584 32.6534 48.0248 31.6944 48.8 31.5855Z" fill="#7247FF"/>
<path d="M187.637 65.3761C187.652 65.0646 187.734 64.7601 187.88 64.484C188.025 64.208 188.229 63.9671 188.477 63.7784C188.725 63.5897 189.012 63.4578 189.317 63.3918C189.622 63.3259 189.937 63.3277 190.241 63.3969L193.062 59.4209L195.896 60.5461L191.834 66.105C191.684 66.6082 191.354 67.0388 190.908 67.3152C190.461 67.5917 189.929 67.6947 189.412 67.6049C188.894 67.515 188.428 67.2385 188.101 66.8278C187.774 66.417 187.609 65.9005 187.637 65.3761Z" fill="#F4F7FA"/>
<path fill-rule="evenodd" clip-rule="evenodd" d="M190.456 63.9586L190.13 63.8844C189.897 63.8314 189.656 63.8301 189.423 63.8805C189.189 63.931 188.97 64.032 188.78 64.1765C188.589 64.321 188.433 64.5054 188.322 64.7167C188.211 64.9281 188.148 65.1613 188.136 65.3998L187.637 65.3761C187.652 65.0646 187.734 64.7601 187.88 64.484C188.025 64.208 188.229 63.9671 188.477 63.7784C188.725 63.5897 189.012 63.4578 189.317 63.3918C189.622 63.3259 189.937 63.3277 190.241 63.3969L193.062 59.4209L195.896 60.5461L191.834 66.105C191.684 66.6082 191.354 67.0388 190.908 67.3152C190.461 67.5917 189.929 67.6947 189.412 67.6049C188.894 67.515 188.428 67.2385 188.101 66.8278C187.774 66.417 187.609 65.9005 187.637 65.3761L188.136 65.403C188.114 65.8052 188.241 66.2013 188.492 66.5163C188.743 66.8313 189.1 67.0434 189.497 67.1123C189.894 67.1812 190.302 67.1021 190.644 66.8901C190.987 66.6781 191.239 66.3479 191.355 65.962L191.379 65.8795L195.112 60.7725L193.243 60.0305L190.456 63.9586Z" fill="black"/>
<path d="M190.731 61.9565L195.747 53.52L193.704 48.0702L196.487 40.6475L196.59 40.6915C196.657 40.7203 198.238 41.4261 198.473 43.9535L201.671 54.0064L193.135 65.0812L190.731 61.9565Z" fill="#F4F7FA"/>
<path d="M163.491 30.9418C163.8 30.9806 164.097 31.0868 164.361 31.2529C164.625 31.4189 164.85 31.6409 165.019 31.9031C165.187 32.1653 165.297 32.4613 165.339 32.7703C165.381 33.0794 165.355 33.3939 165.263 33.6917L169.008 36.812L167.667 39.5509L162.44 35.0702C161.95 34.8815 161.546 34.5196 161.305 34.0532C161.064 33.5867 161.002 33.0479 161.132 32.539C161.261 32.0302 161.573 31.5865 162.008 31.2921C162.443 30.9977 162.97 30.8731 163.491 30.9418Z" fill="#F4F7FA"/>
<path fill-rule="evenodd" clip-rule="evenodd" d="M164.686 33.8622L164.785 33.5434C164.856 33.3153 164.876 33.0745 164.844 32.8379C164.811 32.6013 164.728 32.3746 164.598 32.1739C164.469 31.9731 164.297 31.8032 164.095 31.6761C163.893 31.5489 163.665 31.4676 163.429 31.4379L163.491 30.9418C163.8 30.9806 164.097 31.0868 164.361 31.2529C164.625 31.4189 164.85 31.6409 165.019 31.9031C165.187 32.1653 165.297 32.4613 165.339 32.7703C165.381 33.0794 165.355 33.3939 165.263 33.6917L169.008 36.812L167.667 39.5509L162.44 35.0702C161.95 34.8815 161.546 34.5196 161.305 34.0532C161.064 33.5867 161.002 33.0479 161.132 32.539C161.261 32.0302 161.573 31.5865 162.008 31.2921C162.443 30.9977 162.97 30.8731 163.491 30.9418L163.425 31.4375C163.026 31.3848 162.621 31.4804 162.288 31.7061C161.955 31.9319 161.716 32.2722 161.616 32.6624C161.517 33.0527 161.564 33.4658 161.749 33.8236C161.934 34.1814 162.243 34.4589 162.619 34.6035L162.7 34.6345L167.502 38.7509L168.386 36.9448L164.686 33.8622Z" fill="black"/>
<path d="M166.66 34.2915L174.683 39.945L180.274 38.3288L187.459 41.6778L187.407 41.7767C187.373 41.8416 186.547 43.3638 184.009 43.4021L173.74 45.814L163.359 36.4464L166.66 34.2915Z" fill="#F4F7FA"/>
<path d="M181.34 103.04H178.551L177.225 92.2812L181.341 92.2815L181.34 103.04Z" fill="#F4F7FA"/>
<path fill-rule="evenodd" clip-rule="evenodd" d="M180.84 102.54L180.841 92.7815L177.79 92.7813L178.993 102.54H180.84ZM178.551 103.04H181.34L181.341 92.2815L177.225 92.2812L178.551 103.04Z" fill="black"/>
<path d="M176.559 102.243H181.938V105.63H173.172C173.172 105.185 173.26 104.745 173.43 104.334C173.6 103.923 173.85 103.55 174.164 103.235C174.479 102.921 174.852 102.671 175.263 102.501C175.674 102.331 176.114 102.243 176.559 102.243Z" fill="#F4F7FA"/>
<path fill-rule="evenodd" clip-rule="evenodd" d="M181.438 102.743H176.559C176.18 102.743 175.805 102.818 175.454 102.963C175.104 103.108 174.786 103.321 174.518 103.589C174.25 103.857 174.037 104.175 173.892 104.525C173.811 104.72 173.752 104.923 173.716 105.13H181.438V102.743ZM173.172 105.63C173.172 105.462 173.185 105.295 173.209 105.13C173.25 104.857 173.324 104.59 173.43 104.334C173.6 103.923 173.85 103.55 174.164 103.235C174.479 102.921 174.852 102.671 175.263 102.501C175.674 102.331 176.114 102.243 176.559 102.243H181.938V105.63H173.172Z" fill="black"/>
<path d="M192.488 103.04H189.699L188.372 92.2812L192.488 92.2815L192.488 103.04Z" fill="#F4F7FA"/>
<path fill-rule="evenodd" clip-rule="evenodd" d="M191.988 102.54L191.988 92.7815L188.937 92.7813L190.141 102.54H191.988ZM189.699 103.04H192.488L192.488 92.2815L188.372 92.2812L189.699 103.04Z" fill="black"/>
<path d="M187.706 102.243H193.085V105.63H184.32C184.32 105.185 184.407 104.745 184.577 104.334C184.748 103.923 184.997 103.55 185.312 103.235C185.626 102.921 185.999 102.671 186.41 102.501C186.821 102.331 187.262 102.243 187.706 102.243Z" fill="#F4F7FA"/>
<path fill-rule="evenodd" clip-rule="evenodd" d="M192.585 102.743H187.706C187.327 102.743 186.952 102.818 186.602 102.963C186.251 103.108 185.933 103.321 185.665 103.589C185.397 103.857 185.184 104.175 185.039 104.525C184.959 104.72 184.9 104.923 184.863 105.13H192.585V102.743ZM184.32 105.63C184.32 105.462 184.332 105.295 184.357 105.13C184.397 104.857 184.471 104.59 184.577 104.334C184.748 103.923 184.997 103.55 185.312 103.235C185.626 102.921 185.999 102.671 186.41 102.501C186.821 102.331 187.262 102.243 187.706 102.243H193.085V105.63H184.32Z" fill="black"/>
<path d="M193.48 63.7695L193.252 79.6959L193.025 100.627L188.02 100.172L185.517 71.2776L182.332 100.172H177.165L176.645 71.05L178.465 64.6794L193.48 63.7695Z" fill="#F4F7FA"/>
<path fill-rule="evenodd" clip-rule="evenodd" d="M193.252 79.6959L193.48 63.7695L178.465 64.6794L176.645 71.05L177.165 100.172H182.332L185.517 71.2776L188.02 100.172L193.025 100.627L193.252 79.6959ZM192.531 100.08L192.752 79.6887L192.972 64.3012L178.848 65.1571L177.146 71.1156L177.656 99.6724H181.884L185.02 71.2228L186.015 71.2345L188.482 99.7124L192.531 100.08Z" fill="black"/>
<path d="M177.966 64.7764L177.203 64.7434L180.745 45.2315L179.295 39.334C179.22 39.0271 179.259 38.7033 179.407 38.4239C179.554 38.1444 179.799 37.9288 180.095 37.8177L182.704 36.8393L183.626 34.3042L190.898 35.0879L191.077 37.0692C191.865 37.322 198.355 39.4835 197.907 41.9464C197.465 44.3773 194.856 52.0254 194.723 52.413L194.266 63.3813L194.21 63.4094C194.142 63.4433 189.129 65.9082 183.684 65.9078C181.719 65.9407 179.77 65.555 177.966 64.7764Z" fill="#F4F7FA"/>
<path fill-rule="evenodd" clip-rule="evenodd" d="M180.745 45.2315L177.203 64.7434L177.966 64.7764C179.77 65.555 181.719 65.9407 183.684 65.9078C189.129 65.9082 194.142 63.4433 194.21 63.4094L194.266 63.3813L194.723 52.413C194.856 52.0254 197.465 44.3773 197.907 41.9464C198.355 39.4835 191.865 37.322 191.077 37.0692L190.898 35.0879L183.626 34.3042L182.704 36.8393L180.095 37.8177C179.799 37.9288 179.554 38.1444 179.407 38.4239C179.259 38.7033 179.22 39.0271 179.295 39.334L180.745 45.2315ZM179.781 39.2147L181.256 45.2158L177.798 64.2686L177.988 64.2768L177.966 64.7764L178.164 64.3173C179.903 65.0678 181.782 65.4396 183.675 65.4079L183.684 65.4077C186.336 65.4079 188.897 64.8067 190.811 64.1952C191.767 63.89 192.556 63.584 193.11 63.3528C193.386 63.2372 193.604 63.1404 193.753 63.0719C193.762 63.0679 193.771 63.0639 193.779 63.0601L194.226 52.3198L194.25 52.2512C194.316 52.0587 195 50.0533 195.723 47.7936C196.45 45.519 197.201 43.0336 197.415 41.8569C197.483 41.486 197.304 41.0481 196.788 40.5359C196.281 40.034 195.538 39.5521 194.722 39.1211C193.097 38.2622 191.311 37.6693 190.924 37.5453L190.609 37.4441L190.437 35.5411L183.962 34.8433L183.095 37.2266L180.27 38.2859C180.27 38.2859 180.271 38.2859 180.27 38.2859C180.089 38.3539 179.939 38.486 179.849 38.6572C179.759 38.8283 179.734 39.0268 179.781 39.2147C179.781 39.2148 179.781 39.2147 179.781 39.2147Z" fill="black"/>
<path d="M186.977 33.0497C189.869 33.0497 192.213 30.7051 192.213 27.8129C192.213 24.9207 189.869 22.5762 186.977 22.5762C184.085 22.5762 181.741 24.9207 181.741 27.8129C181.741 30.7051 184.085 33.0497 186.977 33.0497Z" fill="#F4F7FA"/>
<path fill-rule="evenodd" clip-rule="evenodd" d="M186.977 32.5497C189.593 32.5497 191.713 30.429 191.713 27.8129C191.713 25.1968 189.593 23.0762 186.977 23.0762C184.361 23.0762 182.241 25.1968 182.241 27.8129C182.241 30.429 184.361 32.5497 186.977 32.5497ZM192.213 27.8129C192.213 30.7051 189.869 33.0497 186.977 33.0497C184.085 33.0497 181.741 30.7051 181.741 27.8129C181.741 24.9207 184.085 22.5762 186.977 22.5762C189.869 22.5762 192.213 24.9207 192.213 27.8129Z" fill="black"/>
<path d="M191.218 32.8825C190.22 33.9456 188.367 33.3749 188.237 31.9226C188.227 31.8099 188.228 31.6964 188.239 31.5838C188.306 30.9404 188.678 30.3564 188.589 29.6771C188.569 29.5081 188.506 29.347 188.406 29.2091C187.611 28.1441 185.744 29.6854 184.994 28.7213C184.534 28.1302 185.074 27.1995 184.721 26.5388C184.255 25.6668 182.875 26.0969 182.009 25.6194C181.046 25.088 181.103 23.61 181.737 22.711C182.511 21.6147 183.867 21.0296 185.205 20.9453C186.544 20.861 187.874 21.223 189.124 21.7102C190.544 22.2637 191.953 23.0287 192.827 24.2776C193.889 25.7964 193.992 27.8383 193.46 29.6143C193.137 30.6947 192.033 32.0144 191.218 32.8825Z" fill="#7247FF"/>
<path d="M134.486 101.593L135.264 99.5923L127.916 95.6392L126.768 98.5927L134.486 101.593Z" fill="#F4F7FA"/>
<path fill-rule="evenodd" clip-rule="evenodd" d="M134.638 99.8232L134.201 100.946L127.415 98.3079L128.177 96.3474L134.638 99.8232ZM127.916 95.6392L135.264 99.5923L134.486 101.593L126.768 98.5927L127.916 95.6392Z" fill="black"/>
<path d="M138.654 96.3729C138.324 96.2445 137.972 96.1824 137.618 96.1901C137.265 96.1978 136.916 96.2751 136.592 96.4177C136.268 96.5602 135.976 96.7653 135.731 97.021C135.486 97.2767 135.294 97.5782 135.166 97.9081L134.642 99.2571L133.833 101.339L133.635 101.85L136.228 102.859L138.735 96.4053L138.654 96.3729Z" fill="#F4F7FA"/>
<path fill-rule="evenodd" clip-rule="evenodd" d="M135.166 97.9081L133.635 101.85L136.228 102.859L138.735 96.4053L138.654 96.3729C138.635 96.3656 138.616 96.3584 138.597 96.3515C138.486 96.3112 138.373 96.2783 138.258 96.2529C138.049 96.2066 137.834 96.1854 137.618 96.1901C137.265 96.1978 136.916 96.2751 136.592 96.4177C136.268 96.5602 135.976 96.7653 135.731 97.021C135.486 97.2767 135.294 97.5782 135.166 97.9081ZM138.074 96.7258C137.928 96.6988 137.779 96.6867 137.629 96.69C137.341 96.6962 137.057 96.7592 136.793 96.8753C136.53 96.9914 136.291 97.1583 136.092 97.3666C135.893 97.5749 135.737 97.8203 135.633 98.089L134.281 101.565L135.943 102.211L138.074 96.7258Z" fill="black"/>
<path d="M133.833 97.7423L133.495 98.6396L132.65 100.879L132.63 100.935C130.479 101.212 128.12 100.67 125.939 99.8278C125.066 99.4912 124.212 99.1097 123.378 98.685C122.145 98.0616 121.04 97.4038 120.159 96.8411C118.833 95.9896 118.012 95.3502 118.012 95.3502C118.012 95.3502 117.796 95.546 117.403 95.8819C116.878 96.3316 116.038 97.034 114.974 97.8607C114.568 98.1783 114.133 98.5104 113.667 98.8572C110.235 101.403 105.83 94.6093 105.83 94.6093C105.83 94.6093 107.069 93.8205 107.392 93.6674C108.434 93.1743 110.883 92.0108 112.995 90.9768C114.083 90.4433 115.081 89.9431 115.751 89.5876C118.123 88.3246 121.071 90.7145 121.071 90.7145L133.833 97.7423Z" fill="#F4F7FA"/>
<path fill-rule="evenodd" clip-rule="evenodd" d="M133.833 97.7423L121.071 90.7145C121.071 90.7145 118.123 88.3246 115.751 89.5876C115.081 89.9431 114.083 90.4433 112.995 90.9768C110.883 92.0108 108.434 93.1743 107.392 93.6674C107.192 93.762 106.643 94.0989 106.253 94.3428C106.011 94.4939 105.83 94.6093 105.83 94.6093C105.83 94.6093 105.931 94.7652 106.114 95.0209C107.142 96.4533 110.754 101.018 113.667 98.8572C114.133 98.5104 114.568 98.1783 114.974 97.8607C116.038 97.034 116.878 96.3316 117.403 95.8819C117.796 95.546 118.012 95.3502 118.012 95.3502C118.012 95.3502 118.833 95.9896 120.159 96.8411C121.04 97.4038 122.145 98.0616 123.378 98.685C124.212 99.1097 125.066 99.4912 125.939 99.8278C128.12 100.67 130.479 101.212 132.63 100.935L132.65 100.879L133.833 97.7423ZM132.269 100.472C130.314 100.65 128.162 100.15 126.119 99.3613C125.263 99.0309 124.423 98.6564 123.605 98.2395L123.604 98.2387C122.389 97.6249 121.3 96.9761 120.429 96.42C119.774 95.9997 119.245 95.6321 118.88 95.3702C118.697 95.2392 118.556 95.1347 118.461 95.0634C118.414 95.0278 118.378 95.0005 118.354 94.9822L118.327 94.9619L118.321 94.957L118.32 94.956L117.988 94.6977L117.677 94.9792M132.269 100.472L133.027 98.4632L133.212 97.9713L120.791 91.131L120.757 91.1033L120.752 91.0994L120.731 91.0831C120.712 91.0682 120.682 91.0456 120.643 91.0167C120.565 90.9588 120.448 90.876 120.3 90.7797C120.004 90.5865 119.587 90.3429 119.105 90.1376C118.119 89.7183 116.97 89.5047 115.986 90.029C115.308 90.3884 114.304 90.8918 113.215 91.4258C111.1 92.4612 108.649 93.626 107.606 94.1193C107.476 94.181 107.114 94.398 106.752 94.6211C106.678 94.6669 106.606 94.7118 106.538 94.7541C106.651 94.9114 106.795 95.1054 106.966 95.3233C107.422 95.9072 108.06 96.6528 108.796 97.3168C109.538 97.986 110.347 98.5424 111.143 98.7902C111.916 99.0309 112.662 98.98 113.369 98.4559C113.831 98.1113 114.264 97.7817 114.666 97.4669L114.667 97.4659C115.724 96.645 116.557 95.9479 117.078 95.502C117.272 95.3358 117.423 95.2044 117.524 95.115C117.575 95.0702 117.614 95.036 117.639 95.0131L117.668 94.9873L117.675 94.981L117.677 94.9792" fill="black"/>
<path opacity="0.14" d="M133.833 97.7423L133.495 98.6396L132.65 100.879L132.63 100.935C130.479 101.212 128.12 100.67 125.939 99.8278C125.066 99.4912 124.212 99.1097 123.378 98.685C122.145 98.0616 121.04 97.4038 120.159 96.8411C118.833 95.9896 118.012 95.3502 118.012 95.3502C118.012 95.3502 117.796 95.546 117.403 95.8819C116.878 96.3316 116.038 97.034 114.974 97.8607C114.568 98.1783 114.133 98.5104 113.667 98.8572C110.235 101.403 105.83 94.6093 105.83 94.6093C105.83 94.6093 107.069 93.8205 107.392 93.6674C108.434 93.1743 110.883 92.0108 112.995 90.9768C114.083 90.4433 115.081 89.9431 115.751 89.5876C118.123 88.3246 121.071 90.7145 121.071 90.7145L133.833 97.7423Z" fill="#F4F7FA"/>
<path opacity="0.14" fill-rule="evenodd" clip-rule="evenodd" d="M133.833 97.7423L121.071 90.7145C121.071 90.7145 118.123 88.3246 115.751 89.5876C115.081 89.9431 114.083 90.4433 112.995 90.9768C110.883 92.0108 108.434 93.1743 107.392 93.6674C107.192 93.762 106.643 94.0989 106.253 94.3428C106.011 94.4939 105.83 94.6093 105.83 94.6093C105.83 94.6093 105.931 94.7652 106.114 95.0209C107.142 96.4533 110.754 101.018 113.667 98.8572C114.133 98.5104 114.568 98.1783 114.974 97.8607C116.038 97.034 116.878 96.3316 117.403 95.8819C117.796 95.546 118.012 95.3502 118.012 95.3502C118.012 95.3502 118.833 95.9896 120.159 96.8411C121.04 97.4038 122.145 98.0616 123.378 98.685C124.212 99.1097 125.066 99.4912 125.939 99.8278C128.12 100.67 130.479 101.212 132.63 100.935L132.65 100.879L133.833 97.7423ZM132.269 100.472C130.314 100.65 128.162 100.15 126.119 99.3613C125.263 99.0309 124.423 98.6564 123.605 98.2395L123.604 98.2387C122.389 97.6249 121.3 96.9761 120.429 96.42C119.774 95.9997 119.245 95.6321 118.88 95.3702C118.697 95.2392 118.556 95.1347 118.461 95.0634C118.414 95.0278 118.378 95.0005 118.354 94.9822L118.327 94.9619L118.321 94.957L118.32 94.956L117.988 94.6977L117.677 94.9792M132.269 100.472L133.027 98.4632L133.212 97.9713L120.791 91.131L120.757 91.1033L120.752 91.0994L120.731 91.0831C120.712 91.0682 120.682 91.0456 120.643 91.0167C120.565 90.9588 120.448 90.876 120.3 90.7797C120.004 90.5865 119.587 90.3429 119.105 90.1376C118.119 89.7183 116.97 89.5047 115.986 90.029C115.308 90.3884 114.304 90.8918 113.215 91.4258C111.1 92.4612 108.649 93.626 107.606 94.1193C107.476 94.181 107.114 94.398 106.752 94.6211C106.678 94.6669 106.606 94.7118 106.538 94.7541C106.651 94.9114 106.795 95.1054 106.966 95.3233C107.422 95.9072 108.06 96.6528 108.796 97.3168C109.538 97.986 110.347 98.5424 111.143 98.7902C111.916 99.0309 112.662 98.98 113.369 98.4559C113.831 98.1113 114.264 97.7817 114.666 97.4669L114.667 97.4659C115.724 96.645 116.557 95.9479 117.078 95.502C117.272 95.3358 117.423 95.2044 117.524 95.115C117.575 95.0702 117.614 95.036 117.639 95.0131L117.668 94.9873L117.675 94.981L117.677 94.9792" fill="black"/>
<path d="M99.5006 78.907H89.3441C89.1352 78.9068 88.9349 78.8237 88.7872 78.676C88.6395 78.5282 88.5564 78.3279 88.5561 78.119V73.7408C88.5561 72.1848 89.1742 70.6926 90.2743 69.5924C91.3744 68.4921 92.8665 67.874 94.4224 67.874C95.9782 67.874 97.4703 68.4921 98.5704 69.5924C99.6705 70.6926 100.289 72.1848 100.289 73.7408V78.119C100.288 78.3279 100.205 78.5282 100.058 78.676C99.9098 78.8237 99.7095 78.9068 99.5006 78.907Z" fill="#7247FF"/>
<path d="M109.159 84.4066C108.923 84.4482 108.698 84.541 108.502 84.6787C108.305 84.8163 108.141 84.9954 108.021 85.2034C107.901 85.4113 107.828 85.6431 107.807 85.8822C107.787 86.1214 107.819 86.3622 107.901 86.5877L105.139 89.1281L106.274 91.1831L110.123 87.5408C110.493 87.3773 110.79 87.0838 110.957 86.7161C111.125 86.3483 111.152 85.9318 111.033 85.5455C110.914 85.1592 110.658 84.8299 110.313 84.62C109.967 84.4101 109.557 84.3342 109.159 84.4066V84.4066Z" fill="#F4F7FA"/>
<path fill-rule="evenodd" clip-rule="evenodd" d="M109.159 84.4066C109.326 84.3763 109.494 84.372 109.659 84.3925C109.889 84.4211 110.112 84.4979 110.313 84.62C110.658 84.8299 110.914 85.1592 111.033 85.5455C111.152 85.9318 111.125 86.3483 110.957 86.7161C110.79 87.0838 110.493 87.3773 110.123 87.5408L106.274 91.1831L105.139 89.1281L107.901 86.5877C107.819 86.3622 107.787 86.1214 107.807 85.8822C107.828 85.6431 107.901 85.4113 108.021 85.2034C108.141 84.9954 108.305 84.8163 108.502 84.6787C108.552 84.6431 108.605 84.6106 108.659 84.5811C108.815 84.4965 108.984 84.4374 109.159 84.4066ZM109.228 84.9023C109.07 84.9326 108.92 84.996 108.788 85.0883C108.652 85.184 108.538 85.3086 108.454 85.4532C108.371 85.5979 108.32 85.759 108.305 85.9254C108.291 86.0918 108.313 86.2593 108.371 86.4161L108.485 86.7297L105.767 89.2302L106.399 90.3759L109.842 87.1184L109.921 87.0836C110.179 86.9696 110.385 86.765 110.502 86.5086C110.619 86.2522 110.638 85.9618 110.555 85.6925C110.472 85.4232 110.294 85.1936 110.053 85.0472C109.812 84.9009 109.526 84.848 109.249 84.8985L109.228 84.9023Z" fill="black"/>
<path d="M100.849 95.9563C100.724 95.9563 100.6 95.951 100.474 95.9402C99.7294 95.878 99.0124 95.6276 98.3907 95.2123C97.769 94.7971 97.2629 94.2307 96.9201 93.5663L92.4955 85.0494C92.2056 84.4913 92.142 83.843 92.3179 83.2392C92.4938 82.6354 92.8956 82.1227 93.4399 81.8077C93.9841 81.4927 94.6289 81.3996 95.24 81.5479C95.8511 81.6962 96.3815 82.0743 96.7209 82.6037L100.803 91.7635L106.357 87.2502L109.573 88.5022L104.142 94.4989C103.725 94.9572 103.216 95.3236 102.649 95.5745C102.082 95.8254 101.469 95.9555 100.849 95.9563Z" fill="#F4F7FA"/>
<path fill-rule="evenodd" clip-rule="evenodd" d="M100.516 95.4419L100.517 95.442C100.628 95.4516 100.739 95.4563 100.849 95.4563M97.3638 93.3358L97.3644 93.337C97.6684 93.9261 98.1171 94.4284 98.6684 94.7965C99.2196 95.1647 99.8554 95.3868 100.516 95.4419M96.7209 82.6037C96.3815 82.0743 95.8511 81.6962 95.24 81.5479C94.6289 81.3996 93.9841 81.4927 93.4399 81.8077C92.8956 82.1227 92.4938 82.6354 92.3179 83.2392C92.142 83.843 92.2056 84.4913 92.4955 85.0494L96.9201 93.5663C97.2629 94.2307 97.769 94.7971 98.3907 95.2123C99.0124 95.6276 99.7294 95.878 100.474 95.9402C100.6 95.951 100.724 95.9563 100.849 95.9563C101.469 95.9555 102.082 95.8254 102.649 95.5745C103.216 95.3236 103.725 94.9572 104.142 94.4989L109.573 88.5022L106.357 87.2502L100.803 91.7635L96.7209 82.6037ZM106.447 87.8216L100.612 92.5631L96.2804 82.8438C96.0099 82.4383 95.5965 82.1489 95.1221 82.0338C94.636 81.9159 94.1232 81.9899 93.6904 82.2404C93.2575 82.491 92.9378 82.8988 92.7979 83.379C92.658 83.8593 92.7086 84.375 92.9392 84.8189C92.9392 84.8189 92.9392 84.8189 92.9392 84.8189L97.3638 93.3358M106.447 87.8216L108.715 88.7047L103.772 94.1622C103.773 94.162 103.772 94.1624 103.772 94.1622C103.402 94.5689 102.95 94.8946 102.447 95.1173C101.944 95.34 101.399 95.4555 100.849 95.4563" fill="black"/>
<path d="M133.865 104.408L134.794 102.473L127.772 97.9668L126.401 100.823L133.865 104.408Z" fill="#F4F7FA"/>
<path fill-rule="evenodd" clip-rule="evenodd" d="M134.152 102.655L133.631 103.741L127.068 100.589L127.978 98.693L134.152 102.655ZM127.772 97.9668L134.794 102.473L133.865 104.408L126.401 100.823L127.772 97.9668Z" fill="black"/>
<path d="M138.422 99.5233C138.103 99.3699 137.757 99.281 137.404 99.2614C137.05 99.2419 136.697 99.2922 136.363 99.4095C136.029 99.5267 135.721 99.7087 135.458 99.9448C135.194 100.181 134.98 100.467 134.827 100.786L134.2 102.091L133.233 104.105L132.997 104.598L135.505 105.803L138.501 99.5618L138.422 99.5233Z" fill="#F4F7FA"/>
<path fill-rule="evenodd" clip-rule="evenodd" d="M135.278 101.002L133.664 104.364L135.27 105.136L137.817 99.8306C137.673 99.7924 137.525 99.7689 137.376 99.7607C137.088 99.7448 136.8 99.7857 136.528 99.8812C136.257 99.9767 136.006 100.125 135.792 100.317C135.577 100.51 135.402 100.743 135.278 101.002ZM138.037 99.3732C137.831 99.311 137.619 99.2733 137.404 99.2614C137.05 99.2419 136.697 99.2922 136.363 99.4095C136.029 99.5267 135.721 99.7087 135.458 99.9448C135.194 100.181 134.98 100.467 134.827 100.786L132.997 104.598L135.504 105.803L138.501 99.5618L138.422 99.5233C138.404 99.5146 138.386 99.5062 138.368 99.4979C138.26 99.4491 138.149 99.4074 138.037 99.3732Z" fill="black"/>
<path d="M133.51 100.518L133.104 101.387L132.09 103.555L132.065 103.609C129.899 103.72 127.59 102.998 125.479 101.991C124.635 101.588 123.812 101.142 123.014 100.655C121.832 99.9387 120.781 99.1979 119.946 98.5692C118.689 97.6182 117.92 96.9177 117.92 96.9177C117.92 96.9177 117.689 97.0963 117.272 97.4011C116.713 97.8091 115.822 98.4448 114.698 99.1874C114.269 99.4728 113.809 99.7705 113.318 100.081C109.7 102.355 104.555 105.126 100.179 105.711C92.4937 106.739 94.3026 96.4817 94.3026 96.4817L100.419 93.3048L103.016 93.832L105.907 94.4169L106.932 94.6253C106.932 94.6253 107.126 94.5518 107.46 94.4239C108.537 94.0124 111.068 93.0404 113.253 92.1718C114.379 91.7234 115.412 91.3014 116.107 90.9984C118.569 89.9214 121.326 92.5308 121.326 92.5308L133.51 100.518Z" fill="#F4F7FA"/>
<path fill-rule="evenodd" clip-rule="evenodd" d="M132.09 103.555L133.51 100.518L121.326 92.5308C121.326 92.5308 118.569 89.9214 116.107 90.9984C115.412 91.3014 114.379 91.7234 113.253 92.1718C111.068 93.0404 108.537 94.0124 107.46 94.4239C107.126 94.5518 106.932 94.6253 106.932 94.6253L105.907 94.4169L100.419 93.3048L94.3026 96.4817C94.3026 96.4817 92.4937 106.739 100.179 105.711C104.555 105.126 109.7 102.355 113.318 100.081C113.809 99.7705 114.269 99.4728 114.698 99.1874C115.822 98.4448 116.713 97.8091 117.272 97.4011C117.689 97.0963 117.92 96.9177 117.92 96.9177C117.92 96.9177 118.689 97.6182 119.946 98.5692C120.781 99.1979 121.832 99.9387 123.014 100.655C123.812 101.142 124.635 101.588 125.479 101.991C127.59 102.998 129.899 103.72 132.065 103.609L132.09 103.555ZM131.741 103.12C129.778 103.147 127.671 102.483 125.695 101.54C124.866 101.145 124.058 100.707 123.274 100.228L123.273 100.227C122.109 99.5219 121.073 98.7913 120.247 98.17C119.626 97.7007 119.127 97.2935 118.783 97.0043C118.611 96.8597 118.479 96.7447 118.39 96.6663C118.345 96.6271 118.311 96.5971 118.289 96.5771L118.264 96.5548L118.258 96.5495L118.257 96.5483M131.741 103.12L132.651 101.175L132.874 100.699L121.014 92.9245L120.982 92.8943L120.978 92.89L120.958 92.8722C120.94 92.8558 120.913 92.831 120.876 92.7992C120.802 92.7354 120.692 92.6439 120.552 92.5366C120.271 92.3211 119.875 92.0462 119.409 91.8044C118.459 91.3106 117.33 91.0094 116.308 91.4565C115.605 91.7628 114.565 92.1876 113.438 92.6363C111.25 93.5062 108.716 94.4792 107.639 94.891M117.614 96.5221L117.612 96.5237L117.605 96.5295L117.574 96.5529C117.547 96.5738 117.505 96.605 117.451 96.6457C117.343 96.7271 117.183 96.8465 116.977 96.9973C116.423 97.4018 115.538 98.0329 114.422 98.7701L114.421 98.7711C113.996 99.054 113.539 99.3495 113.051 99.6575C109.437 101.93 104.372 104.646 100.113 105.215C98.3066 105.457 97.1341 105.031 96.3525 104.33C95.5525 103.613 95.0915 102.545 94.8483 101.38C94.6062 100.22 94.5911 99.0168 94.6393 98.0944C94.6634 97.6353 94.7028 97.2506 94.7361 96.9818C94.7441 96.9169 94.7518 96.8588 94.7588 96.8081L100.493 93.83L106.973 95.1441L107.109 95.0929L107.248 95.0399C107.339 95.0055 107.471 94.955 107.639 94.891" fill="black"/>
<path d="M83.11 105.956C83.344 105.902 83.5633 105.798 83.7526 105.65C83.9419 105.502 84.0965 105.315 84.2056 105.101C84.3146 104.887 84.3755 104.652 84.3838 104.412C84.3921 104.172 84.3478 103.933 84.2538 103.712L86.8806 101.033L85.6416 99.0391L81.9852 102.876C81.6246 103.058 81.3434 103.366 81.1949 103.742C81.0464 104.118 81.041 104.536 81.1796 104.915C81.3183 105.295 81.5914 105.611 81.9472 105.802C82.3029 105.994 82.7167 106.049 83.11 105.956H83.11Z" fill="#F4F7FA"/>
<path fill-rule="evenodd" clip-rule="evenodd" d="M83.0012 105.495L82.9982 105.468C83.1609 105.431 83.3134 105.358 83.4451 105.256C83.5767 105.153 83.6843 105.023 83.7601 104.874C83.836 104.725 83.8783 104.562 83.8841 104.395C83.8899 104.228 83.859 104.062 83.7937 103.908L83.6631 103.601L86.2486 100.963L85.5579 99.8516L82.2878 103.283L82.2109 103.322C81.9595 103.449 81.7635 103.664 81.66 103.926C81.5564 104.188 81.5527 104.479 81.6493 104.744C81.746 105.008 81.9364 105.228 82.1844 105.362C82.4324 105.496 82.7208 105.534 82.995 105.469L83.0012 105.495ZM83.1667 105.942C83.1479 105.947 83.129 105.951 83.11 105.956C83.11 105.956 83.11 105.956 83.11 105.956C83.0916 105.96 83.0732 105.964 83.0547 105.968C82.6781 106.043 82.2863 105.985 81.9472 105.802C81.5914 105.611 81.3183 105.295 81.1796 104.915C81.041 104.536 81.0464 104.118 81.1949 103.742C81.3434 103.366 81.6246 103.058 81.9852 102.876L85.6416 99.0391L86.8806 101.033L84.2538 103.712C84.3478 103.933 84.3921 104.172 84.3838 104.412C84.3755 104.652 84.3146 104.887 84.2056 105.101C84.0965 105.315 83.9419 105.502 83.7526 105.65C83.5787 105.786 83.3794 105.885 83.1667 105.942Z" fill="black"/>
<path d="M95.8602 79.1028C98.1219 79.1028 99.9554 77.2691 99.9554 75.0072C99.9554 72.7453 98.1219 70.9116 95.8602 70.9116C93.5985 70.9116 91.765 72.7453 91.765 75.0072C91.765 77.2691 93.5985 79.1028 95.8602 79.1028Z" fill="#F4F7FA"/>
<path fill-rule="evenodd" clip-rule="evenodd" d="M95.8602 78.6028C97.8457 78.6028 99.4554 76.993 99.4554 75.0072C99.4554 73.0214 97.8457 71.4116 95.8602 71.4116C93.8747 71.4116 92.265 73.0214 92.265 75.0072C92.265 76.993 93.8747 78.6028 95.8602 78.6028ZM99.9554 75.0072C99.9554 77.2691 98.1219 79.1028 95.8602 79.1028C93.5985 79.1028 91.765 77.2691 91.765 75.0072C91.765 72.7453 93.5985 70.9116 95.8602 70.9116C98.1219 70.9116 99.9554 72.7453 99.9554 75.0072Z" fill="black"/>
<path d="M90.5327 86.3762L94.1 96.4908L94.0786 96.5262C93.5824 97.3465 93.4203 98.0082 93.6097 98.4397C93.6596 98.5494 93.7327 98.647 93.824 98.7257C93.9152 98.8044 94.0224 98.8624 94.1383 98.8957L102.58 92.9945L102.285 90.6293L102.301 90.6029C103.117 89.2972 103.381 88.1148 103.086 87.0886C102.819 86.2582 102.243 85.5626 101.476 85.1463L101.447 85.1232L97.2363 79.998L91.6078 80.9981L90.5327 86.3762Z" fill="#F4F7FA"/>
<path fill-rule="evenodd" clip-rule="evenodd" d="M101.447 85.1232L97.2363 79.998L91.6078 80.9981L90.5327 86.3762L94.1 96.4908L94.0786 96.5262C93.5824 97.3465 93.4203 98.0082 93.6097 98.4397C93.6596 98.5494 93.7327 98.647 93.824 98.7257C93.9152 98.8044 94.0224 98.8624 94.1383 98.8957L102.58 92.9945L102.285 90.6293L102.301 90.6029C103.117 89.2972 103.381 88.1148 103.086 87.0886C102.819 86.2582 102.243 85.5626 101.476 85.1463L101.447 85.1232ZM102.047 92.7574L101.766 90.5154L101.877 90.3384C102.649 89.1025 102.846 88.0714 102.608 87.2341C102.379 86.5294 101.889 85.9393 101.238 85.5857L101.2 85.5654L101.095 85.4824L97.0357 80.5415L92.0312 81.4307L91.0499 86.3394L94.6501 96.5473L94.5065 96.7849C94.2744 97.1685 94.1355 97.4912 94.0727 97.7477C94.0099 98.0039 94.0318 98.1549 94.0662 98.2357C94.0779 98.2607 94.0926 98.2841 94.11 98.3054L102.047 92.7574Z" fill="black"/>
<path d="M85.1076 104.13L82.7177 101.188L88.4788 91.6771L91.1648 83.3738L91.2481 83.4007L91.1648 83.3738C91.3115 82.9202 91.5538 82.5033 91.8752 82.1513C92.1967 81.7992 92.5898 81.5202 93.0283 81.3329C93.4667 81.1457 93.9401 81.0546 94.4167 81.0659C94.8933 81.0771 95.3619 81.1904 95.791 81.398C96.2201 81.6057 96.5997 81.903 96.9042 82.2698C97.2087 82.6366 97.4311 83.0644 97.5563 83.5245C97.6815 83.9845 97.7066 84.466 97.63 84.9365C97.5534 85.4071 97.3768 85.8558 97.1122 86.2523L92.1811 93.6407L85.1076 104.13Z" fill="#F4F7FA"/>
<path fill-rule="evenodd" clip-rule="evenodd" d="M88.4788 91.6771L82.7177 101.188L85.1076 104.13L92.1811 93.6407L97.1122 86.2523C97.3768 85.8558 97.5534 85.4071 97.63 84.9365C97.7066 84.466 97.6815 83.9845 97.5563 83.5245C97.4311 83.0644 97.2087 82.6366 96.9042 82.2698C96.5997 81.903 96.2201 81.6057 95.791 81.398C95.3619 81.1904 94.8933 81.0771 94.4167 81.0659C93.9401 81.0546 93.4667 81.1457 93.0283 81.3329C92.5898 81.5202 92.1967 81.7992 91.8752 82.1513C91.6669 82.3794 91.4919 82.6348 91.3545 82.9097C91.28 83.0587 91.2167 83.2136 91.1651 83.3729C91.165 83.3732 91.1652 83.3726 91.1651 83.3729L88.4788 91.6771ZM91.7652 93.3632L91.7666 93.3612L96.6963 85.9747C96.9213 85.6376 97.0714 85.2562 97.1365 84.8562C97.2017 84.4562 97.1803 84.0468 97.0738 83.6558C96.9674 83.2647 96.7784 82.901 96.5195 82.5892C96.2606 82.2773 95.9379 82.0246 95.5732 81.8481C95.2084 81.6716 94.81 81.5753 94.4049 81.5657C93.9998 81.5562 93.5973 81.6336 93.2246 81.7928C92.852 81.9519 92.5177 82.1891 92.2445 82.4884C91.9712 82.7877 91.7652 83.1421 91.6405 83.5277L88.9366 91.8863L83.3278 101.146L85.0702 103.291L91.7652 93.3632Z" fill="black"/>
<path d="M101.676 74.1791H95.4659L95.4022 73.2874L95.0838 74.1791H94.1275L94.0013 72.4118L93.3702 74.1791H91.5199V74.0915C91.5213 72.8611 92.0106 71.6815 92.8806 70.8115C93.7505 69.9415 94.93 69.4521 96.1603 69.4507H97.0359C98.2662 69.4521 99.4457 69.9415 100.316 70.8115C101.186 71.6815 101.675 72.8611 101.676 74.0915V74.1791Z" fill="#7247FF"/>
<path d="M95.415 79.7243C95.3682 79.7242 95.3216 79.7201 95.2755 79.712L90.728 78.9095V71.3931H95.734L95.61 71.5376C93.8857 73.5488 95.1848 76.81 96.1126 78.575C96.181 78.7043 96.2115 78.8502 96.2006 78.9961C96.1897 79.1419 96.1378 79.2817 96.0509 79.3993C95.9782 79.4999 95.8826 79.5818 95.7721 79.6383C95.6615 79.6948 95.5391 79.7243 95.415 79.7243Z" fill="#7247FF"/>
<path d="M163.357 66.2583V76.8473H116.452L109.678 84.9745L110.452 76.8473H107.156V66.2583H163.357Z" fill="#F0F0F0"/>
<path d="M126.657 73.4549C127.717 73.4549 128.576 72.5957 128.576 71.5358C128.576 70.4759 127.717 69.6167 126.657 69.6167C125.597 69.6167 124.738 70.4759 124.738 71.5358C124.738 72.5957 125.597 73.4549 126.657 73.4549Z" fill="white"/>
<path d="M120.181 73.4549C121.241 73.4549 122.1 72.5957 122.1 71.5358C122.1 70.4759 121.241 69.6167 120.181 69.6167C119.121 69.6167 118.262 70.4759 118.262 71.5358C118.262 72.5957 119.121 73.4549 120.181 73.4549Z" fill="white"/>
<path d="M113.704 73.4549C114.764 73.4549 115.623 72.5957 115.623 71.5358C115.623 70.4759 114.764 69.6167 113.704 69.6167C112.644 69.6167 111.785 70.4759 111.785 71.5358C111.785 72.5957 112.644 73.4549 113.704 73.4549Z" fill="white"/>
<path d="M218.76 105.84H0.239869C0.176251 105.84 0.11524 105.815 0.0702557 105.77C0.0252716 105.725 0 105.664 0 105.6C0 105.537 0.0252716 105.476 0.0702557 105.431C0.11524 105.386 0.176251 105.36 0.239869 105.36H218.76C218.824 105.36 218.885 105.386 218.93 105.431C218.975 105.476 219 105.537 219 105.6C219 105.664 218.975 105.725 218.93 105.77C218.885 105.815 218.824 105.84 218.76 105.84Z" fill="#CACACA"/>
</g>
<defs>
<linearGradient id="paint0_linear" x1="54.8194" y1="20.8339" x2="108.566" y2="21.3532" gradientUnits="userSpaceOnUse">
<stop stop-color="#4614E8"/>
<stop offset="1" stop-color="#BCA7FF"/>
</linearGradient>
<clipPath id="clip0">
<rect width="219" height="106" fill="white"/>
</clipPath>
</defs>
</svg>
