<svg width="219" height="159" viewBox="0 0 219 159" fill="none" xmlns="http://www.w3.org/2000/svg">
<g clip-path="url(#clip0)">
<path d="M139.558 119.197V157.526H43.6867C32.7635 157.526 23.8763 148.928 23.8763 138.361C23.8763 127.795 32.7635 119.197 43.6867 119.197H139.558Z" fill="#F2F2F2"/>
<path d="M141.913 157.231C141.912 157.622 141.757 157.997 141.481 158.273C141.205 158.55 140.831 158.705 140.441 158.705H41.9792C36.6315 158.705 31.5029 156.577 27.7216 152.79C23.9402 149.002 21.8159 143.865 21.8159 138.509C21.8159 133.153 23.9402 128.016 27.7216 124.228C31.5029 120.441 36.6315 118.313 41.9792 118.313H140.441C140.831 118.313 141.206 118.468 141.482 118.745C141.758 119.021 141.913 119.396 141.913 119.787C141.913 120.178 141.758 120.553 141.482 120.83C141.206 121.106 140.831 121.261 140.441 121.261H41.9792C37.4122 121.261 33.0323 123.079 29.803 126.313C26.5736 129.548 24.7594 133.935 24.7594 138.509C24.7594 143.084 26.5736 147.471 29.803 150.705C33.0323 153.94 37.4122 155.757 41.9792 155.757H140.441C140.831 155.757 141.205 155.912 141.481 156.189C141.757 156.465 141.912 156.84 141.913 157.231Z" fill="url(#paint0_linear)"/>
<path d="M139.558 128.042H36.5336C36.4555 128.042 36.3806 128.011 36.3254 127.956C36.2702 127.901 36.2392 127.826 36.2392 127.747C36.2392 127.669 36.2702 127.594 36.3254 127.539C36.3806 127.484 36.4555 127.453 36.5336 127.453H139.558C139.636 127.453 139.711 127.484 139.766 127.539C139.821 127.594 139.852 127.669 139.852 127.747C139.852 127.826 139.821 127.901 139.766 127.956C139.711 128.011 139.636 128.042 139.558 128.042Z" fill="#CCCCCC"/>
<path d="M139.558 135.118H36.5336C36.4555 135.118 36.3806 135.087 36.3254 135.032C36.2702 134.977 36.2392 134.902 36.2392 134.824C36.2392 134.745 36.2702 134.67 36.3254 134.615C36.3806 134.56 36.4555 134.529 36.5336 134.529H139.558C139.636 134.529 139.711 134.56 139.766 134.615C139.821 134.67 139.852 134.745 139.852 134.824C139.852 134.902 139.821 134.977 139.766 135.032C139.711 135.087 139.636 135.118 139.558 135.118Z" fill="#CCCCCC"/>
<path d="M139.558 142.195H36.5336C36.4555 142.195 36.3806 142.164 36.3254 142.108C36.2702 142.053 36.2392 141.978 36.2392 141.9C36.2392 141.822 36.2702 141.747 36.3254 141.691C36.3806 141.636 36.4555 141.605 36.5336 141.605H139.558C139.636 141.605 139.711 141.636 139.766 141.691C139.821 141.747 139.852 141.822 139.852 141.9C139.852 141.978 139.821 142.053 139.766 142.108C139.711 142.164 139.636 142.195 139.558 142.195Z" fill="#CCCCCC"/>
<path d="M139.558 149.27H36.5336C36.4555 149.27 36.3806 149.239 36.3254 149.184C36.2702 149.129 36.2392 149.054 36.2392 148.975C36.2392 148.897 36.2702 148.822 36.3254 148.767C36.3806 148.712 36.4555 148.681 36.5336 148.681H139.558C139.636 148.681 139.711 148.712 139.766 148.767C139.821 148.822 139.852 148.897 139.852 148.975C139.852 149.054 139.821 149.129 139.766 149.184C139.711 149.239 139.636 149.27 139.558 149.27Z" fill="#CCCCCC"/>
<path d="M213.652 126.412L189.643 156.258L114.99 96.0086C106.484 89.144 104.95 76.8643 111.569 68.6361C118.188 60.4078 130.493 59.2984 138.999 66.163L213.652 126.412Z" fill="#F2F2F2"/>
<path fill-rule="evenodd" clip-rule="evenodd" d="M214.894 126.279L138.224 64.401C134.059 61.0403 128.733 59.4742 123.416 60.0471C118.099 60.62 113.227 63.285 109.872 67.4559C106.517 71.6268 104.953 76.9619 105.525 82.2875C106.097 87.6131 108.758 92.493 112.922 95.8537L189.592 157.731C189.896 157.976 190.285 158.091 190.673 158.049C191.061 158.007 191.416 157.813 191.661 157.508C191.906 157.204 192.02 156.814 191.978 156.426C191.937 156.037 191.743 155.681 191.439 155.435L114.769 93.5579C113.007 92.1371 111.542 90.3826 110.457 88.3945C109.372 86.4064 108.689 84.2238 108.447 81.9713C108.204 79.7187 108.407 77.4404 109.044 75.2665C109.681 73.0926 110.74 71.0657 112.159 69.3015C113.578 67.5373 115.33 66.0705 117.315 64.9848C119.301 63.8991 121.48 63.2158 123.729 62.9739C125.978 62.732 128.252 62.9363 130.423 63.5751C132.593 64.2139 134.616 65.2747 136.377 66.6968L213.047 128.574C213.197 128.696 213.37 128.787 213.556 128.841C213.741 128.896 213.936 128.913 214.128 128.893C214.32 128.872 214.507 128.814 214.676 128.721C214.846 128.628 214.996 128.503 215.117 128.352C215.238 128.201 215.329 128.028 215.383 127.842C215.438 127.656 215.455 127.462 215.434 127.269C215.414 127.076 215.355 126.89 215.262 126.72C215.17 126.55 215.044 126.4 214.894 126.279ZM114.455 93.9471L191.125 155.824C191.325 155.987 191.454 156.222 191.481 156.479C191.509 156.736 191.433 156.994 191.272 157.195C191.11 157.396 190.875 157.524 190.619 157.552C190.363 157.579 190.107 157.504 189.906 157.342L113.236 95.4646C109.175 92.1873 106.58 87.4281 106.022 82.2341C105.464 77.0401 106.989 71.8369 110.261 67.7693C113.534 63.7017 118.285 61.1029 123.47 60.5442C128.654 59.9855 133.849 61.5128 137.91 64.7901L214.58 126.668L214.58 126.668C214.679 126.748 214.762 126.847 214.823 126.959C214.885 127.072 214.923 127.195 214.937 127.322C214.951 127.45 214.939 127.579 214.903 127.702C214.867 127.824 214.808 127.939 214.727 128.039C214.647 128.138 214.548 128.221 214.436 128.282C214.324 128.344 214.201 128.382 214.075 128.396C213.948 128.409 213.819 128.398 213.697 128.362C213.575 128.326 213.461 128.266 213.361 128.186L213.361 128.185L136.691 66.3079C136.691 66.3078 136.691 66.3078 136.691 66.3078C134.879 64.8444 132.797 63.7528 130.564 63.0955C128.331 62.4381 125.99 62.2278 123.676 62.4767C121.361 62.7257 119.118 63.4288 117.075 64.5461C115.033 65.6633 113.229 67.1728 111.769 68.9881C110.309 70.8034 109.22 72.8891 108.565 75.1259C107.909 77.3628 107.7 79.707 107.95 82.0248C108.199 84.3425 108.902 86.5883 110.018 88.634C111.134 90.6796 112.642 92.485 114.455 93.947C114.455 93.947 114.455 93.9471 114.455 93.9471Z" fill="black"/>
<path d="M208.111 133.299L127.889 68.5547C127.858 68.5304 127.833 68.5004 127.815 68.4664C127.796 68.4324 127.785 68.3951 127.781 68.3566C127.776 68.3181 127.78 68.2792 127.791 68.2421C127.802 68.2049 127.82 68.1703 127.844 68.1401C127.868 68.11 127.898 68.0849 127.932 68.0663C127.966 68.0478 128.003 68.0361 128.042 68.032C128.08 68.0278 128.119 68.0313 128.156 68.0422C128.193 68.0531 128.228 68.0712 128.258 68.0955L208.481 132.84C208.511 132.865 208.536 132.895 208.555 132.929C208.573 132.963 208.585 133 208.589 133.038C208.593 133.077 208.59 133.116 208.579 133.153C208.568 133.19 208.55 133.225 208.526 133.255C208.501 133.285 208.471 133.31 208.437 133.329C208.403 133.348 208.366 133.359 208.328 133.363C208.289 133.367 208.25 133.364 208.213 133.353C208.176 133.342 208.142 133.324 208.111 133.3V133.299Z" fill="#CCCCCC"/>
<path d="M203.679 138.81L123.456 74.0647C123.396 74.0156 123.357 73.9444 123.348 73.8667C123.34 73.789 123.363 73.7112 123.412 73.6504C123.461 73.5895 123.532 73.5506 123.609 73.5422C123.687 73.5338 123.765 73.5566 123.826 73.6055L204.048 138.35C204.079 138.375 204.104 138.405 204.122 138.439C204.141 138.473 204.153 138.51 204.157 138.548C204.161 138.587 204.157 138.626 204.147 138.663C204.136 138.7 204.118 138.735 204.093 138.765C204.069 138.795 204.039 138.82 204.005 138.839C203.971 138.858 203.934 138.869 203.895 138.873C203.857 138.877 203.818 138.874 203.781 138.863C203.744 138.852 203.709 138.834 203.679 138.81Z" fill="#CCCCCC"/>
<path d="M199.247 144.32L119.024 79.5747C118.963 79.5257 118.924 79.4544 118.916 79.3767C118.907 79.2989 118.93 79.221 118.979 79.1601C119.028 79.0993 119.099 79.0603 119.177 79.052C119.255 79.0436 119.332 79.0665 119.393 79.1155L199.616 143.86C199.646 143.885 199.671 143.915 199.69 143.949C199.708 143.983 199.72 144.02 199.724 144.058C199.728 144.097 199.725 144.136 199.714 144.173C199.703 144.21 199.685 144.245 199.66 144.275C199.636 144.305 199.606 144.33 199.572 144.349C199.538 144.367 199.501 144.379 199.463 144.383C199.424 144.387 199.385 144.384 199.348 144.373C199.311 144.362 199.277 144.344 199.247 144.32V144.32Z" fill="#CCCCCC"/>
<path d="M194.814 149.83L114.591 85.085C114.561 85.0607 114.536 85.0307 114.518 84.9967C114.499 84.9627 114.488 84.9254 114.483 84.8869C114.479 84.8484 114.483 84.8095 114.494 84.7723C114.505 84.7352 114.523 84.7005 114.547 84.6704C114.571 84.6402 114.601 84.6152 114.635 84.5966C114.669 84.5781 114.706 84.5664 114.745 84.5622C114.783 84.5581 114.822 84.5616 114.859 84.5725C114.896 84.5834 114.931 84.6015 114.961 84.6258L195.184 149.371C195.214 149.395 195.239 149.425 195.257 149.459C195.276 149.493 195.288 149.53 195.292 149.569C195.296 149.607 195.293 149.646 195.282 149.683C195.271 149.721 195.253 149.755 195.228 149.785C195.204 149.816 195.174 149.841 195.14 149.859C195.106 149.878 195.069 149.889 195.031 149.894C194.992 149.898 194.953 149.894 194.916 149.883C194.879 149.872 194.844 149.854 194.814 149.83Z" fill="#CCCCCC"/>
<path d="M218.706 159H0.294355C0.216287 159 0.141417 158.969 0.0862143 158.913C0.0310121 158.858 0 158.783 0 158.705C0 158.627 0.0310121 158.552 0.0862143 158.497C0.141417 158.441 0.216287 158.41 0.294355 158.41H218.706C218.784 158.41 218.859 158.441 218.914 158.497C218.969 158.552 219 158.627 219 158.705C219 158.783 218.969 158.858 218.914 158.913C218.859 158.969 218.784 159 218.706 159Z" fill="#CCCCCC"/>
<path d="M99.5158 115.169L96.1507 115.168L94.5503 102.167L99.517 102.168L99.5158 115.169Z" fill="#F4F7FA"/>
<path fill-rule="evenodd" clip-rule="evenodd" d="M99.5158 115.169L96.1507 115.168L94.5503 102.167L99.517 102.168L99.5158 115.169ZM95.1157 102.668L96.593 114.669L99.0158 114.669L99.0169 102.668L95.1157 102.668Z" fill="black"/>
<path d="M93.7468 114.206H100.237V118.298H89.6606C89.6606 117.761 89.7663 117.229 89.9716 116.732C90.177 116.236 90.478 115.784 90.8574 115.404C91.2368 115.024 91.6873 114.723 92.1831 114.517C92.6788 114.311 93.2102 114.206 93.7468 114.206Z" fill="#F4F7FA"/>
<path fill-rule="evenodd" clip-rule="evenodd" d="M99.7367 114.706H93.7468C93.276 114.706 92.8097 114.798 92.3747 114.979C91.9396 115.159 91.5443 115.424 91.2112 115.758C90.8782 116.091 90.614 116.487 90.4337 116.923C90.3174 117.204 90.2376 117.498 90.1955 117.798H99.7367V114.706ZM89.6606 118.298C89.6606 118.131 89.6708 117.964 89.6912 117.798C89.7361 117.433 89.8303 117.074 89.9716 116.732C90.177 116.236 90.478 115.784 90.8574 115.404C91.2368 115.024 91.6873 114.723 92.1831 114.517C92.6788 114.311 93.2102 114.206 93.7468 114.206H100.237V118.298H89.6606Z" fill="black"/>
<path d="M65.1367 115.169L61.7716 115.168L60.1712 102.167L65.1378 102.168L65.1367 115.169Z" fill="#F4F7FA"/>
<path fill-rule="evenodd" clip-rule="evenodd" d="M65.1367 115.169L61.7716 115.168L60.1712 102.167L65.1378 102.168L65.1367 115.169ZM60.7365 102.668L62.2138 114.669L64.6367 114.669L64.6378 102.668L60.7365 102.668Z" fill="black"/>
<path d="M59.3677 114.206H65.8576V118.298H55.2815C55.2815 117.761 55.3872 117.229 55.5926 116.732C55.7979 116.236 56.0989 115.784 56.4783 115.404C56.8578 115.024 57.3083 114.723 57.804 114.517C58.2998 114.311 58.8311 114.206 59.3677 114.206Z" fill="#F4F7FA"/>
<path fill-rule="evenodd" clip-rule="evenodd" d="M65.3576 114.706H59.3677C58.8969 114.706 58.4307 114.798 57.9956 114.979C57.5606 115.159 57.1652 115.424 56.8322 115.758C56.4991 116.091 56.2349 116.487 56.0546 116.923C55.9384 117.204 55.8585 117.498 55.8164 117.798H65.3576V114.706ZM55.2815 118.298C55.2815 118.131 55.2918 117.964 55.3121 117.798C55.3571 117.433 55.4512 117.074 55.5926 116.732C55.7979 116.236 56.0989 115.784 56.4783 115.404C56.8578 115.024 57.3083 114.723 57.804 114.517C58.2998 114.311 58.8311 114.206 59.3677 114.206H65.8576V118.298H55.2815Z" fill="black"/>
<path d="M76.3766 18.7316V17.2574C76.3766 14.7356 77.3767 12.3171 79.157 10.534C80.9372 8.7508 83.3518 7.74902 85.8695 7.74902H85.8695C88.3872 7.74902 90.8018 8.7508 92.582 10.534C94.3623 12.3171 95.3625 14.7356 95.3625 17.2574V18.7316C95.3625 20.5496 94.6414 22.2932 93.358 23.5788C92.0745 24.8643 90.3338 25.5865 88.5187 25.5865H83.2203C82.3216 25.5865 81.4317 25.4092 80.6013 25.0647C79.771 24.7202 79.0166 24.2153 78.3811 23.5788C77.7455 22.9422 77.2414 22.1866 76.8975 21.3549C76.5536 20.5232 76.3766 19.6318 76.3766 18.7316Z" fill="#7247FF"/>
<path d="M85.8695 26.0942C89.8623 26.0942 93.0991 22.8521 93.0991 18.8528C93.0991 14.8534 89.8623 11.6113 85.8695 11.6113C81.8766 11.6113 78.6398 14.8534 78.6398 18.8528C78.6398 22.8521 81.8766 26.0942 85.8695 26.0942Z" fill="#F4F7FA"/>
<path fill-rule="evenodd" clip-rule="evenodd" d="M85.8695 25.5942C89.5854 25.5942 92.5991 22.5767 92.5991 18.8528C92.5991 15.1288 89.5854 12.1113 85.8695 12.1113C82.1535 12.1113 79.1398 15.1288 79.1398 18.8528C79.1398 22.5767 82.1535 25.5942 85.8695 25.5942ZM93.0991 18.8528C93.0991 22.8521 89.8623 26.0942 85.8695 26.0942C81.8766 26.0942 78.6398 22.8521 78.6398 18.8528C78.6398 14.8534 81.8766 11.6113 85.8695 11.6113C89.8623 11.6113 93.0991 14.8534 93.0991 18.8528Z" fill="black"/>
<path d="M46.5447 43.7404C46.8381 43.4629 47.1886 43.2532 47.5717 43.1261C47.9547 42.999 48.3609 42.9576 48.7617 43.0047C49.1624 43.0519 49.548 43.1865 49.8912 43.399C50.2344 43.6116 50.5269 43.8969 50.7482 44.2349L56.9457 43.0607L58.5767 46.659L49.8013 48.1941C49.2097 48.5287 48.5162 48.6343 47.8521 48.4909C47.1879 48.3475 46.5994 47.9651 46.198 47.4161C45.7966 46.8671 45.6102 46.1897 45.6741 45.5123C45.7379 44.8348 46.0477 44.2043 46.5447 43.7404V43.7404Z" fill="#F4F7FA"/>
<path fill-rule="evenodd" clip-rule="evenodd" d="M46.5447 43.7404C46.3472 43.9247 46.1793 44.1353 46.0447 44.3647C45.8404 44.7127 45.7126 45.1039 45.6741 45.5123C45.6102 46.1897 45.7966 46.8671 46.198 47.4161C46.5994 47.9651 47.1879 48.3475 47.8521 48.4909C48.5162 48.6343 49.2097 48.5287 49.8013 48.1941L58.5767 46.659L56.9457 43.0607L50.7482 44.2349C50.5269 43.8969 50.2344 43.6116 49.8912 43.399C49.548 43.1865 49.1624 43.0519 48.7617 43.0047C48.3609 42.9576 47.9547 42.999 47.5717 43.1261C47.3876 43.1872 47.211 43.2673 47.0447 43.3649C46.8649 43.4704 46.6971 43.5962 46.5447 43.7404ZM46.8627 44.1278C46.4688 44.506 46.2233 45.014 46.1718 45.5592C46.1194 46.115 46.2724 46.6707 46.6016 47.121C46.9308 47.5712 47.4133 47.8847 47.9576 48.0022C48.5018 48.1197 49.0702 48.0332 49.5552 47.7589L49.6302 47.7165L57.8549 46.2777L56.6526 43.6251L50.5128 44.7884L50.3298 44.5087C50.1486 44.2318 49.909 43.9981 49.628 43.8241C49.347 43.6501 49.0313 43.5399 48.7033 43.5013C48.3752 43.4627 48.0427 43.4966 47.7292 43.6007C47.4156 43.7047 47.1285 43.8764 46.8883 44.1036L46.8627 44.1278Z" fill="black"/>
<path d="M80.233 30.6542L80.314 30.7772L70.1512 37.483L53.0026 42.9679C52.7753 43.0411 52.5803 43.1909 52.4508 43.3918C52.3214 43.5928 52.2655 43.8325 52.2926 44.0701L52.6667 47.2975C52.6833 47.4404 52.7295 47.5782 52.8024 47.7021C52.8752 47.826 52.9732 47.9332 53.0898 48.017C53.2065 48.1008 53.3394 48.1593 53.4799 48.1886C53.6205 48.218 53.7656 48.2176 53.906 48.1875L70.0454 44.7224C70.8265 44.5556 71.565 44.2299 72.2152 43.7655L83.6326 35.629C84.0465 35.3324 84.3768 34.9336 84.5913 34.4713C84.8058 34.0091 84.8972 33.4991 84.8567 32.9909C84.8148 32.4821 84.6414 31.993 84.3535 31.5716C84.0657 31.1503 83.6733 30.8113 83.2149 30.5879C82.7566 30.3645 82.2481 30.2645 81.7395 30.2977C81.2308 30.3309 80.7396 30.4962 80.314 30.7772L80.233 30.6542Z" fill="#F4F7FA"/>
<path d="M96.2108 111.479C95.9525 111.479 95.6998 111.404 95.4835 111.263C95.2672 111.121 95.0967 110.92 94.9928 110.683L79.5657 72.5016C79.5297 72.4188 79.4692 72.349 79.3924 72.3017C79.3156 72.2543 79.2262 72.2317 79.1361 72.2368C79.0461 72.2418 78.9598 72.2744 78.8887 72.3301C78.8177 72.3858 78.7655 72.4619 78.739 72.5483L66.1528 109.719C66.0997 109.892 66.0118 110.052 65.8946 110.19C65.7773 110.328 65.6332 110.44 65.471 110.52C65.3088 110.6 65.1321 110.645 64.9516 110.654C64.7711 110.663 64.5908 110.635 64.4216 110.572L60.201 108.986C59.9719 108.901 59.7709 108.754 59.6204 108.561C59.4698 108.368 59.3756 108.137 59.3483 107.894C57.4495 91.3266 74.0071 49.508 74.1747 49.0877L74.221 48.9712L89.3147 52.3154L89.3461 52.3497C95.3679 58.9298 100.318 100.432 101.249 108.685C101.284 108.983 101.216 109.284 101.057 109.538C100.898 109.793 100.657 109.985 100.374 110.084L96.6488 111.404C96.5082 111.454 96.36 111.479 96.2108 111.479Z" fill="#F4F7FA"/>
<path fill-rule="evenodd" clip-rule="evenodd" d="M96.2108 110.979C96.3031 110.979 96.3946 110.964 96.4816 110.933L100.209 109.612C100.385 109.551 100.534 109.431 100.633 109.273C100.732 109.115 100.774 108.928 100.752 108.743L100.752 108.741C100.287 104.618 98.8178 92.1901 96.7137 79.9748C95.6615 73.8661 94.4521 67.8206 93.1325 62.8969C92.4725 60.4347 91.7874 58.2623 91.0841 56.507C90.401 54.8021 89.717 53.5331 89.0502 52.769L74.5293 49.5516C73.8385 51.3133 70.0433 61.1082 66.4639 72.5845C64.505 78.8653 62.6133 85.6416 61.33 91.876C60.0441 98.1233 59.3798 103.778 59.845 107.837C59.8621 107.989 59.9208 108.133 60.0145 108.253C60.1082 108.373 60.2331 108.465 60.3754 108.518L60.3768 108.518L64.5973 110.103C64.7026 110.143 64.8148 110.16 64.927 110.155C65.0393 110.149 65.1492 110.121 65.2501 110.071C65.3511 110.022 65.4408 109.952 65.5139 109.866C65.5869 109.78 65.6417 109.68 65.6749 109.572L65.677 109.566L78.2635 72.3935C78.3207 72.213 78.431 72.0537 78.5802 71.9367C78.7316 71.8179 78.9158 71.7484 79.108 71.7375C79.3001 71.7267 79.491 71.7751 79.6548 71.8761C79.8186 71.9771 79.9475 72.1259 80.0242 72.3022L80.0294 72.3143L95.4534 110.488C95.5185 110.634 95.624 110.757 95.7571 110.844C95.8921 110.932 96.0497 110.979 96.2108 110.979ZM94.9928 110.683L79.5657 72.5016C79.5297 72.4188 79.4692 72.349 79.3924 72.3017C79.3156 72.2543 79.2262 72.2317 79.1361 72.2368C79.0461 72.2418 78.9598 72.2744 78.8887 72.3301C78.8177 72.3858 78.7655 72.4619 78.739 72.5483L66.1528 109.719C66.0997 109.892 66.0118 110.052 65.8946 110.19C65.7773 110.328 65.6332 110.44 65.471 110.52C65.3088 110.6 65.1321 110.645 64.9516 110.654C64.7711 110.663 64.5908 110.635 64.4216 110.572L60.201 108.986C59.9719 108.901 59.7709 108.754 59.6204 108.561C59.4698 108.368 59.3756 108.137 59.3483 107.894C57.4495 91.3266 74.0071 49.508 74.1747 49.0877L74.221 48.9712L89.3147 52.3154L89.3461 52.3497C95.3679 58.9298 100.318 100.432 101.249 108.685C101.284 108.983 101.216 109.284 101.057 109.538C100.898 109.793 100.657 109.985 100.374 110.084L96.6488 111.404C96.5082 111.454 96.36 111.479 96.2108 111.479C95.9525 111.479 95.6998 111.404 95.4835 111.263C95.2672 111.121 95.0967 110.92 94.9928 110.683Z" fill="black"/>
<path d="M83.2061 53.6617C79.5491 53.6617 75.4721 52.9314 74.2171 49.9171L74.1882 49.8479L74.2273 49.7837C75.2178 48.1558 76.527 45.3787 75.8234 44.8574C74.4372 43.8309 73.7645 42.142 73.8242 39.8378C73.9539 34.8357 77.3566 30.3946 82.2916 28.7867H82.2917C83.6692 28.3451 85.0709 27.9836 86.49 27.7039C87.5246 27.4948 88.5926 27.5178 89.6172 27.7713C90.6418 28.0247 91.5977 28.5023 92.4161 29.1698C93.2449 29.8416 93.9148 30.6889 94.3777 31.6509C94.8407 32.6129 95.0851 33.6656 95.0936 34.7335C95.1453 40.0791 94.3237 47.5243 90.1154 52.6359C89.9182 52.873 89.6437 53.0329 89.3404 53.0873C87.3158 53.4541 85.2635 53.6463 83.2061 53.6617Z" fill="#F4F7FA"/>
<path fill-rule="evenodd" clip-rule="evenodd" d="M74.2171 49.9171C75.4721 52.9314 79.5491 53.6617 83.2061 53.6617C85.2635 53.6463 87.3158 53.4541 89.3404 53.0873C89.6437 53.0329 89.9182 52.873 90.1154 52.6359C94.3237 47.5243 95.1453 40.0791 95.0936 34.7335C95.0851 33.6656 94.8407 32.6129 94.3777 31.6509C93.9148 30.6889 93.2449 29.8416 92.4161 29.1698C91.5977 28.5023 90.6418 28.0247 89.6172 27.7713C88.5926 27.5178 87.5246 27.4948 86.49 27.7039C85.0709 27.9836 83.6692 28.3451 82.2917 28.7867H82.2916C77.3566 30.3946 73.9539 34.8357 73.8242 39.8378C73.7645 42.142 74.4372 43.8309 75.8234 44.8574C76.527 45.3787 75.2178 48.1558 74.2273 49.7837L74.1882 49.8479L74.2171 49.9171ZM74.7496 49.8853C75.2332 49.0718 75.7748 48.0199 76.1285 47.082C76.3157 46.5857 76.4612 46.0931 76.5072 45.6725C76.5302 45.4623 76.5315 45.2436 76.4848 45.0402C76.4371 44.8327 76.3318 44.6119 76.121 44.4557L76.1209 44.4556C74.9076 43.557 74.267 42.0521 74.3241 39.8507C74.4479 35.0725 77.7003 30.8108 82.4412 29.2638L82.4443 29.2628C83.8034 28.8271 85.1865 28.4704 86.5867 28.1945L86.5891 28.194C87.5512 27.9996 88.5443 28.021 89.4971 28.2567C90.45 28.4923 91.3389 28.9365 92.1001 29.5572L92.1013 29.5582C92.8726 30.1835 93.4962 30.9722 93.9272 31.8677C94.3581 32.7632 94.5857 33.7433 94.5936 34.7374L94.5936 34.7383C94.6451 40.0598 93.8196 47.349 89.7303 52.3169C89.6084 52.4632 89.439 52.5616 89.2521 52.5952L89.2512 52.5953C87.2554 52.9569 85.2323 53.1464 83.2041 53.1617C81.4015 53.1616 79.5311 52.9805 77.9729 52.4468C76.4796 51.9353 75.3285 51.1214 74.7496 49.8853Z" fill="black"/>
<path d="M81.8457 53.4615C82.0447 52.7464 82.5174 52.1389 83.1611 51.771C83.8048 51.4031 84.5674 51.3045 85.2833 51.4966C85.4294 51.5375 85.572 51.5904 85.7095 51.6547L90.4152 47.3652L93.6879 49.5736L86.9584 55.5384C86.6545 56.0872 86.1761 56.5184 85.5994 56.7634C85.0226 57.0085 84.3806 57.0533 83.7755 56.8907C83.423 56.7941 83.0931 56.6284 82.8049 56.4033C82.5167 56.1782 82.2759 55.8981 82.0965 55.5792C81.917 55.2603 81.8025 54.909 81.7594 54.5455C81.7164 54.182 81.7457 53.8135 81.8457 53.4615Z" fill="#F4F7FA"/>
<path fill-rule="evenodd" clip-rule="evenodd" d="M85.7095 51.6547C85.572 51.5904 85.4294 51.5375 85.2833 51.4966C84.5674 51.3045 83.8048 51.4031 83.1611 51.771C82.5174 52.1389 82.0447 52.7464 81.8457 53.4615C81.7457 53.8135 81.7164 54.182 81.7594 54.5455C81.8025 54.909 81.917 55.2603 82.0965 55.5792C82.2759 55.8981 82.5167 56.1782 82.8049 56.4033C83.0931 56.6284 83.423 56.7941 83.7755 56.8907C84.3806 57.0533 85.0226 57.0085 85.5994 56.7634C86.1761 56.5184 86.6545 56.0872 86.9584 55.5384L93.6879 49.5736L90.4152 47.3652L85.7095 51.6547ZM90.4615 47.9996L85.7998 52.249L85.4976 52.1076C85.3858 52.0553 85.2699 52.0123 85.1511 51.9788C84.5634 51.8218 83.9376 51.9031 83.4092 52.2051C82.88 52.5076 82.4911 53.0072 82.3274 53.5955L81.8457 53.4615L82.3267 53.598C82.2447 53.8867 82.2207 54.1887 82.256 54.4867C82.2912 54.7847 82.3852 55.0726 82.5322 55.334C82.6793 55.5953 82.8766 55.8248 83.1127 56.0092C83.3485 56.1934 83.6182 56.329 83.9064 56.4081C84.4033 56.5413 84.9303 56.5044 85.4038 56.3032C85.8778 56.1019 86.2711 55.7474 86.521 55.2962L86.5625 55.2211L92.8735 49.6273L90.4615 47.9996Z" fill="black"/>
<path d="M89.6698 53.516C89.3645 53.5162 89.0685 53.4104 88.8322 53.2167L86.9765 51.6977C86.8218 51.5711 86.6977 51.4111 86.6135 51.2296C86.5293 51.0482 86.4872 50.85 86.4903 50.6499C86.4934 50.4498 86.5416 50.253 86.6314 50.0743C86.7211 49.8955 86.8501 49.7394 87.0086 49.6176L94.7918 43.6384C94.8841 43.5672 94.9446 43.4624 94.9602 43.3468C94.9758 43.2312 94.9453 43.1141 94.8753 43.0209L90.0713 36.6595C89.5132 35.9228 89.2332 35.0122 89.2811 34.0887C89.3289 33.1652 89.7013 32.2884 90.3325 31.6136C90.9973 30.8944 91.9077 30.4519 92.883 30.3738C93.8584 30.2956 94.8274 30.5876 95.5979 31.1918L95.6283 31.2239L100.645 38.4185C101.187 38.8445 101.624 39.3904 101.921 40.0134C102.218 40.6365 102.367 41.3199 102.357 42.0102C102.347 42.7006 102.177 43.3792 101.862 43.9931C101.546 44.607 101.094 45.1396 100.539 45.5493L90.4583 53.2558C90.23 53.4248 89.9537 53.516 89.6698 53.516Z" fill="#F4F7FA"/>
<path fill-rule="evenodd" clip-rule="evenodd" d="M89.6698 53.016C89.8454 53.016 90.0164 52.9599 90.1581 52.856L100.242 45.1469C100.734 44.7831 101.137 44.3101 101.417 43.7646C101.697 43.2192 101.848 42.6162 101.857 42.0028C101.866 41.3894 101.733 40.7821 101.47 40.2286C101.206 39.675 100.818 39.1901 100.336 38.8118L100.277 38.7657L95.2489 31.554C94.584 31.0485 93.7561 30.8054 92.923 30.8722C92.0729 30.9403 91.2793 31.326 90.6997 31.953L90.3326 31.6136L90.6977 31.9551C90.1471 32.5438 89.8221 33.3087 89.7804 34.1145C89.7387 34.9204 89.983 35.7149 90.4698 36.3575L95.275 42.7205C95.4241 42.9189 95.4889 43.168 95.4557 43.4138C95.4225 43.6595 95.2939 43.8825 95.0974 44.0342L95.0964 44.035L87.3132 50.0141C87.2145 50.09 87.1341 50.1872 87.0782 50.2986C87.0222 50.4101 86.9921 50.5328 86.9902 50.6576C86.9883 50.7824 87.0146 50.906 87.0671 51.0192C87.1196 51.1323 87.1969 51.232 87.2932 51.3108C87.2932 51.3108 87.2932 51.3108 87.2932 51.3108L89.1489 52.8298C89.2958 52.9502 89.4803 53.0161 89.6698 53.016ZM86.9765 51.6977C86.8218 51.5711 86.6977 51.4111 86.6135 51.2296C86.5293 51.0482 86.4872 50.85 86.4903 50.6499C86.4934 50.4498 86.5416 50.253 86.6314 50.0743C86.7211 49.8955 86.8501 49.7394 87.0086 49.6176L94.7918 43.6384C94.8841 43.5672 94.9446 43.4624 94.9602 43.3468C94.9758 43.2312 94.9453 43.1141 94.8753 43.0209L90.0713 36.6595C89.5132 35.9228 89.2332 35.0122 89.2811 34.0887C89.3289 33.1652 89.7014 32.2884 90.3326 31.6136C90.9973 30.8945 91.9077 30.4519 92.883 30.3738C93.8584 30.2956 94.8274 30.5876 95.5979 31.1918L95.6283 31.2239L100.645 38.4185C101.187 38.8445 101.624 39.3904 101.921 40.0134C102.218 40.6365 102.367 41.3199 102.357 42.0102C102.347 42.7006 102.177 43.3792 101.862 43.9931C101.546 44.607 101.094 45.1396 100.539 45.5493L90.4583 53.2558C90.23 53.4248 89.9537 53.516 89.6698 53.516C89.3645 53.5162 89.0685 53.4104 88.8322 53.2167L86.9765 51.6977Z" fill="black"/>
<path d="M79.4656 16.8152V13.2223L85.8694 10.4214L91.9757 13.2223V16.8152C91.9757 16.9716 91.9136 17.1216 91.8032 17.2322C91.6928 17.3428 91.5431 17.4049 91.3869 17.4049H80.0543C79.8982 17.4049 79.7484 17.3428 79.638 17.2322C79.5276 17.1216 79.4656 16.9716 79.4656 16.8152Z" fill="#7247FF"/>
<path d="M85.5754 8.22577C84.6338 5.2071 86.6113 1.74757 89.5347 0.5527C92.4581 -0.642167 95.9556 0.193081 98.4223 2.16718C100.889 4.14128 102.42 7.09811 103.231 10.1546C104.041 13.2111 104.195 16.3982 104.345 19.5573C107.937 20.2181 110.38 24.4852 109.136 27.9242C107.892 31.3631 103.286 33.0716 100.106 31.2742C96.9252 29.4767 96.004 24.6449 98.2995 21.8C99.3856 20.4539 99.9924 18.7833 100.024 17.0528C100.055 15.3223 99.5087 13.6308 98.4718 12.2462C97.4349 10.8617 95.9665 9.86323 94.2991 9.40899C92.6317 8.95474 90.8606 9.07069 89.2664 9.73845C87.4962 10.4799 85.2751 8.5534 85.5754 8.22577Z" fill="#7247FF"/>
<path d="M45.217 29.8025C40.9166 29.7742 36.67 28.8427 32.7516 27.068C32.5183 26.9638 32.3203 26.794 32.1817 26.5792C32.0431 26.3643 31.9699 26.1137 31.971 25.858V15.1207C31.9714 14.7689 32.1111 14.4317 32.3594 14.183C32.6077 13.9342 32.9444 13.7943 33.2956 13.7939H57.1383C57.4895 13.7943 57.8262 13.9343 58.0745 14.183C58.3229 14.4317 58.4625 14.7689 58.4629 15.1207V25.858C58.464 26.1138 58.3908 26.3643 58.2522 26.5792C58.1136 26.794 57.9156 26.9638 57.6823 27.068C53.7639 28.8427 49.5173 29.7743 45.217 29.8025Z" fill="url(#paint1_linear)"/>
<path d="M45.2138 21.1043C45.0371 21.1044 44.8621 21.0692 44.6991 21.0006L25.7921 13.0107C25.5483 12.9077 25.3409 12.7339 25.1966 12.5117C25.0523 12.2895 24.9778 12.0291 24.9826 11.7641C24.9875 11.4991 25.0715 11.2416 25.2238 11.0248C25.3761 10.8081 25.5897 10.642 25.8372 10.548L44.7444 3.36352C45.0489 3.24728 45.3856 3.24799 45.6897 3.36554L64.3435 10.55C64.5896 10.6447 64.8018 10.8109 64.953 11.0271C65.1042 11.2433 65.1876 11.4998 65.1925 11.7638C65.1973 12.0278 65.1235 12.2872 64.9803 12.5089C64.8372 12.7306 64.6313 12.9045 64.3889 13.0083L45.7348 20.998C45.5701 21.0683 45.3929 21.1044 45.2138 21.1043Z" fill="url(#paint2_linear)"/>
<path d="M34.1788 27.7988C35.1542 27.7988 35.945 27.0067 35.945 26.0297C35.945 25.0528 35.1542 24.2607 34.1788 24.2607C33.2034 24.2607 32.4127 25.0528 32.4127 26.0297C32.4127 27.0067 33.2034 27.7988 34.1788 27.7988Z" fill="#3F3D56"/>
<path opacity="0.2" d="M64.4534 11.8742L45.7992 19.8639C45.6538 19.9262 45.4973 19.9585 45.3391 19.9589C45.181 19.9593 45.0243 19.9278 44.8786 19.8662L25.9716 11.8765C25.7342 11.7786 25.5361 11.6042 25.4086 11.3809C25.3253 11.5257 25.2736 11.6866 25.2571 11.8529C25.2406 12.0192 25.2596 12.1872 25.3128 12.3456C25.3661 12.504 25.4523 12.6493 25.5659 12.7717C25.6795 12.8942 25.8178 12.991 25.9716 13.0559L44.8786 21.0455C45.0243 21.1071 45.181 21.1386 45.3391 21.1383C45.4973 21.1379 45.6538 21.1056 45.7992 21.0433L64.4534 13.0535C64.6064 12.9881 64.7439 12.891 64.8567 12.7685C64.9695 12.646 65.055 12.5009 65.1077 12.3428C65.1604 12.1847 65.1791 12.0173 65.1624 11.8514C65.1457 11.6856 65.0941 11.5252 65.011 11.3809C64.8845 11.6024 64.6884 11.7758 64.4534 11.8742Z" fill="black"/>
<path d="M34.3272 26.023C34.4053 26.023 34.4802 25.992 34.5354 25.9367C34.5906 25.8814 34.6216 25.8064 34.6216 25.7282V15.8626L44.3297 12.3201C44.4078 12.3213 44.4831 12.2914 44.5392 12.2369C44.5952 12.1824 44.6273 12.1079 44.6285 12.0297C44.6296 11.9515 44.5998 11.876 44.5454 11.8199C44.491 11.7638 44.4166 11.7316 44.3385 11.7305L34.6303 15.2729C34.5522 15.2711 34.4745 15.2852 34.402 15.3144C34.3295 15.3435 34.2636 15.3871 34.2084 15.4425C34.1526 15.4973 34.1084 15.5626 34.0782 15.6348C34.048 15.7069 34.0326 15.7844 34.0329 15.8626V25.7282C34.0329 25.8064 34.0639 25.8814 34.1191 25.9367C34.1743 25.992 34.2492 26.023 34.3272 26.023Z" fill="#3F3D56"/>
</g>
<defs>
<linearGradient id="paint0_linear" x1="21.1681" y1="120.292" x2="146.292" y2="122.901" gradientUnits="userSpaceOnUse">
<stop stop-color="#4614E8"/>
<stop offset="1" stop-color="#BCA7FF"/>
</linearGradient>
<linearGradient id="paint1_linear" x1="31.8281" y1="14.5784" x2="59.4372" y2="14.8988" gradientUnits="userSpaceOnUse">
<stop stop-color="#4614E8"/>
<stop offset="1" stop-color="#BCA7FF"/>
</linearGradient>
<linearGradient id="paint2_linear" x1="24.7655" y1="4.15047" x2="66.6667" y2="4.81316" gradientUnits="userSpaceOnUse">
<stop stop-color="#4614E8"/>
<stop offset="1" stop-color="#BCA7FF"/>
</linearGradient>
<clipPath id="clip0">
<rect width="219" height="159" fill="white"/>
</clipPath>
</defs>
</svg>
