<svg width="218" height="119" viewBox="0 0 218 119" fill="none" xmlns="http://www.w3.org/2000/svg">
<g clip-path="url(#clip0)">
<path d="M144.987 32.2632L139.79 31.3389L134.482 45.7236L125.419 59.2823C124.781 59.3006 124.163 59.5094 123.644 59.8821C123.124 60.2548 122.727 60.7745 122.503 61.3749C122.28 61.9752 122.239 62.6289 122.387 63.2525C122.535 63.876 122.865 64.4412 123.334 64.8757C123.803 65.3103 124.391 65.5945 125.022 65.6921C125.653 65.7897 126.298 65.6962 126.876 65.4236C127.454 65.151 127.937 64.7117 128.265 64.1617C128.593 63.6117 128.75 62.9761 128.717 62.3359L139.786 49.5204L144.987 32.2632Z" fill="white"/>
<path fill-rule="evenodd" clip-rule="evenodd" d="M134.931 45.9522L125.691 59.7748L125.433 59.7821C124.895 59.7975 124.374 59.9736 123.935 60.2883C123.497 60.603 123.161 61.042 122.972 61.5495C122.783 62.057 122.749 62.6098 122.874 63.1371C122.999 63.6643 123.277 64.1419 123.674 64.5089C124.07 64.8758 124.566 65.1156 125.098 65.1979C125.63 65.2803 126.175 65.2014 126.662 64.9714C127.15 64.7413 127.559 64.3704 127.836 63.9056C128.113 63.4408 128.246 62.9034 128.218 62.3621L128.207 62.1613L139.338 49.2741L144.346 32.657L140.114 31.9044L134.931 45.9522ZM139.79 31.3389L144.987 32.2632L139.786 49.5204L128.717 62.3359C128.75 62.9761 128.593 63.6117 128.265 64.1617C127.937 64.7117 127.454 65.151 126.876 65.4236C126.298 65.6962 125.653 65.7897 125.022 65.6921C124.391 65.5945 123.803 65.3103 123.334 64.8757C122.865 64.4412 122.535 63.876 122.387 63.2525C122.239 62.6289 122.28 61.9752 122.503 61.3749C122.727 60.7745 123.124 60.2548 123.644 59.8821C124.163 59.5094 124.781 59.3006 125.419 59.2823L134.482 45.7236L139.79 31.3389Z" fill="black"/>
<path d="M162.774 14.3395C162.774 19.5114 158.011 18.7291 152.137 18.7291C146.262 18.7291 141.5 19.5114 141.5 14.3395C141.5 9.16757 143.826 0 152.137 0C160.734 0 162.774 9.16758 162.774 14.3395Z" fill="#7247FF"/>
<path d="M182.329 59.3372L172.942 43.1198L168.571 28.4209L163.325 29.0062L167.405 46.5647L177.854 60.3719C177.527 60.9128 177.366 61.5384 177.392 62.1707C177.417 62.8029 177.627 63.4137 177.996 63.9266C178.365 64.4394 178.877 64.8316 179.466 65.0542C180.056 65.2767 180.698 65.3197 181.312 65.1777C181.926 65.0357 182.485 64.715 182.919 64.2559C183.352 63.7967 183.641 63.2193 183.75 62.596C183.858 61.9727 183.781 61.3311 183.529 60.7515C183.276 60.1719 182.859 59.6799 182.329 59.3372Z" fill="white"/>
<path fill-rule="evenodd" clip-rule="evenodd" d="M172.479 43.3191L168.211 28.9642L163.939 29.4407L167.868 46.3479L178.458 60.3405L178.282 60.6306C178.006 61.0875 177.87 61.6163 177.891 62.1508C177.913 62.6852 178.09 63.2013 178.402 63.6345C178.714 64.0677 179.145 64.3987 179.643 64.5864C180.14 64.7741 180.682 64.8103 181.2 64.6905C181.718 64.5708 182.189 64.3003 182.555 63.9126C182.921 63.5249 183.165 63.0372 183.257 62.5103C183.349 61.9834 183.284 61.4411 183.07 60.9513C182.857 60.4616 182.504 60.0462 182.057 59.757L182.329 59.3372C182.859 59.6799 183.276 60.1719 183.529 60.7515C183.781 61.3311 183.858 61.9727 183.75 62.596C183.641 63.2193 183.352 63.7967 182.919 64.2559C182.485 64.715 181.926 65.0357 181.312 65.1777C180.698 65.3197 180.056 65.2767 179.466 65.0542C178.877 64.8316 178.365 64.4394 177.996 63.9266C177.627 63.4137 177.417 62.8029 177.392 62.1707C177.366 61.5384 177.527 60.9128 177.854 60.3719L167.405 46.5647L163.325 29.0062L168.571 28.4209L172.942 43.1198L182.329 59.3372L181.896 59.5877L172.479 43.3191Z" fill="black"/>
<path d="M173.015 85.1591L183.798 114.716H188.233L180.624 84.0991L173.015 85.1591Z" fill="white"/>
<path fill-rule="evenodd" clip-rule="evenodd" d="M184.148 114.216L173.697 85.5689L180.247 84.6564L187.594 114.216H184.148ZM180.624 84.0991L173.015 85.1591L183.798 114.716H188.233L180.624 84.0991Z" fill="black"/>
<path d="M149.411 86.7685L138.629 116.325H134.193L141.802 85.7085L149.411 86.7685Z" fill="white"/>
<path fill-rule="evenodd" clip-rule="evenodd" d="M149.411 86.7685L141.802 85.7085L134.193 116.325H138.629L149.411 86.7685ZM148.729 87.1783L142.179 86.2658L134.832 115.825H138.279L148.729 87.1783Z" fill="black"/>
<path d="M160.485 22.5336C160.485 22.5336 164.856 21.0704 166.021 23.1189C167.187 25.1674 170.101 31.6056 170.101 31.6056L164.273 32.4835L169.518 45.6524C169.518 45.6524 176.804 51.2126 178.552 63.7962C180.301 76.3798 182.049 86.6223 182.049 86.6223C182.049 86.6223 151.742 91.5973 140.086 89.5488C140.086 89.5488 140.96 83.4033 143.291 83.1106C141.543 81.3548 143.846 79.8916 143.846 79.8916L149.119 60.8698L150.285 51.5052C150.285 51.5052 148.255 41.9292 145.622 40.0922C142.99 38.2551 143.874 33.0688 143.874 33.0688L138.629 33.3614C138.629 33.3614 139.211 23.9969 141.834 23.9969H145.04L160.485 22.5336Z" fill="white"/>
<path fill-rule="evenodd" clip-rule="evenodd" d="M160.589 23.026L145.063 24.4969H141.834C141.669 24.4969 141.491 24.5665 141.289 24.7601C141.082 24.9589 140.875 25.2663 140.677 25.6773C140.281 26.4986 139.972 27.6206 139.738 28.7783C139.505 29.9287 139.352 31.0831 139.258 31.9523C139.22 32.2968 139.192 32.5956 139.171 32.8304L144.472 32.5346L144.367 33.1525L144.367 33.1544L144.365 33.1633L144.359 33.2025C144.354 33.2377 144.346 33.291 144.337 33.3601C144.319 33.4984 144.295 33.7 144.275 33.9482C144.235 34.4461 144.208 35.1254 144.26 35.8563C144.366 37.3573 144.792 38.9026 145.909 39.6822C146.68 40.2207 147.347 41.2681 147.911 42.4323C148.487 43.6187 148.996 45.0131 149.417 46.3357C149.84 47.6607 150.179 48.9259 150.412 49.8591C150.528 50.326 150.619 50.7105 150.68 50.9788C150.711 51.113 150.734 51.2181 150.75 51.2899L150.768 51.3723L150.773 51.3937L150.774 51.4009C150.774 51.401 150.774 51.4015 150.285 51.5052C150.285 51.5052 148.255 41.9292 145.622 40.0922C143.491 38.6047 143.665 34.9211 143.808 33.5732C143.842 33.2565 143.874 33.0688 143.874 33.0688L138.629 33.3614C138.629 33.3614 138.64 33.1764 138.667 32.8585C138.833 30.9141 139.58 23.9969 141.834 23.9969H145.04L160.485 22.5336C160.485 22.5336 164.856 21.0704 166.021 23.1189C166.996 24.8309 169.191 29.6088 169.886 31.1323C170.023 31.4318 170.101 31.6056 170.101 31.6056L164.273 32.4835L169.518 45.6524C169.518 45.6524 176.804 51.2126 178.552 63.7962C180.076 74.7588 181.599 83.9446 181.966 86.1293C182.02 86.4524 182.049 86.6223 182.049 86.6223C182.049 86.6223 181.878 86.6505 181.556 86.7017C177.595 87.3311 150.865 91.4432 140.086 89.5488C140.086 89.5488 140.828 84.3316 142.768 83.2824C142.934 83.1928 143.108 83.1336 143.291 83.1106C143.145 82.9634 143.026 82.8182 142.933 82.6757C141.913 81.1196 143.846 79.8916 143.846 79.8916L149.119 60.8698L150.285 51.5052L150.774 51.4009L150.792 51.4837L149.611 60.968L144.277 80.2105L144.116 80.3128L144.115 80.3134L144.114 80.314L144.101 80.3223C144.089 80.3305 144.07 80.3438 144.045 80.3619C143.996 80.3982 143.924 80.4532 143.843 80.5244C143.676 80.6694 143.483 80.8691 143.34 81.1032C143.198 81.3358 143.119 81.5789 143.139 81.8281C143.158 82.0705 143.274 82.385 143.645 82.7578L144.364 83.4798L143.353 83.6067C142.989 83.6525 142.606 83.9408 142.223 84.5166C141.85 85.0791 141.539 85.8256 141.29 86.5936C141.042 87.3565 140.865 88.1143 140.749 88.6838C140.714 88.8537 140.685 89.0062 140.661 89.1364C146.495 90.0259 156.588 89.3184 165.384 88.3567C169.894 87.8636 174.041 87.3066 177.061 86.8727C178.57 86.6558 179.798 86.4698 180.648 86.338C180.984 86.2859 181.26 86.2423 181.472 86.2086C181.421 85.9045 181.348 85.4659 181.255 84.9069C181.064 83.7491 180.791 82.0745 180.463 80.0065C179.807 75.8707 178.932 70.1608 178.057 63.865C177.195 57.66 174.97 53.1964 172.968 50.289C171.967 48.8346 171.021 47.7689 170.329 47.0695C169.983 46.7198 169.7 46.4619 169.506 46.2928C169.409 46.2083 169.335 46.146 169.285 46.1056C169.26 46.0854 169.242 46.0707 169.23 46.0615L169.217 46.0516L169.215 46.0499L169.105 45.9659L163.575 32.0829L169.372 31.2098C169.313 31.0819 169.247 30.9364 169.173 30.776C168.882 30.1413 168.482 29.2738 168.046 28.3426C167.169 26.472 166.158 24.3698 165.587 23.3662C165.382 23.0067 165.027 22.7756 164.537 22.6468C164.042 22.5166 163.451 22.5038 162.86 22.5562C162.274 22.6081 161.718 22.7212 161.305 22.8226C161.1 22.8731 160.932 22.9201 160.816 22.9543C160.759 22.9713 160.714 22.9851 160.685 22.9944L160.652 23.0049L160.645 23.0074L160.643 23.0078L160.589 23.026Z" fill="black"/>
<path d="M188.78 118.547L177.26 118.546V118.4C177.26 117.206 177.732 116.061 178.573 115.216C179.414 114.372 180.555 113.898 181.744 113.897H181.744L188.78 113.898L188.78 118.547Z" fill="white"/>
<path fill-rule="evenodd" clip-rule="evenodd" d="M188.78 118.547L177.26 118.546V118.4C177.26 118.398 177.26 118.396 177.26 118.393C177.26 118.277 177.265 118.161 177.274 118.046C177.357 116.982 177.816 115.977 178.573 115.216C179.414 114.372 180.555 113.898 181.744 113.897L188.78 113.898L188.78 118.547ZM181.744 114.397L188.28 114.398ZM188.28 114.398L188.28 118.047L177.775 118.046C177.858 117.114 178.264 116.236 178.928 115.569C179.675 114.819 180.688 114.398 181.744 114.397" fill="black"/>
<path d="M139.822 118.547L128.302 118.546V118.4C128.302 117.206 128.775 116.061 129.616 115.216C130.456 114.372 131.597 113.898 132.786 113.897H132.786L139.822 113.898L139.822 118.547Z" fill="white"/>
<path fill-rule="evenodd" clip-rule="evenodd" d="M139.822 118.547L128.302 118.546V118.4C128.302 118.398 128.302 118.396 128.302 118.393C128.302 118.277 128.307 118.161 128.316 118.046C128.4 116.982 128.858 115.977 129.616 115.216C130.456 114.372 131.597 113.898 132.786 113.897L139.822 113.898L139.822 118.547ZM132.786 114.397L139.322 114.398ZM139.322 114.398L139.322 118.047L128.818 118.046C128.9 117.114 129.306 116.236 129.97 115.569C130.717 114.819 131.73 114.398 132.786 114.397" fill="black"/>
<path d="M152.605 18.1975C156.558 18.1975 159.762 14.9795 159.762 11.0099C159.762 7.04026 156.558 3.82227 152.605 3.82227C148.652 3.82227 145.448 7.04026 145.448 11.0099C145.448 14.9795 148.652 18.1975 152.605 18.1975Z" fill="white"/>
<path fill-rule="evenodd" clip-rule="evenodd" d="M152.605 17.6975C156.28 17.6975 159.262 14.7053 159.262 11.0099C159.262 7.31442 156.28 4.32227 152.605 4.32227C148.93 4.32227 145.948 7.31442 145.948 11.0099C145.948 14.7053 148.93 17.6975 152.605 17.6975ZM159.762 11.0099C159.762 14.9795 156.558 18.1975 152.605 18.1975C148.652 18.1975 145.448 14.9795 145.448 11.0099C145.448 7.04026 148.652 3.82227 152.605 3.82227C156.558 3.82227 159.762 7.04026 159.762 11.0099Z" fill="black"/>
<path d="M143.832 10.8279H146.663L147.912 7.31623L148.161 10.8279H149.514L150.243 8.77944L150.389 10.8279H160.442C160.442 8.80999 159.644 6.87469 158.223 5.44778C156.802 4.02087 154.875 3.21924 152.866 3.21924H151.408C149.399 3.21924 147.472 4.02087 146.051 5.44778C144.63 6.87469 143.832 8.80999 143.832 10.8279Z" fill="#7247FF"/>
<path d="M217.709 119H106.68C106.602 119 106.528 118.969 106.474 118.914C106.419 118.859 106.388 118.785 106.388 118.707C106.388 118.63 106.419 118.555 106.474 118.5C106.528 118.445 106.602 118.415 106.68 118.415H217.709C217.786 118.415 217.86 118.445 217.915 118.5C217.969 118.555 218 118.63 218 118.707C218 118.785 217.969 118.859 217.915 118.914C217.86 118.969 217.786 119 217.709 119Z" fill="#CBCBCB"/>
<path d="M125.382 9.97656H0V62.8486H125.382V9.97656Z" fill="#CBCBCB"/>
<path d="M2.62265 60.2149H122.759V12.6104H2.62265V60.2149Z" fill="white"/>
<path d="M104.246 29.7376V50.0375C104.245 50.3049 104.139 50.5613 103.951 50.7504C103.762 50.9395 103.507 51.046 103.241 51.0466H81.4893C81.223 51.046 80.9678 50.9395 80.7795 50.7504C80.5911 50.5613 80.4851 50.3049 80.4845 50.0375V29.7376C80.4847 29.47 80.5906 29.2135 80.779 29.0243C80.9674 28.8351 81.2229 28.7287 81.4893 28.7285H103.241C103.507 28.7287 103.763 28.8351 103.951 29.0243C104.14 29.2135 104.246 29.47 104.246 29.7376Z" fill="#6C63FF"/>
<path d="M104.246 29.7376V50.0375C104.245 50.3049 104.139 50.5613 103.951 50.7504C103.762 50.9395 103.507 51.046 103.241 51.0466H81.4893C81.223 51.046 80.9678 50.9395 80.7795 50.7504C80.5911 50.5613 80.4851 50.3049 80.4845 50.0375V29.7376C80.4847 29.47 80.5906 29.2135 80.779 29.0243C80.9674 28.8351 81.2229 28.7287 81.4893 28.7285H103.241C103.507 28.7287 103.763 28.8351 103.951 29.0243C104.14 29.2135 104.246 29.47 104.246 29.7376Z" fill="url(#paint0_linear)"/>
<path d="M93.9016 51.1487H90.828C90.5651 51.1518 90.3116 51.0501 90.1233 50.8658C89.9349 50.6815 89.827 50.4298 89.8232 50.1657V29.1081C89.827 28.844 89.9349 28.5923 90.1233 28.408C90.3116 28.2237 90.5651 28.122 90.828 28.1251H93.9016C94.1646 28.122 94.418 28.2237 94.6064 28.408C94.7947 28.5923 94.9027 28.844 94.9064 29.1081V50.1657C94.9027 50.4298 94.7947 50.6815 94.6064 50.8658C94.418 51.0501 94.1646 51.1518 93.9016 51.1487Z" fill="#3F3D56"/>
<path d="M91.732 22.3745C93.3117 23.7475 92.8129 26.9251 92.8129 26.9251C92.8129 26.9251 89.753 27.8765 88.1733 26.5034C86.5936 25.1304 87.0924 21.9528 87.0924 21.9528C87.0924 21.9528 90.1524 21.0014 91.732 22.3745Z" fill="#3F3D56"/>
<path d="M96.9788 26.2404C95.6165 27.831 92.4508 27.34 92.4508 27.34C92.4508 27.34 91.4938 24.2701 92.8561 22.6795C94.2184 21.0889 97.3842 21.5798 97.3842 21.5798C97.3842 21.5798 98.3412 24.6497 96.9788 26.2404Z" fill="#3F3D56"/>
<path opacity="0.2" d="M104.246 29.7376V33.1553L80.4845 33.0544V29.7376C80.4847 29.47 80.5906 29.2135 80.779 29.0243C80.9674 28.8351 81.2229 28.7287 81.4893 28.7285H103.241C103.507 28.7287 103.763 28.8351 103.951 29.0242C104.14 29.2134 104.246 29.47 104.246 29.7376Z" fill="black"/>
<path d="M106.804 31.8156C106.71 31.9398 106.588 32.0403 106.449 32.1092C106.31 32.1782 106.156 32.2138 106.001 32.2131L79.5211 32.1016C79.3892 32.101 79.2586 32.0744 79.1369 32.0231C79.0152 31.9719 78.9048 31.8971 78.8119 31.803C78.7189 31.7089 78.6454 31.5974 78.5954 31.4748C78.5454 31.3521 78.52 31.2208 78.5205 31.0883L78.5329 28.1205C78.534 27.8529 78.6409 27.5967 78.8301 27.4083C79.0193 27.2199 79.2752 27.1146 79.5417 27.1157H79.542L106.022 27.2272C106.154 27.2278 106.284 27.2544 106.406 27.3056C106.528 27.3568 106.638 27.4316 106.731 27.5257C106.824 27.6198 106.898 27.7314 106.948 27.854C106.998 27.9766 107.023 28.108 107.022 28.2405L107.01 31.2083C107.009 31.4279 106.937 31.6413 106.804 31.8156Z" fill="#6C63FF"/>
<path d="M106.804 31.8156C106.71 31.9398 106.588 32.0403 106.449 32.1092C106.31 32.1782 106.156 32.2138 106.001 32.2131L79.5211 32.1016C79.3892 32.101 79.2586 32.0744 79.1369 32.0231C79.0152 31.9719 78.9048 31.8971 78.8119 31.803C78.7189 31.7089 78.6454 31.5974 78.5954 31.4748C78.5454 31.3521 78.52 31.2208 78.5205 31.0883L78.5329 28.1205C78.534 27.8529 78.6409 27.5967 78.8301 27.4083C79.0193 27.2199 79.2752 27.1146 79.5417 27.1157H79.542L106.022 27.2272C106.154 27.2278 106.284 27.2544 106.406 27.3056C106.528 27.3568 106.638 27.4316 106.731 27.5257C106.824 27.6198 106.898 27.7314 106.948 27.854C106.998 27.9766 107.023 28.108 107.022 28.2405L107.01 31.2083C107.009 31.4279 106.937 31.6413 106.804 31.8156Z" fill="url(#paint1_linear)"/>
<path d="M89.8868 26.9221L89.8654 32.2642L94.9487 32.2846L94.97 26.9426L89.8868 26.9221Z" fill="#3F3D56"/>
<path d="M47.8963 28.4346H18.5021V30.7912H47.8963V28.4346Z" fill="#E5E5E5"/>
<path d="M63.8932 37.0308H18.5021V39.3874H63.8932V37.0308Z" fill="url(#paint2_linear)"/>
<path d="M55.4948 45.1289H18.5021V47.4856H55.4948V45.1289Z" fill="#E5E5E5"/>
<path d="M36.786 101.994C37.9293 102.398 39.1568 102.499 40.3503 102.288C41.5437 102.077 42.663 101.561 43.6001 100.789C45.9867 98.7774 46.7351 95.4642 47.3438 92.3956L49.1447 83.3188L45.3744 85.9258C42.6629 87.8006 39.8905 89.7356 38.0133 92.4511C36.136 95.1666 35.317 98.8738 36.8249 101.812" fill="#E6E6E6"/>
<path d="M37.3682 113.616C36.8937 110.144 36.4054 106.627 36.7391 103.118C37.0348 100.002 37.9816 96.9582 39.9092 94.4618C40.9323 93.1395 42.1773 92.0066 43.5882 91.1139C43.956 90.8808 44.2946 91.4661 43.9284 91.6983C41.4871 93.2475 39.5989 95.5353 38.5359 98.2317C37.3619 101.23 37.1734 104.499 37.3756 107.684C37.4978 109.61 37.7576 111.524 38.0184 113.435C38.039 113.522 38.0262 113.613 37.9825 113.69C37.9388 113.767 37.8675 113.825 37.783 113.852C37.6968 113.875 37.6049 113.863 37.5273 113.819C37.4497 113.775 37.3926 113.701 37.3684 113.615L37.3682 113.616Z" fill="#F2F2F2"/>
<path d="M40.7838 108.045C41.2741 108.793 41.948 109.402 42.7408 109.813C43.5335 110.224 44.4183 110.423 45.3099 110.391C47.6017 110.282 49.5115 108.676 51.2306 107.152L56.3164 102.642L52.9506 102.481C50.53 102.364 48.047 102.255 45.7415 103.005C43.436 103.756 41.3098 105.559 40.8883 107.956" fill="#E6E6E6"/>
<path d="M36.0268 115.612C38.3114 111.552 40.9611 107.041 45.6961 105.599C47.0126 105.199 48.393 105.056 49.763 105.177C50.1948 105.214 50.087 105.883 49.656 105.845C47.3595 105.654 45.0675 106.263 43.1657 107.57C41.3357 108.821 39.9107 110.56 38.7048 112.404C37.966 113.534 37.3043 114.711 36.6426 115.887C36.4312 116.263 35.8129 115.992 36.0268 115.612Z" fill="#F2F2F2"/>
<path d="M60.9275 116.366H21.2951C21.2178 116.366 21.1437 116.335 21.0891 116.28C21.0344 116.225 21.0037 116.151 21.0037 116.073C21.0037 115.996 21.0344 115.921 21.0891 115.866C21.1437 115.812 21.2178 115.781 21.2951 115.781H60.9275C61.0048 115.781 61.0789 115.812 61.1336 115.866C61.1882 115.921 61.2189 115.996 61.2189 116.073C61.2189 116.151 61.1882 116.225 61.1336 116.28C61.0789 116.335 61.0048 116.366 60.9275 116.366Z" fill="#CBCBCB"/>
</g>
<defs>
<linearGradient id="paint0_linear" x1="80.3563" y1="29.8222" x2="105.122" y2="30.0071" gradientUnits="userSpaceOnUse">
<stop stop-color="#4614E8"/>
<stop offset="1" stop-color="#BCA7FF"/>
</linearGradient>
<linearGradient id="paint1_linear" x1="78.3668" y1="27.3655" x2="108.029" y2="28.5285" gradientUnits="userSpaceOnUse">
<stop stop-color="#4614E8"/>
<stop offset="1" stop-color="#BCA7FF"/>
</linearGradient>
<linearGradient id="paint2_linear" x1="18.2573" y1="37.1462" x2="64.7215" y2="43.4215" gradientUnits="userSpaceOnUse">
<stop stop-color="#4614E8"/>
<stop offset="1" stop-color="#BCA7FF"/>
</linearGradient>
<clipPath id="clip0">
<rect width="218" height="119" fill="white"/>
</clipPath>
</defs>
</svg>
